<svg width="252" height="205" viewBox="0 0 252 205" fill="none" xmlns="http://www.w3.org/2000/svg">
<path d="M141.331 21.9359L123.666 13.1103L123.479 11.2995L131.646 9.58984L156.064 23.7555L179.056 67.1473L175.633 71.6464L155.519 59.4574L132.405 20.9869L123.148 17.8677L123.67 13.3894L141.331 21.9359Z" fill="#532A25"/>
<path d="M68.2118 58.0251L71.0603 52.7078L78.6569 46.2495L86.4436 41.3108L101.448 34.6623L103.346 34.603L92.3307 42.2598L75.4281 53.0864L68.2118 58.0251Z" fill="#512E25"/>
<path d="M184.627 81.9779L174.758 73.0319L166.092 65.5008L163.07 62.3414L158.129 56.8496L152.911 51.0822L148.242 45.1769L140.828 34.6033L138.083 31.8574L147.83 51.6317L157.991 67.1476L184.627 81.9779Z" fill="#65372C"/>
<path d="M126.55 11.3973L129.982 10.7117L134.376 10.0244L137.258 9.06315L143.712 8.10191L150.989 6.17944L148.929 4.11914H144.124L136.023 4.80649L133.963 5.62991L129.982 5.76773L123.872 7.75824L123.94 11.9469L126.55 11.3973Z" fill="#7A392F"/>
<path d="M110.374 26.1156L114.742 30.4839L124.809 35.0424C124.809 35.0424 114.932 19.8579 114.932 18.8967C114.932 17.9355 115.503 17.1871 115.503 15.0971L114.466 14.005C114.466 14.005 111.787 11.287 111.513 12.2483C111.239 13.2095 109.371 14.6732 109.233 16.0479C109.096 17.4208 110.372 26.1156 110.372 26.1156H110.374Z" fill="#512E25"/>
<path d="M115.291 14.8307C115.291 14.8307 120.251 13.7683 123.942 12.9082V13.5956L119.136 17.3027L116.664 18.5378L117.763 25.6782L118.998 28.5619L124.078 34.6032C124.078 34.6032 117.212 28.8358 116.526 27.7367C115.841 26.6377 114.33 25.2647 114.193 23.3423C114.055 21.4198 115.841 15.6524 115.291 14.8289V14.8307Z" fill="#271818"/>
<path d="M123.94 13.3911L124.048 17.7577L118.731 24.7847L124.078 34.6029L117.402 27.2549L115.883 18.3264L123.94 13.3911Z" fill="#73392C"/>
<path d="M117.899 22.5205C117.761 24.7168 118.587 26.5033 119.258 28.0821C119.931 29.6609 122.204 32.5864 122.204 32.5864L124.078 34.6049L123.94 33.0941L120.095 23.2078L123.94 22.2466V17.1665L117.899 22.5222V22.5205Z" fill="#211413"/>
<path d="M124.078 3.84521L123.94 9.06312V11.9468C123.94 11.9468 116.8 14.6927 114.466 14.0071L113.505 15.2423L111.548 20.9417L111.949 12.6778C111.949 12.6778 113.659 10.4082 114.554 9.59171C115.449 8.77527 119.792 5.26352 121.011 4.65293C122.231 4.04235 122.019 4.25867 124.08 3.84696L124.078 3.84521Z" fill="#73392C"/>
<path d="M67.4514 85.3778L67.7846 77.8432L73.1502 61.0642L76.9476 59.7349L91.1918 53.0865L97.8534 46.6143L96.594 49.1595L86.4437 63.3443L71.4407 82.529L67.8317 88.2266L67.4514 85.3778Z" fill="#6A382E"/>
<path d="M73.1394 61.1065C73.1394 61.1065 75.1995 60.9687 76.1606 60.6948C77.1217 60.4209 91.127 53.1427 91.127 53.1427L97.8549 46.6147L98.4096 45.4912L96.0687 47.2392L90.4397 53.1445L67.7843 60.4192V77.8436L73.1394 61.1048V61.1065Z" fill="#41211D"/>
<path d="M123.666 34.4673L118.175 33.9178L110.486 30.2107L99.6378 23.6181L88.106 14.9687L91.1254 12.085L93.4593 13.1823L103.894 23.2064L110.21 28.2882L114.878 31.308L118.449 32.9566L123.666 34.4673Z" fill="#693733"/>
<path d="M95.6573 7.41406L91.1255 12.0842L93.3234 13.1815L103.894 23.2056L109.908 28.0432L114.878 31.3072L118.449 32.9558L123.666 34.4666L120.645 32.818L115.154 29.5225L110.21 25.2659L103.482 17.9877L95.6573 7.41406Z" fill="#CA8F6F"/>
<path d="M84.6734 18.4L88.415 15.1987L99.638 23.6179L109.539 29.6348L118.175 33.9176L107.877 29.5231L98.1292 27.1889L84.6734 25.4043L75.6116 26.915L78.0833 24.0313L84.6734 18.4Z" fill="#693733"/>
<path d="M98.9523 23.6177L84.6732 18.3998L88.1061 15.4637L88.3799 15.2422L99.1809 23.2758L103.648 26.0548L98.9523 23.6177Z" fill="#251013"/>
<path d="M74.7882 29.9349L75.6115 26.9151L84.6734 25.4043L98.6001 26.8749L107.877 29.5231L118.175 33.9176L106.915 30.8961L96.2069 29.661L93.0479 30.8961L87.2811 30.0727L77.6716 30.4844L74.7882 29.9349Z" fill="#985A46"/>
<path d="M73.2773 39.821C73.2773 39.6832 75.2467 30.022 75.2467 30.022L77.6713 30.4843L87.2826 30.0726L93.0494 30.896L83.7137 34.8788L80.5582 38.2719L74.7897 42.8426L72.7296 45.1767L73.2791 39.821H73.2773Z" fill="#43241A"/>
<path d="M77.5335 35.5641L87.6925 31.9948L93.0476 30.8957L86.9163 30.0217L77.5335 30.484L74.8594 29.9136L73.2773 39.8208L73.1884 40.6826L77.5335 35.5641Z" fill="#251013"/>
<path d="M77.945 37.0753L83.7118 34.8789L93.1574 30.8525L87.9017 31.9516L77.5334 35.5645L73.1394 40.6464L73.026 42.2583L77.945 37.0753Z" fill="#241213"/>
<path d="M118.175 33.9173L98.677 34.7407L74.7883 45.8639L68.1389 58.36V127.566L66.2184 123.859V57.6726L72.7282 45.1765L74.7883 42.8423L83.7856 34.4721L96.207 29.6606L106.915 30.8958L118.175 33.9173Z" fill="#773F36"/>
<path d="M71.4913 50.2586L86.8694 41.3318L100.325 35.2905L102.881 34.563L98.6768 34.6031L74.7881 45.8641L71.4913 49.477V50.2586Z" fill="#3A211A"/>
<path d="M68.1962 58.2225L71.0796 53.1407L78.9064 46.4137L86.3652 41.625L71.4912 50.2587L68.1962 58.2225Z" fill="#261110"/>
<path d="M102.933 38.86L107.397 34.373L102.778 34.4725L89.0671 41.6076L77.258 50.2588L68.1962 58.2226L82.8887 49.1597L95.1078 42.4311L102.933 38.86Z" fill="#6A382E"/>
<path d="M68.1962 58.2225L91.1255 47.0993L102.933 38.8599L95.1078 42.4309L82.8887 49.1596L68.1962 58.2225Z" fill="#512E25"/>
<path d="M87.3346 133.143V89.104C87.3346 89.104 89.5307 90.7125 90.6296 90.8503C90.7674 91.3998 91.5716 93.1653 91.5716 93.1653L92.0024 133.143H87.3346Z" fill="#814D3A"/>
<path d="M101.75 133.144H97.356V107.792L101.6 111.722L101.75 133.144Z" fill="#41211D"/>
<path d="M92.0028 133.143L91.3156 93.1777L92.8384 99.2958L93.5134 104.17L97.3562 107.741V133.143H92.0028Z" fill="#6A382E"/>
<path d="M85.5486 133.144L85.8224 87.6914C85.8224 87.6914 87.1952 88.9265 87.333 89.0644C87.4708 89.2022 87.333 133.144 87.333 133.144H85.5486Z" fill="#8C5A46"/>
<path d="M82.0756 133.054L82.2535 83.9858L85.8241 87.693L85.5485 133.143L82.0756 133.054Z" fill="#A67B59"/>
<path d="M77.724 133.144V70.8027V72.863L81.019 82.8871L82.254 83.9862V133.144H77.724Z" fill="#6A382E"/>
<path d="M74.8594 133.055L74.9762 78.6305L77.7236 70.8027V133.144L74.8594 133.055Z" fill="#935C41"/>
<path d="M73.3298 133.144V83.9861L74.9765 78.6304V133.144H73.3298Z" fill="#663B30"/>
<path d="M71.5452 133.143V90.0272L73.3296 83.9858V133.143H71.5452Z" fill="#905540"/>
<path d="M67.9744 133.144V99.7759L68.9355 97.3057L69.3472 133.144H67.9744Z" fill="#966E51"/>
<path d="M71.5453 90.0273L68.9358 97.3055L69.3475 133.144H71.5453V90.0273Z" fill="#613027"/>
<path d="M166.911 133.144V71.0591C166.911 71.0591 169.108 72.6675 170.207 72.8054C170.344 73.3549 171.148 74.9302 171.148 74.9302L171.579 133.144H166.911Z" fill="#814D3A"/>
<path d="M181.328 133.143H176.934V93.7358L181.178 111.722L181.328 133.143Z" fill="#41211D"/>
<path d="M171.579 133.144L170.894 73.6147L172.415 79.7311L173.09 84.6071L176.934 88.1764V133.144H171.579Z" fill="#6A382E"/>
<path d="M165.127 133.144L165.401 81.4233C165.401 81.4233 166.774 82.6585 166.912 82.7963C167.049 82.9341 166.912 133.144 166.912 133.144H165.127Z" fill="#8C5A46"/>
<path d="M161.842 133.054L161.832 83.9858L165.452 83.8584L165.127 133.143L161.842 133.054Z" fill="#A67B59"/>
<path d="M157.3 133.144V70.8027V72.863L160.595 82.8871L161.832 83.9862V133.144H157.3Z" fill="#6A382E"/>
<path d="M154.692 133.144L154.555 78.6305L157.3 70.8027V133.144H154.692Z" fill="#935C41"/>
<path d="M152.908 133.144V83.9861L154.555 78.6304L155.006 133.055L152.908 133.144Z" fill="#663B30"/>
<path d="M151.122 133.143V90.0272L152.908 83.9858V133.143H151.122Z" fill="#905540"/>
<path d="M147.553 133.144V99.7759L148.514 97.3057L148.926 133.144H147.553Z" fill="#966E51"/>
<path d="M151.122 90.0273L148.514 97.3055L148.926 133.144H151.122V90.0273Z" fill="#613027"/>
<path d="M66.602 133.143H67.9748V60.2287L90.6302 52.9523L96.2592 47.047L98.5547 45.3932L100.104 41.9966L90.6302 52.1271L66.1903 59.2675V85.6326L66.602 133.143Z" fill="#663B30"/>
<g opacity="0.44">
<path d="M97.3562 107.982V107.93L93.5117 104.358L92.8367 99.4842L91.5825 94.4443L91.5703 93.3557C91.5703 93.3557 90.7644 91.5902 90.6283 91.0407C89.5643 90.9081 87.4711 89.3956 87.3403 89.2996C87.3385 89.2735 87.3368 89.2578 87.3333 89.256C87.1955 89.1182 85.8227 87.8831 85.8227 87.8831L82.252 84.1759L81.017 83.0769L77.722 73.0528V70.9925L74.9764 78.8202L73.328 84.1759L71.5436 90.2173L68.934 97.4955L67.9729 99.9675V60.4206L90.6266 53.1424L96.2555 47.2372L98.5511 45.5833L100.1 42.1885L90.6266 52.319L66.1902 59.4576V85.8228L66.6018 133.333H74.9764V133.248L77.722 133.333H82.252V133.248L85.5471 133.333H101.748L101.598 111.912L97.3545 107.982H97.3562Z" fill="black"/>
<path d="M181.178 111.913L176.934 93.9248V88.3649L173.09 84.7939L172.415 79.9196L170.894 73.8033L170.903 74.6232C170.653 74.1121 170.294 73.3445 170.207 72.9938C169.108 72.856 166.912 71.2476 166.912 71.2476V82.9848C166.774 82.847 165.401 81.6118 165.401 81.6118L165.389 84.049L161.832 84.1728L161.844 133.241L165.127 133.33H181.328L181.178 111.909V111.913Z" fill="black"/>
<path d="M157.3 73.053V70.9927L154.555 78.8204L152.908 84.1744L151.122 90.2174L148.514 97.4939L147.553 99.9659V133.334H148.926H151.122H152.908L154.692 133.257V133.334H157.3H161.832V84.1744L160.595 83.0771L157.3 73.053Z" fill="black"/>
</g>
<path d="M67.7847 85.4106L69.5692 79.9188C69.5692 79.9188 76.4349 64.6769 79.4543 62.8922C80.8271 62.0688 88.1045 57.6743 89.2034 56.5752C90.3023 55.4762 94.009 51.4951 94.009 51.4951L97.0791 48.1509L93.3218 53.1437L89.4773 58.2238C89.4773 58.2238 79.5921 63.8534 78.767 64.9525C77.9437 66.0515 72.8625 74.2892 71.3536 78.4098C69.843 82.5287 67.783 88.2036 67.783 88.2036V85.4124L67.7847 85.4106Z" fill="#43241A"/>
<path d="M67.7843 96.5322L77.2578 68.658L78.4945 67.4229L77.5334 70.8543L74.7442 78.956L73.1394 84.1739L71.355 90.2169L68.7454 97.4934L67.7843 99.9654V96.5322Z" fill="#663B30"/>
<path d="M81.5141 66.4616L85.7721 62.7527L89.4788 58.2222L84.947 62.2032L80.5513 66.7669L81.5141 66.4616Z" fill="#8C5A46"/>
<path d="M86.8101 68.9355L81.5143 66.4618L85.9083 62.5854L89.4789 58.2224L97.079 48.1494L91.5965 59.2516L86.8101 68.9355Z" fill="#41211D"/>
<path d="M85.842 70.9919L86.8694 68.9319L81.5143 66.4619L85.842 70.9919Z" fill="#361A15"/>
<path d="M95.9275 7.78128L98.9522 4.25732L103.62 16.7534L108.152 22.2452L111.818 26.6519L110.184 25.3557L103.482 17.9886L95.9275 7.78128Z" fill="#693225"/>
<path d="M103.894 3.84521L99.1007 4.65817L103.346 16.8089L111.857 26.6411C111.857 26.6411 106.778 19.6385 106.64 19.2268C104.717 14.4206 103.894 3.84696 103.894 3.84696V3.84521Z" fill="#73392C"/>
<path d="M104.993 4.11914C104.993 4.11914 106.228 14.2811 107.189 18.5377C108.15 22.7944 111.857 26.6393 111.857 26.6393C111.857 26.6393 107.672 20.9242 106.575 19.2774C105.064 17.7666 103.929 4.25696 103.929 4.25696L104.855 4.11914H104.993Z" fill="#180A02"/>
<path d="M109.387 3.15771L105.01 4.25677C105.01 4.25677 106.502 15.4811 106.577 16.0481C106.652 16.6151 106.957 19.8477 108.377 21.6986C108.203 20.5943 106.917 13.3196 107.329 9.88638C107.74 6.45314 109.389 3.15771 109.389 3.15771H109.387Z" fill="#73392C"/>
<path d="M117.761 1.37305L109.308 3.31995C109.308 3.31995 107.585 7.21898 107.145 9.58981C106.538 12.8678 107.739 20.46 108.426 21.6951C109.113 22.9303 111.859 26.6391 111.859 26.6391C111.859 26.6391 109.799 21.0095 109.525 18.5375C109.251 16.0655 109.525 10.4359 109.525 10.4359L117.763 1.37305H117.761Z" fill="#8F4C3C"/>
<path d="M107.876 10.0242L117.761 1.37305L109.387 10.4359L109.476 18.0072L111.859 26.6391L108.285 21.7457L108.014 18.2636L107.876 10.0242Z" fill="#41231B"/>
<path d="M124.078 0.138184V1.23724L119.821 4.39485C119.821 4.39485 113.094 8.78933 111.859 12.4965C111.447 13.3199 109.746 18.9129 110.528 21.8158C111.309 24.7187 109.387 17.99 109.387 17.99L109.235 10.3507L117.763 1.37506C117.763 1.37506 122.293 0.276002 124.079 0.139928L124.078 0.138184Z" fill="#693225"/>
<path d="M124.078 3.84518V1.23535L117.399 5.87581C116.216 6.69749 115.143 7.66571 114.213 8.76476C113.207 9.95454 112.078 11.4688 111.859 12.4946C111.585 13.318 111.419 13.7192 111.419 13.7192C111.419 13.7192 111.721 12.9063 112.27 12.2189C112.82 11.5316 119.272 4.52903 124.078 3.84343V3.84518Z" fill="#41231B"/>
<path d="M124.078 34.6027C124.078 34.6027 117.076 29.9343 116.664 29.5226C116.253 29.1109 114.33 27.6001 113.919 26.0894C113.919 27.874 114.064 28.0729 114.472 28.9347L115.154 29.5226L120.404 32.6732L124.078 34.6027Z" fill="#221017"/>
<path d="M124.078 34.6034L118.998 28.5621C118.998 28.5621 117.899 26.2279 117.763 25.6784C117.627 25.1288 116.664 18.538 116.664 18.538C116.664 18.538 118.724 17.5767 119.136 17.3028C119.548 17.0289 123.942 13.5957 123.942 13.5957V17.1668L117.901 22.5225C117.901 22.5225 117.352 28.0143 124.08 34.6069L124.078 34.6034Z" fill="#361B16"/>
<path d="M117.214 19.6363L120.921 19.0868L123.94 17.1646L117.9 22.5197L117.214 19.6363Z" fill="#6F3833"/>
<path d="M116.938 18.6751H120.645L123.94 17.1645V13.8799C123.94 13.8799 119.134 18.539 116.938 18.6751Z" fill="#964D37"/>
<path d="M123.94 11.9468V12.9079C123.94 12.9079 117.488 14.968 115.29 14.8302L115.016 14.5563L114.467 14.0068C114.467 14.0068 114.878 14.2807 116.389 14.0068C117.899 13.733 123.94 11.9468 123.94 11.9468Z" fill="#964D37"/>
<path d="M123.94 9.13089V11.9463C123.94 11.9463 116.113 14.8296 114.466 14.0063L113.53 15.2413L113.505 13.4568L115.428 11.9463L119.41 10.2979C119.41 10.2979 122.019 8.92506 123.94 9.13089Z" fill="#7A392F"/>
<path d="M124.078 34.6032C124.078 34.6032 118.723 23.4801 118.723 22.6567C118.997 22.5189 120.233 22.5189 120.233 22.5189C120.233 22.5189 123.666 21.5576 123.94 21.5576V22.245C123.94 22.245 121.194 23.0684 120.095 23.2062L123.94 33.0925L124.078 34.6032Z" fill="#964D37"/>
<path d="M123.94 19.7744L119.806 22.52H120.233L123.94 21.5589V19.7744Z" fill="#6F3833"/>
<path d="M123.94 22.2451V33.0944L120.095 23.2064L123.94 22.2451Z" fill="#1F080D"/>
<path d="M116.664 18.2633L123.94 12.9082V13.8693L119.134 17.1644L116.664 18.2633Z" fill="#2C1203"/>
<path d="M123.94 21.5589L131.266 20.6064L132.595 20.9867L123.94 22.2444V21.5589Z" fill="#964D37"/>
<path d="M123.94 19.6105L127.657 19.2773L131.266 20.6065L123.94 21.5589V19.6105Z" fill="#6F3833"/>
<path d="M123.94 17.1646L127.511 19.3607L123.94 19.6363V17.1646Z" fill="#211413"/>
<path d="M123.86 32.7623C123.86 32.7623 127.786 24.167 127.924 23.7553C128.062 23.3436 129.344 22.091 130.507 21.9358C131.331 21.7979 132.217 21.7456 132.217 21.7456L132.787 23.0749C132.787 23.0749 131.817 23.5285 131.268 24.2141C130.718 24.8997 126.14 30.6201 126.14 30.6201L124.491 33.5038L124.08 34.8191L123.86 32.7623Z" fill="#562724"/>
<path d="M133.963 24.8551L132.728 22.9326L131.468 23.8939L126.136 30.6225L124.488 33.5062L124.076 34.8792L124.763 33.5062L127.92 29.9352C127.92 29.9352 132.588 25.6785 133.138 25.4046C133.687 25.1307 133.961 24.8551 133.961 24.8551H133.963Z" fill="#1A070C"/>
<path d="M132.316 21.971V21.0098L123.942 22.2449L123.874 32.918L127.924 23.7557C127.924 23.7557 129.159 22.2449 130.534 21.971C131.906 21.6971 132.318 21.971 132.318 21.971H132.316Z" fill="#1F080D"/>
<path d="M135.062 26.5013L133.963 24.8545L132.595 25.5453L127.922 29.9346L124.765 33.5056L124.078 34.8786L125.039 33.6417L128.418 31.4331L135.062 26.5013Z" fill="#3E1B1A"/>
<path d="M136.204 28.3942L135.065 26.3042L125.04 33.6417L124.079 34.8768L125.314 33.9156C125.314 33.9156 133.459 29.4915 136.204 28.3924V28.3942Z" fill="#10040C"/>
<path d="M137.258 30.3461L136.023 28.0122L125.314 33.9168L124.078 34.8779L125.588 34.1906L137.258 30.3461Z" fill="#341515"/>
<path d="M138.083 31.8573L137.258 30.3467L125.588 34.1912L124.078 34.8785L126.138 34.329L138.083 31.8573Z" fill="#3E1C19"/>
<path d="M138.357 32.9564L138.083 31.8574L128.481 33.8442L124.865 34.6693L128.61 34.3291L138.357 32.9564Z" fill="#0F080A"/>
<path d="M139.044 34.8783L138.357 32.9561L125.58 34.6044C125.58 34.6044 135.474 34.055 139.044 34.8783Z" fill="#3E1A17"/>
<path d="M140.829 38.5857L139.044 34.8789L135.801 34.6033L128.85 34.4673L124.54 34.6696L140.829 38.5857Z" fill="#B56C53"/>
<path d="M156.892 67.6971L147.007 51.7678L140.828 38.5861L139.044 34.879L138.357 32.9565L138.083 31.8574L147.83 51.6317L157.991 67.1476L184.627 81.9779L162.223 71.3223L156.892 67.6971Z" fill="#AC6851"/>
<path d="M164.719 70.1686L152.774 56.1617L149.753 51.6311L146.595 44.7646L165.68 70.1686L167.191 71.8154L164.719 70.1686Z" fill="#773F36"/>
<path d="M179.959 71.2665L184.627 81.9779L176.526 75.6609L152.911 51.0822L140.828 34.6033L138.083 31.8574L142.063 34.6033L153.323 49.8453L175.291 65.363L179.959 71.2665Z" fill="#A66257"/>
<path d="M179.822 116.444L177.076 99.4156L169.251 74.0605L176.595 77.841L181.405 97.1547L179.822 116.444Z" fill="#BE7861"/>
<path d="M170.76 76.7598L178.937 87.0874L181.405 97.1551L179.821 116.444L177.761 98.5926L170.76 76.7598Z" fill="#9C5948"/>
<path d="M180.645 79.5384L183.685 91.0715V99.8604L180.664 131.717L179.889 115.446L181.351 97.1145L176.546 77.752L180.645 79.5384Z" fill="#73362F"/>
<path d="M184.627 81.9778L183.666 91.4523L180.645 79.9175L184.627 81.9778Z" fill="#562422"/>
<path d="M182.78 77.7403L180.645 68.2466L171.309 61.7918L165.279 58.2905L175.292 65.3629L180.097 71.4042L182.78 77.7403Z" fill="#6D352E"/>
<path d="M184.627 70.5805L180.645 68.2463L172.202 62.4108L165.269 58.2222L169.661 60.0068L179.41 65.2247L185.177 68.2463L186 69.2075V127.566L185.177 126.742L184.627 70.5805Z" fill="#894438"/>
<path d="M154.421 43.6661L163.896 53.9658L170.435 60.4224L172.666 61.6156L168.426 57.2613L163.209 51.4938L152.636 40.2346L136.023 22.5206L123.94 12.9082V13.5938L132.728 20.5981L137.258 24.8548L144.262 32.5447L154.421 43.6661Z" fill="#4D1818"/>
<path d="M136.023 26.6395L132.459 20.9941C132.424 20.9976 132.39 20.9994 132.353 20.9994C132.349 20.9994 132.346 20.9994 132.342 20.9994C132.309 21.0046 132.28 21.0133 132.245 21.0151L132.315 21.9711L132.726 22.9323L136.021 28.0124L138.081 31.8574L142.064 34.6033L136.023 26.6395Z" fill="#925541"/>
<path d="M177.038 63.955L167.876 49.8452L161.286 35.2905L175.328 50.618L179.809 65.4343L177.038 63.955Z" fill="#7B4035"/>
<path d="M174.03 62.3448L171.583 59.8693L165.542 49.1596L160.737 41.7436L153.323 33.2303L141.24 21.9711L134.376 18.2639L123.94 12.9082L136.023 22.5206L149.547 36.9392L169.251 58.2225L172.682 61.6557L174.03 62.3448Z" fill="#CA8F6F"/>
<path d="M167.876 49.8453L164.581 46.4138L161.286 41.8815L155.387 35.6011L153.323 33.2303L141.24 21.9711L137.122 18.4L131.629 13.8695L127.099 12.3587L123.94 11.947L126.55 11.3975L132.728 13.4578L140.417 17.9883L146.595 21.9711L156.481 29.2493L161.286 35.2906L167.876 49.8453Z" fill="#985A46"/>
<path d="M182.759 66.9798L177.487 54.1017L175.703 51.2197L161.286 35.2903L156.48 29.249L161.836 34.8786L170.21 44.2154L176.087 50.808L178.998 54.6512L185.177 68.2464L182.759 66.9798Z" fill="#BE6E59"/>
<path d="M172.133 26.6391L178.646 54.2149L174.189 48.7179L172.133 35.8398L168.564 26.0896L167.876 25.404L166.641 23.7554L172.133 26.6391Z" fill="#532A25"/>
<path d="M171.529 43.9693L167.191 31.857L161.274 22.3161L155.52 18.6753L166.641 23.7554L168.564 26.0896L172.133 35.8398L174.948 49.6687L171.529 43.9693Z" fill="#3E1313"/>
<path d="M154.146 23.7553L165.451 36.7521L172.132 44.353L167.191 31.8569L161.286 22.2445L155.519 18.6752L141.516 13.5934L135.062 11.397L129.982 10.7114L135.611 11.9466L144.535 16.8906L154.146 23.7553Z" fill="#532A25"/>
<path d="M156.481 29.4391L150.302 22.7105L142.847 16.144L155.007 24.216L171.339 43.2105L175.016 49.7612L169.594 43.7199L156.481 29.4391Z" fill="#804239"/>
<path d="M157.855 24.9747L172.132 44.353L167.191 31.8569L161.286 22.2445L155.519 18.6752L134.634 11.3395L129.982 10.7114L135.611 11.9466L157.855 24.9747Z" fill="#693733"/>
<path d="M124.078 3.84462L133.002 2.33403L136.023 1.92236L139.867 2.88349L146.81 4.11848L138.083 3.84462H134.512L132.316 5.21741H129.982L123.94 7.96299L124.078 3.84462Z" fill="#73392C"/>
<path d="M133.963 5.62934L136.023 4.94382L146.65 4.08037L134.495 3.51172L132.316 5.21768L129.937 4.8409L123.94 7.96326L129.982 5.76714L133.963 5.62934Z" fill="#6D3427"/>
<path d="M123.94 0L136.023 1.92226L124.078 3.84451L123.94 0Z" fill="#693225"/>
<path d="M172.132 26.6392L169.661 24.3051L155.245 17.852L140.141 11.9468L136.023 10.1621L129.982 10.7116L135.062 11.3972L148.929 16.4285L155.519 18.6754L172.132 26.6392Z" fill="#BB8874"/>
<path d="M165.954 20.4598L169.819 24.4059L154.645 17.6162L139.053 11.4894L136.023 10.1618L129.982 10.7113L134.495 9.96988L136.014 9.39941L146.649 13.0089L154.009 15.9292L164.122 19.8474L165.954 20.4598Z" fill="#5E2B27"/>
<path d="M162.385 17.0265L165.954 20.4597L164.496 20.0951L154.009 15.9291L136.023 9.47437L137.258 9.06266L142.282 9.01904L148.242 10.4356L153.597 12.632L159.64 14.2806L162.385 17.0265Z" fill="#8F4C3C"/>
<path d="M150.989 6.1792L159.639 14.2808L153.597 12.6322L148.242 10.4359L142.063 9.06292H137.258L143.712 7.96386L150.989 6.1792Z" fill="#4A1D1C"/>
<path d="M150.989 10.1615L155.519 10.711L150.989 6.1792L143.309 8.03343L137.258 9.06258L144.535 8.78872L150.989 10.1615Z" fill="#532424"/>
<path d="M150.578 7.68979L153.315 8.5044L150.989 6.1792L143.565 8.12239L150.578 7.68979Z" fill="#733730"/>
<path d="M90.7137 52.3172L102.933 38.8599L91.1254 47.0993L68.1961 58.2225L66 59.4576L90.7137 52.3172Z" fill="#8C5A46"/>
<path d="M96.2069 29.6606L74.7882 45.8639L98.9211 34.5628L96.2069 29.6606Z" fill="#43241A"/>
<path d="M177.899 76.2104L184.489 81.7039L179.684 75.7987L165.268 61.6051L153.323 49.8452L169.661 67.697L177.899 76.2104Z" fill="#65372C"/>
<path d="M67.6415 88.2266L73.8984 78.5444L67.7845 97.2197L67.6415 88.2266Z" fill="#41211D"/>
<path d="M113.413 88.6069L110.348 92.4131L115.428 93.3742L113.413 88.6069Z" fill="#F3D6B3"/>
<path d="M113.413 88.7974L117.402 86.5173L118.921 91.0757L122.529 69.2324L118.921 71.3224L113.413 88.7974Z" fill="#FFE3C4"/>
<path d="M124.078 56.5737V34.603L119.821 34.8787L102.933 38.8597L124.078 56.5737Z" fill="#FBE0BD"/>
<path d="M108.094 47.1987L111.721 53.1406L101.148 57.5351L101.496 56.4343L103.676 52.8877L108.094 47.1987Z" fill="#ECC79A"/>
<path d="M81.223 81.7632C81.223 81.7632 79.0443 72.7771 78.9065 72.0915C78.7687 71.4042 78.2192 68.7961 78.2192 68.7961L78.4931 67.4232L81.5143 66.4619L85.0849 70.3069L81.5143 73.7401L82.0638 78.958L81.2212 81.765L81.223 81.7632Z" fill="#6B211E"/>
<path d="M106.196 64.4834L103.158 64.8637L95.7495 69.6123L96.7002 70.9417L106.575 67.5224L116.451 72.6513L118.921 71.322L109.994 65.244L106.196 64.4834Z" fill="#B46846"/>
<path d="M106.641 73.4633C102.935 73.8749 99.868 71.1014 99.868 71.1014C99.868 71.1014 104.445 67.4209 106.367 67.4209C108.29 67.4209 111.173 68.6559 113.507 70.7159C113.507 71.1276 112.82 72.2265 112.272 72.5004C111.724 72.7743 108.29 73.4615 106.643 73.4615L106.641 73.4633Z" fill="#DCCFC0"/>
<path d="M106.366 72.7761C105.131 72.7342 102.996 71.8935 103.17 68.7641C103.245 68.8234 104.306 67.0093 106.64 67.1471C108.974 67.2849 110.032 68.3559 110.032 68.3559C110.032 68.3559 110.348 72.9139 106.366 72.7761Z" fill="#1D0000"/>
<path d="M106.641 70.9918C105.954 70.9918 105.131 70.1685 105.131 69.2074C105.131 68.2462 105.954 67.6968 106.641 67.6968C107.328 67.6968 108.152 68.2462 108.152 69.0696C108.152 69.8929 107.878 70.9918 106.641 70.9918Z" fill="#030000"/>
<path d="M97.8535 63.3027C97.8535 63.3027 97.7157 68.7939 95.6574 69.619C93.5973 69.3451 87.145 68.2462 87.145 68.2462L91.4012 65.8721L94.8096 64.1906L97.168 63.3027H97.8552H97.8535Z" fill="#974A2D"/>
<path d="M118.86 71.4043L118.449 76.8978L115.693 84.6191L113.413 88.7973L110.348 92.4137L118.86 71.4043Z" fill="#E3B78C"/>
<path d="M124.078 95.2972V96.5322L114.428 93.3749C114.428 93.3749 116.12 91.041 118.829 91.041C119.675 91.7283 124.076 95.2972 124.076 95.2972H124.078Z" fill="#43090E"/>
<path d="M124.078 34.6025L118.175 33.917L107.327 34.3287L102.933 38.8587L119.684 34.8781L124.078 34.6025Z" fill="#F0AF7A"/>
<path d="M101.148 57.5353L101.646 40.2784L102.933 38.8618L108.285 47.0105C108.285 47.0105 101.286 55.3407 101.148 57.5371V57.5353Z" fill="#E9C194"/>
<path d="M117.899 62.8908L111.721 53.1406L101.148 57.5351L117.899 62.8908Z" fill="#F4DCBA"/>
<path d="M124.078 56.5739L117.899 62.8908L111.721 53.1406L124.078 56.5739Z" fill="#E6C39F"/>
<path d="M102.933 38.8599L124.078 56.5739L111.721 53.1406L102.933 38.8599Z" fill="#DDB28A"/>
<path d="M87.145 68.2464L99.7391 42.2598L101.698 40.2344L101.149 57.5349L87.145 68.2464Z" fill="#C1855C"/>
<path d="M97.8535 63.3024L98.3646 59.665L87.145 68.2464C87.145 68.2464 96.2068 62.8907 97.8552 63.3024H97.8535Z" fill="#341713"/>
<path d="M118.175 66.0485L97.8394 63.3445L98.4098 59.5449L101.148 57.5352L117.899 62.8909L118.175 66.0485Z" fill="#46261D"/>
<path d="M118.86 71.404L118.175 66.0482L117.899 62.8906L124.078 68.2463L118.86 71.404Z" fill="#B36D4A"/>
<path d="M91.1256 73.0522L87.145 68.2466L95.6574 69.6194L91.1256 73.0522Z" fill="#B76C4D"/>
<path d="M103.208 64.9511L95.6571 69.619C95.6571 69.619 97.4416 69.2073 97.8532 63.3027L106.217 64.4331L103.207 64.9511H103.208Z" fill="#9A412C"/>
<path d="M118.861 71.4036L112.689 65.3071L118.175 66.0485L118.861 71.4036Z" fill="#61261E"/>
<path d="M91.1255 73.052L96.7545 70.9919L95.6573 69.6191L91.1255 73.052Z" fill="#75251A"/>
<path d="M112.27 72.5028C112.27 72.5028 113.643 71.4039 113.505 70.5806C114.055 70.9922 115.839 71.8156 115.839 71.8156L116.251 72.6389C116.251 72.6389 115.016 72.5011 114.603 72.5011H112.269L112.27 72.5028Z" fill="#7E2720"/>
<path d="M105.816 68.6579C105.816 68.6579 105.679 67.9707 106.64 67.9707C107.601 67.9707 107.327 68.6579 107.327 68.6579C107.327 68.6579 107.327 69.2073 106.64 69.2073C105.952 69.2073 105.816 68.6579 105.816 68.6579Z" fill="#CFCBCC"/>
<path d="M100.938 71.8955C100.938 71.8955 102.385 69.893 103.209 69.7552C103.209 69.3436 103.537 68.2812 103.537 68.2812C103.537 68.2812 100.05 70.8524 99.9119 71.128C100.186 71.4019 100.936 71.8955 100.936 71.8955H100.938Z" fill="#714C39"/>
<path d="M109.954 69.6191C109.954 69.6191 113.153 71.5413 112.986 71.8152C112.956 71.8152 113.505 71.1279 113.505 70.7162C113.368 70.5784 110.622 68.3823 110.073 68.3823C110.073 68.6562 109.952 69.6173 109.952 69.6173L109.954 69.6191Z" fill="#6F4E47"/>
<path d="M103.758 78.1317L96.7561 70.9922C96.7561 70.9922 98.2667 71.5417 99.3656 71.5417L99.9151 71.13C99.9151 71.13 102.418 73.0174 103.913 73.2406C103.606 73.4116 103.348 73.8756 103.348 73.8756C103.348 73.8756 102.661 77.4462 103.76 78.1317H103.758Z" fill="#A04E3B"/>
<path d="M108.736 73.2725C108.736 73.2725 108.975 73.4643 108.975 73.7382V76.0721L116.389 72.6393L115.342 72.5486L112.269 72.5015L108.735 73.2707L108.736 73.2725Z" fill="#C27152"/>
<path d="M103.758 78.1324L108.975 76.0723V73.7384L108.702 73.3268C108.702 73.3268 105.829 73.5396 104.862 73.4332C103.896 73.3268 103.896 73.189 103.896 73.189L103.346 73.8762C103.346 73.8762 103.062 75.3362 103.135 75.9799C103.209 76.6236 103.209 77.7207 103.758 78.1324Z" fill="#B55E3F"/>
<path d="M103.894 85.4112L118.86 71.4043L116.389 72.6412L103.894 78.133L96.7544 78.5447L103.894 85.4112Z" fill="#FDE8CD"/>
<path d="M91.1255 73.0522L96.7545 78.5434L103.894 78.1317L96.7545 70.9922L91.1255 73.0522Z" fill="#FCD6BB"/>
<path d="M118.86 71.4034C118.86 71.4034 118.311 71.6773 117.625 71.5412C116.94 71.4051 114.193 69.0695 113.369 68.52C112.546 67.9706 110.76 65.6366 109.799 65.4988C108.837 65.361 106.228 64.3999 106.228 64.3999L112.68 65.361L118.859 71.4017L118.86 71.4034Z" fill="#A05032"/>
<path d="M110.348 92.4137L103.894 85.4112L118.86 71.4043L110.348 92.4137Z" fill="#FBD6B5"/>
<path d="M124.078 95.2967L118.831 91.0405L118.921 90.1265L122.724 91.4522L124.078 91.59V95.2967Z" fill="#8D3720"/>
<path d="M113.413 93.3743H114.428C114.428 93.3743 116.261 91.0752 118.829 91.0404C118.829 90.217 113.411 88.8442 113.411 88.8442V93.3743H113.413Z" fill="#FFE3C4"/>
<path d="M117.402 86.5171L118.831 89.5296V91.0401C118.831 91.0401 117.782 90.1261 113.413 88.844C113.413 88.844 115.708 86.5188 117.402 86.5188V86.5171Z" fill="#FFE3C4"/>
<path d="M124.078 99.1413V96.5318L116.253 93.3745H115.427L121.744 97.219L124.078 99.1413Z" fill="#7F241B"/>
<path d="M118.191 93.6385C118.191 93.6385 119.375 92.8151 120.561 93.089C121.747 93.3629 123.101 94.7374 123.101 94.7374V95.8363L118.192 93.6402L118.191 93.6385Z" fill="#0E0306"/>
<path d="M118.921 90.1265L122.49 69.2078L124.078 68.2466V91.5902H122.979L118.921 90.1265Z" fill="#FFEFD0"/>
<path d="M124.078 56.5737V68.2464L117.899 62.8907L124.078 56.5737Z" fill="#E5BD97"/>
<path d="M124.078 103.398L120.509 101.614L121.744 97.2197L124.078 99.142V103.398Z" fill="#E3A384"/>
<path d="M115.427 93.3745L120.509 101.614L121.744 97.2195L115.427 93.3745Z" fill="#C48D69"/>
<path d="M109.525 106.556C109.525 106.556 115.016 93.6485 115.429 93.3746C115.843 93.1007 120.509 101.614 120.509 101.614L109.525 106.558V106.556Z" fill="#F3DBB5"/>
<path d="M106.641 104.91L109.525 106.557L115.428 93.3748L110.348 92.4136L106.641 104.91Z" fill="#FFE3C4"/>
<path d="M102.109 97.2193L110.348 92.4131L106.641 104.909L106.229 105.733L102.109 97.2193Z" fill="#DE926A"/>
<path d="M91.1255 73.0527L102.11 97.2198L110.348 92.4136L103.894 85.411L96.7545 78.5445L91.1255 73.0527Z" fill="#EA9E7C"/>
<path d="M106.641 114.796L107.191 112.188L106.23 105.733L102.11 97.2198L91.1256 73.0528L87.145 68.2466L88.5178 75.2491L93.3235 83.4886L98.1291 90.7668L101.56 97.2198L105.68 105.733L106.641 111.501V114.796Z" fill="#C57854"/>
<path d="M95.1079 96.5319L89.0673 79.5052L88.5178 75.2485L93.5258 83.795L98.1291 90.7662L101.695 97.4931L105.68 105.733L106.641 111.5V114.795L104.581 112.323L99.2263 102.575L95.1079 96.5319Z" fill="#B8604A"/>
<path d="M97.5794 108.343L95.1077 96.5327L99.226 102.438L104.374 111.947L107.145 115.199L103.536 113.299L97.5794 108.343Z" fill="#75352C"/>
<path d="M93.1854 104.498L92.7738 99.9658L90.4399 91.0407L89.2031 84.3121V79.5059L95.1077 96.5325L97.5794 108.343L93.1854 104.498Z" fill="#9D4E3A"/>
<path d="M113.793 123.557L109.249 109.716L107.191 112.188L106.641 114.796L113.793 123.557Z" fill="#92422C"/>
<path d="M116.8 115.345L124.078 113.423L123.94 122.897L116.8 115.345Z" fill="#F8DFBF"/>
<path d="M113.781 123.585L117.59 115.579L123.94 122.897L113.781 123.585Z" fill="#C98D62"/>
<path d="M109.235 109.691L111.323 105.321L118.161 116.15L113.793 123.557L109.235 109.691Z" fill="#D19B6A"/>
<path d="M112.682 65.3623L107.65 59.6147L117.899 62.8906L118.175 66.0479L112.682 65.3623Z" fill="#341713"/>
<path d="M87.3352 68.4365L81.8859 78.9194L89.2923 84.2385L87.3352 78.5967L86.2362 72.1437L87.3352 68.4365Z" fill="#7E2722"/>
<path d="M80.8286 83.0769L82.0636 78.958L86.0459 87.3335C86.0459 87.3335 88.5176 90.4911 90.4399 91.0407C88.106 90.4911 85.4965 87.883 85.4965 87.883L80.8286 83.0769Z" fill="#B14F35"/>
<path d="M89.2924 84.2387L90.4384 91.0407C90.4384 91.0407 87.9667 90.0794 86.0445 87.3335C84.8095 84.5876 82.0621 78.958 82.0621 78.958L89.2907 84.2387H89.2924Z" fill="#D5805D"/>
<path d="M81.5143 73.7384L85.0849 70.3052L85.842 70.9925L82.0637 78.9563L81.5143 73.7384Z" fill="#863322"/>
<path d="M80.8289 83.0765C80.8289 83.0765 77.6716 73.7921 77.6716 73.2426C77.6716 72.693 77.5338 70.856 77.5338 70.856L78.2211 68.6597L81.2423 81.7053L80.8306 83.0782L80.8289 83.0765Z" fill="#B86856"/>
<path d="M81.5143 73.7376H84.539L86.0635 70.9414L85.3047 70.1826L81.5143 73.7376Z" fill="#561112"/>
<path d="M82.046 78.7801L87.1447 78.4067L86.0458 71.9537L87.1447 68.2466L82.046 78.7801Z" fill="#450D12"/>
<path d="M102.933 38.8587L113.917 34.0775L118.175 33.917L124.078 34.6025L119.684 34.8781L102.933 38.8587Z" fill="#FFDEB2"/>
<path d="M124.078 47.2369V34.603L119.821 34.8787L102.933 38.8597L124.078 47.2369Z" fill="#FEEED2"/>
<path d="M89.2922 84.2387L87.2042 78.3492L85.875 71.8927L87.1449 68.2466L88.5334 75.3102L89.2032 79.8931L89.2922 84.2387Z" fill="#7D2724"/>
<path d="M109.061 75.9987L109.403 73.0874L108.705 73.3159C108.705 73.3159 109.239 75.3672 109.061 75.9987Z" fill="#080302"/>
<path d="M107.688 76.1398C107.688 76.1398 107.117 74.2053 107.401 73.3262C107.972 73.3262 108.043 73.3663 108.043 73.3663C108.043 73.3663 107.686 73.8547 107.686 74.5577V76.1415L107.688 76.1398Z" fill="#080302"/>
<path d="M105.689 77.2093C105.689 77.2093 104.972 74.6417 105.245 73.4102H106.194L105.687 77.2093H105.689Z" fill="#080302"/>
<path d="M102.503 77.2094C102.503 77.2094 102.91 73.0596 103.536 73.0317C104.106 73.2219 104.485 73.412 104.485 73.412C104.485 73.412 103.26 75.1005 103.117 75.6273C102.974 76.1541 102.502 77.2112 102.502 77.2112L102.503 77.2094Z" fill="#080302"/>
<path d="M101.977 72.4521C101.977 72.4521 101.263 73.6924 101.12 74.2192C100.977 74.7459 100.407 76.506 100.264 76.6822C100.121 76.8583 102.842 73.2284 103.158 73.0313C102.209 72.651 101.977 72.4521 101.977 72.4521Z" fill="#080302"/>
<path d="M98.1219 75.0986L100.498 71.5122L101.637 72.2727C101.637 72.2727 101.405 72.4611 101.262 72.6373C101.119 72.8135 99.8349 73.6926 99.5488 73.8688C99.2627 74.045 98.1219 75.1003 98.1219 75.1003V75.0986Z" fill="#080302"/>
<path d="M96.8364 73.3402L99.4058 70.2266L100.498 71.5121C100.498 71.5121 98.4063 72.1087 97.8359 72.4611C97.2655 72.8134 96.8364 73.3402 96.8364 73.3402Z" fill="#080302"/>
<path d="M93.0912 70.8459C93.0912 70.8459 96.4089 69.4712 96.8363 69.4712C96.2659 69.295 93.2674 68.2395 93.2674 68.2395L97.6927 68.4157C97.6927 68.4157 94.1238 65.7763 93.6947 65.6018C93.2656 65.4274 98.6922 67.3603 98.6922 67.3603C98.6922 67.3603 95.4077 64.194 95.1233 64.0178C95.6937 64.3702 100.121 66.481 100.121 66.481L96.5519 62.4355C96.5519 62.4355 100.977 65.2494 101.406 65.778C101.263 65.4256 99.6935 61.9086 99.6935 61.7324C99.9796 62.0848 103.112 65.3384 103.112 65.3384L105.547 65.9542L109.259 66.4828L114.363 70.565L115.693 71.6484L113.603 70.565L109.994 68.0965L108.401 67.1858L106.163 66.8474L103.022 67.9028L99.8383 69.8079L99.4074 70.176L99.5034 70.3591L96.7002 70.9453L94.9733 70.4725L93.0912 70.8494V70.8459Z" fill="#080302"/>
<path d="M106.366 66.7358C103.488 66.8963 99.6378 69.4814 99.6378 69.4814L96.7544 70.992C96.7544 70.992 97.9894 71.5415 98.5388 71.5415C99.0883 71.5415 100.117 70.9414 100.117 70.9414C100.117 70.9414 103.894 67.4214 106.366 67.4214C110.072 67.4214 113.505 70.7164 113.505 70.7164C113.505 70.7164 115.29 71.4037 115.839 71.8153C115.565 71.5415 113.367 69.7553 113.367 69.7553L110.758 67.833C110.758 67.833 108.836 66.598 106.364 66.7341L106.366 66.7358Z" fill="#080302"/>
<path d="M81.7394 80.0394C81.7394 80.0394 80.4172 72.367 80.4172 71.9535C80.4172 71.54 80.2794 69.0698 80.4172 68.5203C80.555 67.9707 80.8289 66.8717 81.5161 66.46C82.3395 67.4212 85.3048 70.1811 85.3048 70.1811L81.5161 73.7382L82.0656 78.9561L81.7412 80.0377L81.7394 80.0394Z" fill="#A84831"/>
<path d="M134.729 88.6069L137.795 92.4131L132.714 93.3742L134.729 88.6069Z" fill="#F3D6B3"/>
<path d="M134.729 88.7974L130.741 86.5173L129.222 91.0757L125.613 69.2324L129.222 71.3224L134.729 88.7974Z" fill="#FFE3C4"/>
<path d="M124.064 56.5737V34.603L128.32 34.8787L145.209 38.8597L124.064 56.5737Z" fill="#FBE0BD"/>
<path d="M140.047 47.1987L136.421 53.1406L146.993 57.5351L146.646 56.4343L144.465 52.8877L140.047 47.1987Z" fill="#ECC79A"/>
<path d="M166.921 81.7632C166.921 81.7632 169.099 72.7771 169.237 72.0915C169.375 71.4059 169.924 68.7961 169.924 68.7961L169.65 67.4232L166.629 66.4619L163.059 70.3069L166.629 73.7401L166.08 78.958L166.922 81.765L166.921 81.7632Z" fill="#6B211E"/>
<path d="M141.947 64.4834L144.985 64.8637L152.392 69.6123L151.443 70.9417L141.566 67.5224L131.69 72.6513L129.222 71.322L138.148 65.244L141.947 64.4834Z" fill="#B46846"/>
<path d="M141.502 73.4633C145.209 73.8749 148.275 71.1014 148.275 71.1014C148.275 71.1014 143.698 67.4209 141.776 67.4209C139.854 67.4209 136.97 68.6559 134.636 70.7159C134.636 71.1276 135.323 72.2265 135.871 72.5004C136.421 72.7743 139.854 73.4615 141.5 73.4615L141.502 73.4633Z" fill="#DCCFC0"/>
<path d="M141.776 72.7761C143.011 72.7342 145.146 71.8935 144.971 68.7641C144.896 68.8234 143.836 67.0093 141.502 67.1471C139.168 67.2849 138.109 68.3559 138.109 68.3559C138.109 68.3559 137.793 72.9139 141.776 72.7761Z" fill="#1D0000"/>
<path d="M141.502 70.9918C142.189 70.9918 143.013 70.1685 143.013 69.2074C143.013 68.2462 142.189 67.6968 141.502 67.6968C140.815 67.6968 139.991 68.2462 139.991 69.0696C139.991 69.8929 140.265 70.9918 141.502 70.9918Z" fill="#030000"/>
<path d="M150.288 63.3027C150.288 63.3027 150.426 68.7939 152.484 69.619C154.544 69.3451 160.997 68.2462 160.997 68.2462L156.74 65.8721L153.332 64.1906L150.974 63.3027H150.286H150.288Z" fill="#974A2D"/>
<path d="M129.281 71.4043L129.695 76.8978L132.451 84.6191L134.729 88.7973L137.795 92.4137L129.281 71.4043Z" fill="#E3B78C"/>
<path d="M124.064 95.2972V96.5322L133.713 93.3749C133.713 93.3749 132.021 91.041 129.312 91.041L124.065 95.2972H124.064Z" fill="#43090E"/>
<path d="M124.064 34.6025L129.968 33.917L140.815 34.3287L145.209 38.8587L128.458 34.8781L124.064 34.6025Z" fill="#F0AF7A"/>
<path d="M146.993 57.5353L146.496 40.2784L145.209 38.8618L139.857 47.0105C139.857 47.0105 146.855 55.3407 146.993 57.5371V57.5353Z" fill="#E9C194"/>
<path d="M130.242 62.8908L136.421 53.1406L146.993 57.5351L130.242 62.8908Z" fill="#F4DCBA"/>
<path d="M124.064 56.5739L130.242 62.8908L136.421 53.1406L124.064 56.5739Z" fill="#E6C39F"/>
<path d="M145.209 38.8599L124.064 56.5739L136.421 53.1406L145.209 38.8599Z" fill="#DDB28A"/>
<path d="M160.998 68.2464L148.404 42.2598L146.443 40.2344L146.993 57.5349L160.998 68.2464Z" fill="#C1855C"/>
<path d="M150.288 63.3024L149.777 59.665L160.996 68.2464C160.996 68.2464 151.935 62.8907 150.286 63.3024H150.288Z" fill="#341713"/>
<path d="M129.968 66.0485L150.302 63.3445L149.733 59.5449L146.993 57.5352L130.242 62.8909L129.968 66.0485Z" fill="#46261D"/>
<path d="M129.281 71.404L129.968 66.0482L130.242 62.8906L124.064 68.2463L129.281 71.404Z" fill="#B36D4A"/>
<path d="M157.016 73.0522L160.998 68.2466L152.486 69.6194L157.016 73.0522Z" fill="#B76C4D"/>
<path d="M144.935 64.9511L152.486 69.619C152.486 69.619 150.702 69.2073 150.29 63.3027L141.926 64.4331L144.937 64.9511H144.935Z" fill="#9A412C"/>
<path d="M129.281 71.4036L135.454 65.3071L129.969 66.0485L129.281 71.4036Z" fill="#61261E"/>
<path d="M157.016 73.052L151.387 70.9919L152.486 69.6191L157.016 73.052Z" fill="#75251A"/>
<path d="M135.873 72.5028C135.873 72.5028 134.5 71.4039 134.638 70.5806C134.088 70.9922 132.304 71.8156 132.304 71.8156L131.892 72.6389C131.892 72.6389 133.127 72.5011 133.541 72.5011C133.954 72.5011 135.875 72.5011 135.875 72.5011L135.873 72.5028Z" fill="#7E2720"/>
<path d="M142.325 68.6579C142.325 68.6579 142.463 67.9707 141.502 67.9707C140.541 67.9707 140.815 68.6579 140.815 68.6579C140.815 68.6579 140.815 69.2073 141.502 69.2073C142.189 69.2073 142.325 68.6579 142.325 68.6579Z" fill="#CFCBCC"/>
<path d="M147.204 71.8955C147.204 71.8955 145.756 69.893 144.933 69.7552C144.933 69.3436 144.605 68.2812 144.605 68.2812C144.605 68.2812 148.092 70.8524 148.23 71.128C147.956 71.4019 147.206 71.8955 147.206 71.8955H147.204Z" fill="#714C39"/>
<path d="M138.189 69.6191C138.189 69.6191 134.99 71.5413 135.158 71.8152C135.187 71.8152 134.638 71.1279 134.638 70.7162C134.776 70.5784 137.521 68.3823 138.071 68.3823C138.071 68.6562 138.191 69.6173 138.191 69.6173L138.189 69.6191Z" fill="#6F4E47"/>
<path d="M144.385 78.1317L151.387 70.9922C151.387 70.9922 149.876 71.5417 148.777 71.5417L148.228 71.13C148.228 71.13 145.725 73.0174 144.23 73.2406C144.537 73.4116 144.795 73.8756 144.795 73.8756C144.795 73.8756 145.482 77.4462 144.383 78.1317H144.385Z" fill="#A04E3B"/>
<path d="M139.407 73.2725C139.407 73.2725 139.168 73.4643 139.168 73.7382V76.0721L131.755 72.6393L132.801 72.5486L135.875 72.5015L139.409 73.2707L139.407 73.2725Z" fill="#C27152"/>
<path d="M144.385 78.1324L139.168 76.0723V73.7384L139.442 73.3268C139.442 73.3268 142.315 73.5396 143.281 73.4332C144.247 73.3268 144.247 73.189 144.247 73.189L144.797 73.8762C144.797 73.8762 145.081 75.3362 145.008 75.9799C144.935 76.6236 144.935 77.7207 144.385 78.1324Z" fill="#B55E3F"/>
<path d="M144.248 85.4112L129.281 71.4043L131.753 72.6412L144.248 78.133L151.387 78.5447L144.248 85.4112Z" fill="#FDE8CD"/>
<path d="M157.016 73.0522L151.387 78.5434L144.247 78.1317L151.387 70.9922L157.016 73.0522Z" fill="#FCD6BB"/>
<path d="M129.281 71.4034C129.281 71.4034 129.831 71.6773 130.516 71.5412C131.202 71.4051 133.949 69.0695 134.772 68.52C135.596 67.9706 137.382 65.6366 138.343 65.4988C139.304 65.361 141.914 64.3999 141.914 64.3999L135.461 65.361L129.283 71.4017L129.281 71.4034Z" fill="#A05032"/>
<path d="M137.795 92.4137L144.248 85.4112L129.281 71.4043L137.795 92.4137Z" fill="#FBD6B5"/>
<path d="M124.064 95.2967L129.312 91.0405L129.222 90.1265L125.419 91.4522L124.064 91.59V95.2967Z" fill="#8D3720"/>
<path d="M134.729 93.3743H133.713C133.713 93.3743 131.88 91.0752 129.312 91.0404C129.312 90.217 134.73 88.8442 134.73 88.8442V93.3743H134.729Z" fill="#FFE3C4"/>
<path d="M130.741 86.5171L129.312 89.5296V91.0401C129.312 91.0401 130.361 90.1261 134.73 88.844C134.73 88.844 132.435 86.5188 130.741 86.5188V86.5171Z" fill="#FFE3C4"/>
<path d="M124.064 99.1413V96.5318L131.891 93.3745H132.714L126.398 97.219L124.064 99.1413Z" fill="#7F241B"/>
<path d="M129.717 93.8284C129.717 93.8284 128.533 93.0051 127.347 93.2789C126.16 93.5528 124.807 94.9273 124.807 94.9273V96.0263L129.715 93.8301L129.717 93.8284Z" fill="#0E0306"/>
<path d="M129.222 90.1265L125.653 69.2078L124.064 68.2466V91.5902H125.163L129.222 90.1265Z" fill="#FFEFD0"/>
<path d="M124.064 56.5737V68.2464L130.242 62.8907L124.064 56.5737Z" fill="#E5BD97"/>
<path d="M124.064 103.398L127.634 101.614L126.398 97.2197L124.064 99.142V103.398Z" fill="#E3A384"/>
<path d="M132.714 93.3745L127.634 101.614L126.398 97.2195L132.714 93.3745Z" fill="#C48D69"/>
<path d="M138.619 106.556C138.619 106.556 133.127 93.6485 132.714 93.3746C132.301 93.1007 127.635 101.614 127.635 101.614L138.619 106.558V106.556Z" fill="#F3DBB5"/>
<path d="M141.502 104.909L138.619 106.556L132.714 93.3743L137.795 92.4131L141.502 104.909Z" fill="#FFE3C4"/>
<path d="M146.032 97.2198L137.795 92.4136L141.502 104.91L141.913 105.733L146.032 97.2198Z" fill="#DE926A"/>
<path d="M157.016 73.0527L146.032 97.2198L137.795 92.4136L144.247 85.411L151.387 78.5445L157.016 73.0527Z" fill="#EA9E7C"/>
<path d="M141.502 114.796L140.952 112.188L141.913 105.733L146.032 97.2198L157.016 73.0528L160.998 68.2466L159.625 75.2491L154.82 83.4886L150.014 90.7668L146.581 97.2198L142.463 105.733L141.502 111.501V114.796Z" fill="#C57854"/>
<path d="M153.035 96.5319L159.076 79.5052L159.625 75.2485L154.616 83.795L150.014 90.7662L146.449 97.4931L142.463 105.733L141.502 111.5V114.795L143.56 112.323L148.915 102.575L153.035 96.5319Z" fill="#B8604A"/>
<path d="M150.564 108.343L153.035 96.5327L148.915 102.438L143.768 111.947L141.502 114.796L144.797 113.012L150.564 108.343Z" fill="#75352C"/>
<path d="M154.958 104.498L155.369 99.9658L157.703 91.0407L158.938 84.3121V79.5059L153.035 96.5325L150.564 108.343L154.958 104.498Z" fill="#9D4E3A"/>
<path d="M136.963 105.702L138.892 109.716L140.952 112.188L141.913 105.733L140.762 102.663L138.672 103.043L136.963 105.702Z" fill="#B36753"/>
<path d="M134.35 123.557L138.892 109.716L140.953 112.188L141.502 114.796L134.35 123.557Z" fill="#92422C"/>
<path d="M131.341 115.345L124.064 113.423C123.996 116.61 123.926 119.799 123.858 122.986C126.352 120.439 128.847 117.892 131.341 115.345Z" fill="#F8DFBF"/>
<path d="M134.362 123.585L130.696 115.579C128.416 118.048 126.138 120.518 123.858 122.986C127.359 123.185 130.86 123.384 134.361 123.583L134.362 123.585Z" fill="#C98D62"/>
<path d="M138.908 109.691L136.963 105.701L130.127 115.959L134.35 123.556L138.908 109.691Z" fill="#D19B6A"/>
<path d="M135.459 65.3623L140.492 59.6147L130.242 62.8906L129.968 66.0479L135.459 65.3623Z" fill="#341713"/>
<path d="M160.808 68.4365L166.212 79.1096L158.849 84.2385L160.808 78.5967L161.907 72.1437L160.808 68.4365Z" fill="#7E2722"/>
<path d="M167.315 83.0769L166.08 78.958L161.845 87.0893C161.845 87.0893 159.626 90.4929 157.703 91.0424C160.037 90.4929 162.647 87.8848 162.647 87.8848L167.315 83.0786V83.0769Z" fill="#B14F35"/>
<path d="M158.85 84.2387L157.703 91.0407C157.703 91.0407 160.175 90.0794 162.097 87.3335C163.332 84.5876 166.08 78.958 166.08 78.958L158.851 84.2387H158.85Z" fill="#D5805D"/>
<path d="M166.628 73.7384L163.059 70.3052L162.302 70.9925L166.078 78.9563L166.628 73.7384Z" fill="#863322"/>
<path d="M167.315 83.0765C167.315 83.0765 170.472 73.6019 170.472 73.0524C170.472 72.5029 170.61 70.856 170.61 70.856L169.923 68.6597L166.901 81.7053L167.313 83.0782L167.315 83.0765Z" fill="#B86856"/>
<path d="M166.627 73.738H163.603L162.233 70.9924L163.058 70.3052L166.627 73.738Z" fill="#561112"/>
<path d="M166.097 78.7801L160.998 78.4067L162.097 71.9537L160.998 68.2466L166.097 78.7801Z" fill="#450D12"/>
<path d="M145.209 38.8587L134.224 34.0775L129.968 33.917L124.064 34.6025L128.458 34.8781L145.209 38.8587Z" fill="#FFDEB2"/>
<path d="M124.064 47.2369V34.603L128.32 34.8787L145.209 38.8597L124.064 47.2369Z" fill="#FEEED2"/>
<path d="M158.849 84.2387L160.939 78.3492L162.268 71.8927L160.998 68.2466L159.61 75.3102L158.938 79.8931L158.849 84.2387Z" fill="#7D2724"/>
<path d="M139.082 75.9987L138.74 73.0874L139.438 73.3159C139.438 73.3159 138.904 75.3672 139.082 75.9987Z" fill="#080302"/>
<path d="M140.455 76.1398C140.455 76.1398 141.026 74.2053 140.741 73.3262C140.171 73.3262 140.099 73.3663 140.099 73.3663C140.099 73.3663 140.457 73.8547 140.457 74.5577V76.1415L140.455 76.1398Z" fill="#080302"/>
<path d="M142.452 77.2093C142.452 77.2093 143.169 74.6417 142.895 73.4102H141.947L142.454 77.2093H142.452Z" fill="#080302"/>
<path d="M145.638 77.2094C145.638 77.2094 145.231 73.0596 144.605 73.0317C144.035 73.2219 143.656 73.412 143.656 73.412C143.656 73.412 144.881 75.1005 145.024 75.6273C145.167 76.1541 145.64 77.2112 145.64 77.2112L145.638 77.2094Z" fill="#080302"/>
<path d="M146.166 72.4521C146.166 72.4521 146.88 73.6924 147.023 74.2192C147.166 74.7477 147.736 76.506 147.879 76.6822C148.022 76.8583 145.301 73.2284 144.985 73.0313C145.934 72.651 146.166 72.4521 146.166 72.4521Z" fill="#080302"/>
<path d="M150.02 75.0986L147.644 71.5122L146.505 72.2727C146.505 72.2727 146.737 72.4611 146.88 72.6373C147.023 72.8135 148.307 73.6926 148.593 73.8688C148.879 74.045 150.02 75.1003 150.02 75.1003V75.0986Z" fill="#080302"/>
<path d="M151.305 73.3402L148.736 70.2266L147.644 71.5121C147.644 71.5121 149.735 72.1087 150.305 72.4611C150.876 72.8134 151.305 73.3402 151.305 73.3402Z" fill="#080302"/>
<path d="M155.05 70.8459C155.05 70.8459 151.732 69.4712 151.305 69.4712C151.875 69.295 154.874 68.2395 154.874 68.2395L150.449 68.4157C150.449 68.4157 154.017 65.7763 154.447 65.6018C154.876 65.4274 149.449 67.3603 149.449 67.3603C149.449 67.3603 152.734 64.194 153.018 64.0178C152.448 64.3702 148.02 66.481 148.02 66.481L151.589 62.4355C151.589 62.4355 147.164 65.2494 146.735 65.778C146.878 65.4256 148.448 61.9086 148.448 61.7324C148.162 62.0848 145.029 65.3384 145.029 65.3384L142.594 65.9542L138.882 66.4828L133.778 70.565L132.449 71.6484L134.538 70.565L138.147 68.0965L139.74 67.1858L141.978 66.8474L145.12 67.9028L148.303 69.8079L148.734 70.176L148.638 70.3591L151.441 70.9453L153.168 70.4725L155.05 70.8494V70.8459Z" fill="#080302"/>
<path d="M141.776 66.7358C144.654 66.8963 148.504 69.4814 148.504 69.4814L151.387 70.992C151.387 70.992 150.152 71.5415 149.603 71.5415C149.053 71.5415 148.024 70.9414 148.024 70.9414C148.024 70.9414 144.248 67.4214 141.776 67.4214C138.069 67.4214 134.636 70.7164 134.636 70.7164C134.636 70.7164 132.852 71.4037 132.302 71.8153C132.576 71.5415 134.774 69.7553 134.774 69.7553L137.384 67.833C137.384 67.833 139.306 66.598 141.778 66.7341L141.776 66.7358Z" fill="#080302"/>
<path d="M166.402 80.0394C166.402 80.0394 167.725 72.367 167.725 71.9535C167.725 71.54 167.862 69.0698 167.725 68.5203C167.587 67.9707 167.313 66.8717 166.626 66.46C165.802 67.4212 163.055 70.3049 163.055 70.3049L166.626 73.7382L166.076 78.9561L166.401 80.0377L166.402 80.0394Z" fill="#A84831"/>
<path d="M111.323 105.511L109.295 109.704L107.146 112.35L106.197 105.702L107.146 102.663L109.616 103.043L111.323 105.511Z" fill="#B36753"/>
<path d="M118.831 91.0408L118.587 94.3603C118.445 94.594 118.304 94.8295 118.161 95.0632C117.268 94.4998 116.373 93.9364 115.48 93.373L114.561 93.2212L115.693 91.4542L118.831 91.0391V91.0408Z" fill="#FDE8CD"/>
<path d="M129.374 91.0408L129.618 94.3603C129.759 94.594 129.9 94.8295 130.043 95.0632C130.937 94.4998 131.831 93.9364 132.725 93.373L133.644 93.2212L132.512 91.4542L129.374 91.0391V91.0408Z" fill="#FDE8CD"/>
<path d="M124.156 113.489L118.374 113.485L118.096 116.149L124.156 116.519V113.489Z" fill="#AB664F"/>
<path d="M109.615 103.043L113.366 107.792L118.498 112.556L118.096 116.15L109.615 103.043Z" fill="#AB664F"/>
<path d="M124.156 113.397L118.098 113.489V116.148C119.846 113.774 123.413 113.444 124.156 113.4V113.395V113.397Z" fill="#85422B"/>
<path d="M124.156 103.522L121.034 101.523C121.034 101.523 111.41 103.803 109.615 103.043C109.615 103.043 113.041 106.842 114.508 107.03C115.864 107.206 123.063 107.543 124.156 107.594V103.522Z" fill="#8A3F30"/>
<path d="M109.615 103.043L120.962 105.686L121.114 107.507L113.774 106.936L109.615 103.043Z" fill="#632319"/>
<path d="M124.156 107.507H120.463L114.51 105.703L109.617 103.044L113.205 107.603L118.18 113.397C118.18 113.397 123.186 113.943 124.158 113.787V107.509L124.156 107.507Z" fill="#965142"/>
<path d="M124.156 107.507H120.462L119.321 111.305L124.156 111.95V107.507Z" fill="#FCD9B6"/>
<path d="M112.949 108.075L114.416 105.701L116.833 106.462L115.366 109.595L112.949 108.075Z" fill="#E38B67"/>
<path d="M115.405 109.595L116.792 106.462L120.462 107.507L119.321 111.305L115.405 109.595Z" fill="#E3A080"/>
<path d="M124.156 111.869L119.321 111.305L118.016 113.395C119.841 113.925 123.647 113.798 124.156 113.777V111.869Z" fill="#74231F"/>
<path d="M113.121 108.076L115.405 109.595L119.237 111.268L118.014 113.394L113.121 108.076Z" fill="#631C19"/>
<path d="M124.156 110.541L119.652 110.201L119.157 111.305L124.156 111.868V110.541Z" fill="#BE835C"/>
<path d="M115.66 108.952L119.647 110.166L119.321 111.305L115.405 109.595L115.66 108.952Z" fill="#9B6847"/>
<path d="M113.209 107.718L115.712 109.027L115.366 109.595L112.949 108.076L113.209 107.718Z" fill="#9C593A"/>
<path d="M121.114 107.507L121.032 101.523L124.132 103.423V107.601L121.114 107.507Z" fill="#974939"/>
<path d="M124.156 104.834L120.821 105.686L121.114 107.507H124.156V104.834Z" fill="#67231D"/>
<path d="M124.132 113.489L129.914 113.485L130.19 116.149L124.132 116.519V113.489Z" fill="#AB664F"/>
<path d="M138.672 103.043L134.92 107.792L129.79 112.556L130.19 116.15L138.672 103.043Z" fill="#AB664F"/>
<path d="M124.132 113.397L130.19 113.489V116.148C128.442 113.774 124.875 113.444 124.132 113.4V113.395V113.397Z" fill="#85422B"/>
<path d="M124.132 103.522L127.254 101.523C127.254 101.523 136.878 103.803 138.673 103.043C138.673 103.043 135.247 106.842 133.78 107.03C132.425 107.206 125.226 107.543 124.132 107.594V103.522Z" fill="#8A3F30"/>
<path d="M138.673 103.043L127.324 105.686L127.172 107.507L134.514 106.936L138.673 103.043Z" fill="#632319"/>
<path d="M124.132 107.507H127.825L133.778 105.703L138.671 103.044L135.083 107.603L130.108 113.397C130.108 113.397 125.102 113.943 124.13 113.787V107.509L124.132 107.507Z" fill="#965142"/>
<path d="M124.132 107.507H127.826L128.967 111.304L124.132 111.95V107.507Z" fill="#FCD9B6"/>
<path d="M135.167 108.075L133.78 105.701L131.496 106.462L132.881 109.595L135.167 108.075Z" fill="#E38B67"/>
<path d="M132.882 109.595L131.496 106.462L127.826 107.507L128.967 111.305L132.882 109.595Z" fill="#E3A080"/>
<path d="M124.132 111.869L128.967 111.305L130.272 113.395C128.447 113.925 124.641 113.798 124.132 113.777V111.869Z" fill="#74231F"/>
<path d="M135.166 108.076L132.881 109.595L129.051 111.268L130.272 113.394L135.166 108.076Z" fill="#631C19"/>
<path d="M124.132 110.541L128.636 110.201L129.131 111.305L124.132 111.868V110.541Z" fill="#BE835C"/>
<path d="M132.629 108.952L128.641 110.166L128.967 111.305L132.881 109.595L132.629 108.952Z" fill="#9B6847"/>
<path d="M134.92 107.718L132.555 109.027L132.881 109.595L135.166 108.076L134.92 107.718Z" fill="#9C593A"/>
<path d="M127.172 107.507L127.254 101.523L124.156 103.423V107.601L127.172 107.507Z" fill="#974939"/>
<path d="M124.132 104.834L127.467 105.686L127.172 107.507H124.132V104.834Z" fill="#67231D"/>
<path d="M130.658 107.221L128.519 107.833L129.107 109.387C129.107 109.387 130.159 108.714 130.658 107.221Z" fill="#FCD9B6"/>
<path d="M117.591 107.221L119.729 107.833L119.141 109.387C119.141 109.387 118.09 108.714 117.591 107.221Z" fill="#FCD9B6"/>
<path d="M113.984 123.557C117.34 123.304 120.694 123.051 124.05 122.796C127.469 123.049 130.888 123.302 134.307 123.557C130.951 123.996 127.596 124.436 124.24 124.876L113.984 123.557Z" fill="#C98D62"/>
<path d="M75.7128 170.633L75.7928 170.093H76.1328L75.9728 170.633H75.7128ZM76.3928 181.113C76.3928 181.233 76.3328 181.333 76.1928 181.333H70.3128C70.1728 181.333 70.0728 181.233 70.0728 181.113C70.0728 180.973 70.1728 180.973 70.2728 180.933L71.2128 180.633C71.9928 180.373 72.6928 179.673 73.1928 177.993L80.1928 154.553C80.4728 153.693 80.2128 153.233 79.3128 152.973C79.0728 152.813 78.9328 152.773 78.9328 152.673C78.9328 152.553 78.9728 152.493 79.1928 152.493H85.9328C86.0928 152.493 86.1928 152.553 86.1928 152.673C86.1928 152.773 86.0728 152.873 85.8328 152.973C85.0128 153.053 84.9328 153.213 85.1728 153.893L93.4528 179.733C93.7328 180.493 94.1728 180.813 94.9128 180.873C95.0728 180.933 95.1528 180.973 95.1528 181.113C95.1528 181.233 95.0528 181.333 94.8928 181.333H87.1528C87.0128 181.333 86.9128 181.233 86.9128 181.113C86.9128 180.973 86.9928 180.953 87.1328 180.933L88.2528 180.773C88.8528 180.653 88.9928 180.273 88.7728 179.633L85.7528 170.093H86.7128L86.7328 170.633H75.9728L73.7728 177.993C73.2928 179.553 74.0328 180.273 75.4128 180.713L76.1728 180.933C76.3528 180.973 76.3928 181.013 76.3928 181.113ZM76.1328 170.093H85.7528L80.8128 154.473L76.1328 170.093ZM98.6466 164.073L96.7866 163.733C96.6666 163.673 96.5666 163.613 96.5666 163.533C96.5666 163.413 96.6866 163.333 96.7866 163.333H98.6466C98.9066 163.333 99.0266 163.293 99.1466 163.073L101.987 159.353C102.147 159.213 102.307 159.093 102.467 159.093C102.627 159.093 102.707 159.173 102.707 159.393V163.853H101.447L101.507 163.333H107.407C107.607 163.333 107.687 163.393 107.687 163.533C107.687 163.713 107.467 163.853 107.067 163.853H102.707V177.033C102.707 179.133 103.567 180.153 105.007 180.153C106.147 180.153 106.987 179.413 107.487 178.133C107.567 177.993 107.707 178.053 107.687 178.253C107.047 180.573 105.687 181.673 103.447 181.673C100.627 181.673 98.9866 180.333 98.9866 177.533V164.513C98.9866 164.253 98.9066 164.153 98.6466 164.073ZM119.199 162.893C124.439 162.893 128.319 166.833 128.319 172.393C128.319 177.873 124.399 181.773 118.999 181.773C113.579 181.773 109.979 177.833 109.979 172.393C109.979 166.833 113.739 162.893 119.199 162.893ZM120.179 181.273C123.199 180.993 124.879 177.653 124.239 171.833C123.599 165.933 121.339 163.113 118.099 163.373C114.899 163.673 113.439 167.113 114.019 172.833C114.659 178.593 117.079 181.513 120.179 181.273ZM137.61 163.333C135.59 163.333 134.19 164.473 134.19 166.333C134.19 168.153 135.25 169.313 138.69 170.393C143.37 171.833 144.91 173.693 144.91 176.553C144.91 180.213 142.03 181.773 138.69 181.773C136.17 181.773 135.11 180.773 134.83 180.773C134.49 180.773 133.07 181.793 132.91 181.773C132.79 181.773 132.69 181.713 132.63 181.513L131.41 176.033C131.33 175.713 131.35 175.573 131.53 175.533C131.63 175.453 131.77 175.533 131.83 175.673C133.81 179.833 135.77 181.313 138.55 181.313C140.85 181.313 142.25 180.073 142.25 178.153C142.25 176.373 141.27 175.133 137.41 174.093C133.15 172.893 131.49 170.933 131.49 168.033C131.49 164.893 133.97 162.853 137.37 162.853C139.69 162.853 140.99 164.213 141.33 164.213C141.57 164.213 142.63 162.953 142.93 162.953C143.11 162.953 143.25 163.013 143.27 163.333L144.25 168.133C144.33 168.453 144.29 168.573 144.15 168.673C144.03 168.733 143.93 168.613 143.85 168.513C141.99 164.813 139.75 163.333 137.61 163.333ZM154.368 163.333C152.348 163.333 150.948 164.473 150.948 166.333C150.948 168.153 152.008 169.313 155.448 170.393C160.128 171.833 161.668 173.693 161.668 176.553C161.668 180.213 158.788 181.773 155.448 181.773C152.928 181.773 151.868 180.773 151.588 180.773C151.248 180.773 149.828 181.793 149.668 181.773C149.548 181.773 149.448 181.713 149.388 181.513L148.168 176.033C148.088 175.713 148.108 175.573 148.288 175.533C148.388 175.453 148.528 175.533 148.588 175.673C150.568 179.833 152.528 181.313 155.308 181.313C157.608 181.313 159.008 180.073 159.008 178.153C159.008 176.373 158.028 175.133 154.168 174.093C149.908 172.893 148.248 170.933 148.248 168.033C148.248 164.893 150.728 162.853 154.128 162.853C156.448 162.853 157.748 164.213 158.088 164.213C158.328 164.213 159.388 162.953 159.688 162.953C159.868 162.953 160.008 163.013 160.028 163.333L161.008 168.133C161.088 168.453 161.048 168.573 160.908 168.673C160.788 168.733 160.688 168.613 160.608 168.513C158.748 164.813 156.508 163.333 154.368 163.333ZM175.546 179.373V179.213L175.366 179.333V179.173C175.486 179.053 175.606 178.913 175.726 178.773L175.946 178.993C175.826 179.173 175.686 179.333 175.546 179.493V179.373ZM164.846 177.353C164.846 174.253 167.546 172.513 172.026 172.513C173.466 172.513 174.506 172.733 175.366 173.053C175.666 173.173 175.946 173.293 176.206 173.433L176.066 173.673C175.826 173.573 175.606 173.473 175.366 173.393V166.993C175.366 164.553 174.406 163.253 172.506 163.253C170.306 163.253 169.466 164.553 169.466 165.533V166.973C169.466 168.173 168.586 168.953 167.386 168.953C166.466 168.953 165.806 168.393 165.806 167.253C165.806 165.133 168.286 162.873 172.966 162.873C177.186 162.873 179.206 164.813 179.206 168.073V178.953C179.206 180.093 179.606 180.513 180.146 180.513C180.666 180.513 181.126 180.233 181.166 179.633C181.186 179.533 181.246 179.513 181.306 179.513C181.406 179.513 181.426 179.553 181.426 179.653C181.426 180.373 180.566 181.693 178.426 181.693C176.566 181.693 175.606 180.813 175.546 179.493C174.266 180.933 172.206 181.713 170.026 181.713C167.366 181.713 164.846 180.293 164.846 177.353ZM168.746 176.753C168.746 179.153 170.106 180.493 172.046 180.493C173.246 180.493 174.486 180.053 175.366 179.173V173.393C174.506 173.073 173.606 172.853 172.486 172.853C170.386 172.853 168.746 174.133 168.746 176.753Z" fill="white"/>
</svg>
