<?xml version="1.0" encoding="UTF-8"?>
<svg xmlns="http://www.w3.org/2000/svg" version="1.1" viewBox="0 0 202 213">
  <defs>
    <style>
      .cls-1 {
        fill: #b8531b;
      }

      .cls-2 {
        fill: #933a14;
      }

      .cls-3 {
        fill: #ba7047;
      }

      .cls-4 {
        fill: #fee8c9;
      }

      .cls-5 {
        fill: #200d21;
      }

      .cls-6 {
        fill: #281120;
      }

      .cls-7 {
        fill: #c89d7e;
      }

      .cls-8 {
        fill: #d1d5db;
      }

      .cls-9 {
        fill: #d4b594;
      }

      .cls-10 {
        fill: #e2813b;
      }

      .cls-11 {
        fill: #f0a258;
      }

      .cls-12 {
        fill: #d9813c;
      }

      .cls-13 {
        fill: #e79246;
      }

      .cls-14 {
        fill: #912b2b;
      }

      .cls-15 {
        fill: #1b0009;
      }

      .cls-16 {
        fill: #b13932;
      }

      .cls-17 {
        fill: #a93d0d;
      }

      .cls-18 {
        fill: #f1ac60;
      }

      .cls-19 {
        fill: #d0a981;
      }

      .cls-20 {
        fill: #680f17;
      }

      .cls-21 {
        fill: #fff;
      }

      .cls-22 {
        fill: #dd7136;
      }

      .cls-23 {
        fill: #af8669;
      }

      .cls-24 {
        fill: #6d1827;
      }

      .cls-25 {
        fill: #f8c098;
      }

      .cls-26 {
        fill: #f9b666;
      }

      .cls-27 {
        fill: #885c4d;
      }

      .cls-28 {
        fill: #d2b895;
      }

      .cls-29 {
        fill: #c96c32;
      }

      .cls-30 {
        fill: none;
      }

      .cls-31 {
        fill: #f3885c;
      }

      .cls-32 {
        fill: #fcc18b;
      }

      .cls-33 {
        fill: #87250c;
      }

      .cls-34 {
        fill: #ae846e;
      }

      .cls-35 {
        fill: #cd6b2b;
      }

      .cls-36 {
        fill: #e88a42;
      }

      .cls-37 {
        fill: #fbb56c;
      }

      .cls-38 {
        fill: #d87c3e;
      }

      .cls-39 {
        fill: #ffe5bb;
      }

      .cls-40 {
        fill: #cd6b27;
      }

      .cls-41 {
        fill: #b0846c;
      }

      .cls-42 {
        fill: #b07c5e;
      }

      .cls-43 {
        fill: #5c1514;
      }

      .cls-44 {
        fill: #f4eed9;
      }

      .cls-45 {
        fill: #752a15;
      }

      .cls-46 {
        fill: #f7bd81;
      }

      .cls-47 {
        fill: #ebdfbc;
      }

      .cls-48 {
        fill: #c8a282;
      }

      .cls-49 {
        fill: #100a14;
      }

      .cls-50 {
        fill: #9c6953;
      }

      .cls-51 {
        fill: #992727;
      }

      .cls-52 {
        fill: #120c24;
      }

      .cls-53 {
        fill: #f4ecd8;
      }

      .cls-54 {
        fill: #e6883b;
      }

      .cls-55 {
        fill: #c15e31;
      }

      .cls-56 {
        fill: #f1a74c;
      }

      .cls-57 {
        fill: #180508;
      }

      .cls-58 {
        fill: #b18464;
      }

      .cls-59 {
        fill: #dc7531;
      }

      .cls-60 {
        fill: #580c03;
      }

      .cls-61 {
        fill: #652015;
      }

      .cls-62 {
        fill: #3b2b30;
      }

      .cls-63 {
        fill: #282f3c;
      }

      .cls-64 {
        fill: #d6b291;
      }

      .cls-65 {
        fill: #aa8168;
      }

      .cls-66 {
        fill: #fceeca;
      }

      .cls-67 {
        fill: #c8a483;
      }

      .cls-68 {
        fill: #e37f31;
      }

      .cls-69 {
        fill: #e98f3d;
      }

      .cls-70 {
        fill: #591e28;
      }

      .cls-71 {
        fill: #6a262f;
      }

      .cls-72 {
        fill: #e69145;
      }

      .cls-73 {
        fill: #f2ecd5;
      }

      .cls-74 {
        fill: #de8c45;
      }

      .cls-75 {
        fill: #cc662a;
      }

      .cls-76 {
        fill: #320b10;
      }

      .cls-77 {
        fill: #da6720;
      }

      .cls-78 {
        fill: #919191;
      }

      .cls-79 {
        fill: #e5d2b2;
      }

      .cls-80 {
        fill: #661c1a;
      }

      .cls-81 {
        fill: #d37031;
      }

      .cls-82 {
        fill: #d8823d;
      }

      .cls-83 {
        fill: #ce6c2a;
      }

      .cls-84 {
        fill: #3a0c0c;
      }

      .cls-85 {
        fill: #ae471c;
      }

      .cls-86 {
        fill: #93231d;
      }

      .cls-87 {
        fill: #4b4f4e;
      }

      .cls-88 {
        fill: #a2745d;
      }

      .cls-89 {
        fill: #c46341;
      }

      .cls-90 {
        fill: #6e2309;
      }

      .cls-91 {
        fill: #f7fafd;
      }

      .cls-92 {
        fill: #9f7059;
      }

      .cls-93 {
        fill: #110808;
      }

      .cls-94 {
        fill: #6e463f;
      }

      .cls-95 {
        fill: #591927;
      }

      .cls-96 {
        fill: #f7b867;
      }

      .cls-97 {
        fill: #a36f55;
      }

      .cls-98 {
        fill: #df9d53;
      }

      .cls-99 {
        fill: #8b5b4b;
      }

      .cls-100 {
        fill: #a23228;
      }

      .cls-101 {
        fill: #e5dabd;
      }

      .cls-102 {
        fill: #f4ae63;
      }

      .cls-103 {
        fill: #353a47;
      }

      .cls-104 {
        fill: #f4ab5d;
      }

      .cls-105 {
        fill: #8e5f4d;
      }

      .cls-106 {
        fill: #e9c289;
      }

      .cls-107 {
        fill: #9e593b;
      }

      .cls-108 {
        fill: #be875e;
      }

      .cls-109 {
        fill: #a3491a;
      }

      .cls-110 {
        fill: #a74e24;
      }

      .cls-111 {
        fill: #16151c;
      }

      .cls-112 {
        fill: #140e27;
      }

      .cls-113 {
        fill: #e9a25c;
      }

      .cls-114 {
        fill: #b65323;
      }

      .cls-115 {
        fill: #572c84;
      }

      .cls-116 {
        fill: #c6c2c2;
      }

      .cls-117 {
        fill: #74242a;
      }

      .cls-118 {
        fill: #5c1e2a;
      }

      .cls-119 {
        fill: #39070c;
      }

      .cls-120 {
        fill: #9a392f;
      }

      .cls-121 {
        fill: #e5d3b5;
      }

      .cls-122 {
        fill: #6f2b15;
      }

      .cls-123 {
        fill: #101529;
      }

      .cls-124 {
        fill: #b17f60;
      }
    </style>
  </defs>
  <!-- Generator: Adobe Illustrator 28.7.1, SVG Export Plug-In . SVG Version: 1.2.0 Build 142)  -->
  <g>
    <g id="Layer_1">
      <g>
        <g id="Layer_1-2" data-name="Layer_1">
          <g>
            <g>
              <circle class="cls-21" cx="99.9" cy="105.9" r="93.5"/>
              <circle class="cls-115" cx="99.9" cy="105.9" r="90.6"/>
              <circle class="cls-91" cx="99.9" cy="105.9" r="86.4"/>
            </g>
            <path class="cls-8" d="M171.5,106.8c-.3,11.4-2.3,23.1-8.2,33.7-2.8,5.1-6.3,9.5-11.1,12.8-6.4,4.5-13.4,5.3-20.7,3.5-1.2-.3-1.7,0-2.2,1-3.4,6-7.6,11.2-13.5,14.9-5.5,3.5-11.6,5-18.1,4.5-8.4-.7-15.3-4.5-20.9-10.8-2.4-2.8-4.6-5.7-6.3-8.9-.3-.6-.7-.8-1.4-.6-5.6,1-11.2,1.4-16.6-.9-5.6-2.4-9.9-6.4-13.3-11.4-4.7-6.8-7.5-14.4-9.1-22.5-1.2-5.9-1.9-11.9-1.6-17.9.5-12.1,2.9-23.7,9.3-34.2,2.8-4.5,6.2-8.4,10.7-11.4,6.2-4.1,12.9-4.6,19.9-3,.9.2,1.3,0,1.7-.8,3.3-6,7.4-11.4,13.2-15.3,5.8-3.9,12.2-5.7,19.1-5.1,8.4.7,15.3,4.5,20.9,10.8,2.7,3,5,6.4,6.9,9.9.3.5.5.8,1.2.7,11.9-3,21.2,1.2,28.4,10.6,5.5,7.1,8.5,15.3,10.2,24,1.1,5.2,1.6,10.5,1.7,16.4h-.2ZM67.6,152.2c-1-2.3-2-4.5-2.8-6.8-3.4-9.6-5.2-19.6-5.9-29.7-.7-9.5-.4-19,.9-28.4,1-6.8,2.5-13.5,4.7-20,.2-.7.2-1-.6-1.3-1.6-.5-3.3-.9-5-.7-4.4.5-7.2,3.2-8.9,7-4.1,8.8-6.2,18.1-6.9,27.7-.5,7.1-.2,14.2.9,21.3,1.3,8.1,3.7,15.8,7.9,22.9,1.2,2,2.6,3.9,4.2,5.6,3.2,3.2,7.1,3.6,11.4,2.5h.1ZM141.3,105.8c0,6-.4,12.1-1.2,18-1,7.2-2.6,14.3-5,21.2-.2.5-.2.9.4,1.1,2,.7,4,1,6.1.6,3.9-.7,6.6-3.2,8.3-6.7,4.2-8.6,6-17.7,6.8-27.1.5-6.1.3-12.3-.4-18.4-.8-6.8-2.4-13.5-5.2-19.8-1.8-4.1-4-7.9-7.4-11-2.8-2.5-6-3.7-9.8-3.1-.8,0-1.3.2-.8,1.2.5.9.8,1.9,1.1,2.8,5,13.2,6.8,27,7,41.1h0ZM101.8,91.2c1.4-3.1,2.8-6.1,4.2-9.1,3.5-7.2,7.5-14.2,13.5-19.8.4-.4.4-.7.2-1.2-2-4.6-4.4-9.1-7.6-13-2.4-2.9-5-5.5-8.4-7.2-2.5-1.3-4.9-1.3-7.4,0-2,1-3.8,2.3-5.4,3.9-4.6,4.5-7.7,9.9-10.3,15.7-.2.5,0,.8.3,1.1,6.1,4.5,10.7,10.3,14.6,16.8,2.5,4.1,4.5,8.3,6.4,12.9h0ZM99.1,120.7c-.3,0-.3.2-.3.4-1.6,4.5-3.4,9-5.6,13.3-3.1,6.3-6.7,12.2-12.2,16.8-.4.4-.3.7,0,1.1,1.9,4.1,4.1,7.9,6.9,11.4,2.6,3.2,5.4,6,9.2,7.6,1.4.6,2.8.9,4.4.5,3.1-.9,5.5-2.7,7.8-4.9,4.4-4.3,7.4-9.5,10-15,.3-.6,0-.9-.4-1.2-2.4-1.8-4.5-3.9-6.4-6.2-5.1-6-8.7-12.8-11.7-20-.5-1.3-1-2.6-1.5-3.8h-.1ZM75.3,75.2c-5.2,23.4-4.8,46.3,2.3,69.2.3-.3.4-.4.5-.5.8-1.2,1.6-2.4,2.3-3.6,5.4-9.3,9.1-19.4,12.7-29.5,0-.4,0-.7,0-1.1-3.8-10.1-8-19.9-13.8-29-1.1-1.8-2.4-3.6-4-5.5ZM122.6,68.8c-.3.4-.5.6-.6.8-.9,1.4-1.8,2.8-2.7,4.3-4.7,8.6-8.1,17.8-11.7,26.9-.2.5,0,.9,0,1.4,1.2,3.9,2.6,7.9,4.1,11.7,3.1,7.7,6.5,15.2,11.4,21.9.2.3.4.8,1,1,5.2-22.7,4.9-45.3-1.8-68h.3Z"/>
          </g>
        </g>
        <g>
          <g>
            <polygon class="cls-17" points="95.5 121.9 92.5 120.5 89.7 122.1 91.6 122.5 95.5 121.9"/>
            <polygon class="cls-74" points="73.8 140.6 76.9 126.5 71.3 130.2 73.8 140.6"/>
            <polygon class="cls-26" points="66 107.6 75.8 115.3 75.3 103 66 107.6"/>
            <polygon class="cls-1" points="75.3 103.3 73.7 98.3 82.3 100.1 75.3 103.3"/>
            <path class="cls-11" d="M92.1,116.7s3.1,3.1,3.4,5.2c-3.8-1.3-5.8.1-5.8.1,0,0-1.5-3,2.3-5.4Z"/>
            <polygon class="cls-54" points="76.9 126.5 66 107.6 75.6 114.8 76.9 126.5"/>
            <polygon class="cls-106" points="83 137.7 89.7 122.1 95.6 125.1 83 137.7"/>
            <polygon class="cls-56" points="78.4 90.5 87.8 80.9 75.2 83.9 78.4 90.5"/>
            <polygon class="cls-45" points="68.2 93.8 73.7 98.3 66 107.6 65.3 106 68.2 93.8"/>
            <polygon class="cls-61" points="73.7 98.3 74.6 105.8 77.6 103.6 73.7 98.3"/>
            <polygon class="cls-25" points="91.5 101.1 92.8 97.9 88.7 95.1 82.3 100.1 91.5 101.1"/>
            <polygon class="cls-77" points="82.3 100.1 88.7 95.1 79.8 95 82.3 100.1"/>
            <polygon class="cls-66" points="74.3 103.6 76.9 126.5 85.6 119.4 78 110.1 74.3 103.6"/>
            <polygon class="cls-59" points="96.9 104.2 78 110.1 81.6 104.3 96.9 104.2"/>
            <polygon class="cls-83" points="96.9 104.2 85.6 119.4 89.7 122.1 92.1 116.8 96.9 104.2"/>
            <path class="cls-119" d="M92.5,104.4s-2-3.6-2.5-3.8-1.7.7-1.7.7l.9,2.7,3.3.4Z"/>
            <path class="cls-76" d="M80.6,100.1s7.6-.2,9.3.5c-.9.7-1.4,1-1.4,1l-7.8-.8-.2-.7Z"/>
            <path class="cls-15" d="M75.2,103.2s3.3-2.1,5.4-3.1l.4,1-2.7,2.1h-3.1Z"/>
            <path class="cls-21" d="M89.6,104s-.6-2.2-1.3-2.7-5.4-1-7.8-.4c-1,.6-2.1,2.4-2.1,2.4,0,0,2.5.9,5.6.7,3,.1,5.6,0,5.6,0Z"/>
            <polygon class="cls-33" points="90 100.6 92.8 97.9 92.5 104.4 90 100.6"/>
            <path class="cls-20" d="M81.1,103.8s-2.1.3-5.8-.6h3.1l2.7.6Z"/>
            <path class="cls-109" d="M92.5,104.4s-5.4,1-13.8-.5c-.5-.3,2.5,0,2.5,0,0,0,6.5.2,8.1.2,1.7.2,3.3.4,3.3.4Z"/>
            <path class="cls-111" d="M73.7,98.3l.4-3.3,4.2-4.5h8.8l5.6.6.7,3.6-.4,1.6-4.3-1.2s-7.2-.7-8.9-.2-6.1,3.3-6.1,3.3Z"/>
            <polygon class="cls-55" points="100.1 126.5 95.5 121.9 100.1 122.8 100.1 126.5"/>
            <polygon class="cls-37" points="100.1 120.5 95.5 121.9 100.1 122.8 100.1 120.5"/>
            <polygon class="cls-22" points="79.8 95 82.3 100.1 73.7 98.3 76.7 96 79.8 95"/>
            <polygon class="cls-4" points="100.1 106 100.1 97.5 96.9 104.2 95.5 121.9 100.1 120.5 100.1 106 100.1 106"/>
            <polygon class="cls-114" points="96.9 104.2 92.1 116.7 95.5 121.9 96.9 104.2"/>
            <path class="cls-80" d="M95.5,121.9h-2.8c0,0-.9,0-.9,0-.1,0-.3.1-.4.1s0,0,0,0c-.2,0-.3,0-.5,0,.1,0,0,0-.1,0,0,0-.2,0-.2,0-.2,0-.3,0-.5,0,0,0-.2,0-.3,0h-.1s5.7,3.6,10.4,4.4c-.6-.9-4.6-4.6-4.6-4.6Z"/>
            <path class="cls-60" d="M100.1,126.5l-6.9-3.7-3.5-.7s4.3,2.2,10.4,4.4Z"/>
            <polygon class="cls-84" points="95.5 121.9 100.1 126.5 93.2 122.8 95.5 121.9"/>
            <path class="cls-57" d="M96.1,123.6s-1.6-2.8-4.8-1.3c1.2.4,4.8,1.3,4.8,1.3Z"/>
            <polygon class="cls-12" points="100.1 97.4 92.4 104.3 96.9 104.2 100.1 97.5 100.1 97.4"/>
            <polygon class="cls-10" points="100.1 97.4 93.1 96.3 96.1 102.5 100.1 97.5 100.1 97.4"/>
            <polygon class="cls-43" points="97.2 101.1 88.7 95.1 93.1 96.3 97.2 101.1"/>
            <polygon class="cls-110" points="92.4 104.3 92.8 97.9 97.2 101.1 92.4 104.3"/>
            <polygon class="cls-2" points="75.2 105.1 77.4 103.6 81.8 104.3 78 110.1 75.2 105.1"/>
            <polygon class="cls-36" points="77.4 103.6 81.8 104.3 79.7 107.6 77.4 103.6"/>
            <polygon class="cls-49" points="92.8 91.1 79.8 95 93.1 96.3 92.8 91.1"/>
            <polygon points="78.4 90.5 79.8 95 92.8 91.1 87.2 90.5 78.4 90.5"/>
            <polygon class="cls-46" points="77 126.4 85.6 119.4 89.7 122.1 84.3 124 77 126.4"/>
            <polygon class="cls-82" points="76.8 102.3 66 107.6 73.7 98.3 76.8 102.3"/>
            <polygon class="cls-69" points="100.1 85 78.4 90.5 87.2 90.5 92.8 91.1 100.1 91 100.1 85"/>
            <polygon class="cls-68" points="74.2 95 75.2 83.9 78.4 90.5 74.2 95"/>
            <polygon class="cls-90" points="68.3 84.8 74.2 95 73.7 98.3 68.2 93.8 68.3 84.8"/>
            <polygon class="cls-81" points="80.3 74 69.4 81.3 68.3 84.8 75.2 83.9 80.3 74"/>
            <polygon class="cls-75" points="74.2 95 75.2 83.9 68.3 84.8 74.2 95"/>
            <polygon class="cls-38" points="80.4 73.8 87.8 80.9 99.7 79.9 80.4 73.8"/>
            <polygon class="cls-66" points="100.1 85 87.8 80.9 78.4 90.5 100.1 85 100.1 85"/>
            <polygon class="cls-113" points="100.1 79.8 87.8 80.9 100.1 85 100.1 79.8"/>
            <polygon class="cls-29" points="87.2 76.1 87.8 80.9 99.7 79.9 87.2 76.1"/>
            <polygon class="cls-85" points="66 107.6 69.2 131.7 76.9 126.5 66 107.6"/>
            <polygon class="cls-32" points="100.1 145.1 91.8 149.3 88 154 100.1 157.1 100.1 145.1"/>
            <polygon class="cls-83" points="85.4 134.4 89.1 141.3 95.7 138.3 88.2 133.8 88.2 133.8 85.4 134.4"/>
            <polygon class="cls-40" points="88 154 89.1 141.3 91.8 149.3 88 154"/>
            <polygon class="cls-18" points="100.1 142.8 100.1 141.7 89.1 141.3 91.8 149.3 100.1 145.1 100.1 142.8 100.1 142.8"/>
            <polygon class="cls-122" points="66 107.6 73.8 140.6 67.1 129.5 66 107.6"/>
            <polygon class="cls-107" points="100.1 126.5 95.6 125.1 93.4 129.3 100.1 129.8 100.1 126.5"/>
            <polygon class="cls-3" points="87.1 132.9 88.2 128 95.7 125.2 93.4 129.3 87.1 132.9 87.1 132.9"/>
            <polygon class="cls-102" points="76.8 126.5 81.2 134.3 89.7 122.1 76.8 126.5"/>
            <circle cx="86.1" cy="102.3" r="1.1"/>
            <circle class="cls-73" cx="86.4" cy="101.5" r=".7"/>
            <g>
              <g>
                <path class="cls-30" d="M84.1,103.9c-.6,0-1.1,0-1.6,0,.5.5,1.3.8,2.1.8s1.5-.3,2-.7c-.7,0-1.6,0-2.4,0Z"/>
                <path class="cls-30" d="M87.1,100.8c-.5-.8-1.4-1.3-2.5-1.3s-1.8.4-2.3,1c1.6,0,3.6,0,4.8.3Z"/>
                <path class="cls-93" d="M84.1,103.9c.9,0,1.7,0,2.4,0,.6-.5.9-1.1.9-1.9s-.1-.9-.4-1.3c-1.3-.2-3.2-.4-4.8-.3-.4.4-.6,1-.6,1.6s.3,1.3.8,1.8c.5,0,1.1,0,1.6,0Z"/>
              </g>
              <circle cx="84.5" cy="102.2" r="1.1"/>
              <circle class="cls-73" cx="84.8" cy="101.4" r=".7"/>
            </g>
            <polygon class="cls-13" points="85.5 119.3 76.8 126.5 84.3 124 85.5 119.3"/>
            <polygon class="cls-104" points="92.4 104.3 85.6 119.4 78 110.1 92.4 104.3"/>
            <polygon class="cls-35" points="80.4 73.8 87.8 80.9 75.2 83.9 80.4 73.8"/>
            <polygon class="cls-62" points="92.8 91.1 96.9 96.9 93.1 96.3 92.8 91.1"/>
            <polygon class="cls-96" points="100.1 91 92.8 91.1 96.4 96.9 100.1 97.4 100.1 91"/>
            <polygon class="cls-46" points="89.1 141.3 80.6 147 83.1 137.5 89.1 141.3"/>
            <polygon class="cls-98" points="80.1 132.3 92.1 116.8 83.1 137.5 73.8 140.6 80.1 132.3"/>
            <g>
              <polygon class="cls-71" points="87.1 133 87.1 132.9 91 133.1 91.6 136.5 87.1 133"/>
              <polygon class="cls-100" points="91 133.1 91.5 136.5 95.7 138.3 96.8 133.4 91 133.1"/>
              <polygon class="cls-31" points="100.1 133.4 96.5 133.4 95.7 138.3 100.1 138.3 100.1 133.4"/>
              <polygon class="cls-51" points="100.1 129.8 93.8 129.4 89.5 131 87.1 132.9 100.1 133.5 100.1 129.8"/>
              <polygon class="cls-16" points="89.5 131 93.4 129.3 96.8 133.4 91 133.1 89.5 131"/>
              <path class="cls-14" d="M100.1,129.8c-4.7-.9-6.4-.4-6.7-.4.3,1,3.3,4,3.3,4h3.4c0,.1,0-3.6,0-3.6Z"/>
              <polygon class="cls-24" points="100.1 133.5 91 133.1 87.9 132.3 87.1 132.9 100.1 133.9 100.1 133.5"/>
            </g>
            <polygon class="cls-122" points="100.1 138.3 95.7 138.3 100.1 141.7 100.1 138.3"/>
            <polyline class="cls-83" points="87.1 132.9 88.2 133.8 85.4 134.4"/>
            <polygon class="cls-40" points="82.7 129 73.8 140.6 76.9 126.5 82.7 129"/>
            <polygon class="cls-72" points="73.8 140.6 83.1 137.5 80.6 147 73.8 140.6"/>
            <polygon class="cls-66" points="100.1 145.2 91.8 149.3 100.1 157.1 100.1 145.2"/>
            <polygon class="cls-13" points="83.1 137.5 85.4 134.4 89.1 141.3 83.1 137.5"/>
            <polygon class="cls-39" points="85.6 119.4 92.4 104.3 96.9 104.2 85.6 119.4"/>
            <polygon class="cls-54" points="89.1 141.3 80.6 147 88 154 89.1 141.3"/>
            <polygon class="cls-114" points="100.1 141.7 95.7 138.3 89.1 141.3 100.1 141.7 100.1 141.7"/>
            <polygon class="cls-89" points="95.7 138.3 95.8 137 100.2 136.8 100.1 138.3 95.7 138.3"/>
            <polygon class="cls-86" points="95.9 137 91.3 135.3 91.5 136.5 95.7 138.3 95.9 137"/>
            <polygon class="cls-70" points="88.2 133.8 91.3 135.3 91.5 136.5 88.2 133.8"/>
            <polygon class="cls-40" points="83.1 137.5 82.7 129 92.1 116.6 83.6 129.3 83.1 137.5"/>
            <polygon class="cls-13" points="100.1 126.5 99.5 122.7 100.1 119.5 100.1 126.5"/>
            <polygon class="cls-1" points="100.1 122.8 100.1 122.8 99.5 122.7 100 126.5 100.1 126.1 100.1 122.8"/>
            <polygon class="cls-69" points="100.1 91 98.4 91 100.1 97.4 100.1 97.3 100.1 91"/>
            <g>
              <path class="cls-78" d="M83.4,93.5c-6.3,0-11.4,3.9-11.4,8.8s5.1,8.8,11.4,8.8,11.4-3.9,11.4-8.8-5.1-8.8-11.4-8.8ZM83.4,110.2c-5.7,0-10.3-3.5-10.3-7.9s4.6-7.9,10.3-7.9,10.3,3.5,10.3,7.9-4.6,7.9-10.3,7.9Z"/>
              <path class="cls-116" d="M83.4,93.5s0,0,0,0v.9s0,0,0,0c5.7,0,10.3,3.5,10.3,7.9s-4.6,7.9-10.3,7.9,0,0,0,0v.9s0,0,0,0c6.3,0,11.4-3.9,11.4-8.8s-5.1-8.8-11.4-8.8Z"/>
            </g>
            <polygon class="cls-40" points="89.7 122.1 93.7 125.9 95.8 125.1 89.7 122.1"/>
            <polygon class="cls-94" points="88 154 70.3 159.3 78 144.5 88 154"/>
            <polygon class="cls-50" points="65.8 168.7 88 154 70.3 159.3 65.8 168.7"/>
            <polygon class="cls-50" points="65.8 168.7 84.2 170.7 88 154 65.8 168.7"/>
            <polygon class="cls-99" points="100.1 157.1 84.2 170.7 88 154 100.1 157.1"/>
            <g>
              <path class="cls-30" d="M67.2,127.7c0,0,0-.2-.1-.3h0c0,0,.1.3.1.3Z"/>
              <polygon class="cls-30" points="60.4 164.9 66.6 151.3 60.4 164.9 60.4 164.9"/>
              <path class="cls-30" d="M82,74.3s0,0,0,0c0,0,0,0,0,0Z"/>
              <polygon class="cls-30" points="58.4 119.6 59.5 99.6 59.5 99.6 58.4 119.6"/>
              <polygon class="cls-30" points="49.9 111.7 52.3 108.7 52.3 108.7 49.9 111.7"/>
              <path class="cls-30" d="M51.1,135.1v-.2c0,.1,0,.2,0,.2Z"/>
              <polygon class="cls-121" points="59.4 99.6 59.5 99.6 59.5 99.6 59.5 99.6 62.4 95.5 70.8 85.1 57.1 87.8 59.4 99.6"/>
              <path class="cls-27" d="M67.1,127.4h0c0,0,0,0,0,0,0,0,0-.2-.1-.2,0,0,0,.2,0,.2-4.8-.9-6.4-6.9-6.4-6.9h0c-1.3-.7-2.3-.9-2.3-.9l4.4,13.9,4.3-6.1Z"/>
              <path class="cls-117" d="M60.7,115.1l-2.3,4.5s1,.2,2.3.9l3.8.7s1.6,2.6,2.5,6c0,0,0,.2.1.2,0,0,0,.2.1.3l.3.6c-.3-3.3-.4-6.1-.4-6.1l-6.4-7.1Z"/>
              <path class="cls-120" d="M67.1,127.4c0,0,0-.2,0-.2-.9-3.3-2.5-6-2.5-6l-3.8-.7h0s1.6,5.9,6.4,6.9Z"/>
              <polygon class="cls-99" points="67.1 127.5 67.1 127.4 62.8 133.5 66.6 151.3 73.8 140.6 67.5 128.2 67.2 127.7 67.1 127.5"/>
              <polygon class="cls-124" points="57.1 172 57.1 172 57.1 172 57.1 172"/>
              <polygon class="cls-124" points="57.1 162.6 60.4 164.9 66.6 151.3 62.8 133.5 57.1 147.4 57.1 162.6"/>
              <polygon class="cls-118" points="75 73.3 72.1 81.5 82 74.3 76.8 72.3 75 73.3"/>
              <polygon class="cls-6" points="60.7 115.1 67.1 122.2 66 107.6 65.4 105.8 65.4 105.9 65.4 106 60.7 115.1"/>
              <polygon class="cls-95" points="60.7 115.1 65.4 106 63.5 109.6 59.5 99.6 58.4 119.6 60.7 115.1"/>
              <polygon class="cls-52" points="65.4 106 62.4 95.5 59.5 99.6 65.4 106"/>
              <polygon class="cls-112" points="65.4 106 65.4 105.9 67.8 97.2 70.8 85.1 62.4 95.5 65.4 106"/>
              <polygon class="cls-5" points="63.5 109.6 65.4 106 59.5 99.6 63.5 109.6"/>
              <path class="cls-79" d="M100.1,80.1v-11.9c-2.8.1-5.5.3-8.1.5l8.1,11.4Z"/>
              <path class="cls-53" d="M91.9,68.8l-4.6,7.3,12.7,4.2h0c0-.1-8.1-11.5-8.1-11.5,0,0,0,0,0,0Z"/>
              <path class="cls-101" d="M84.3,69.5c0,.7.4,4.7-2.2,4.8,0,0,0,0,0,0l5.4,1.7,4.6-7.3c-2.7.2-5.3.5-7.7.7Z"/>
              <path class="cls-44" d="M84.3,69.5c-3,.3-5.7.7-8.1,1.1l5.9,3.8s0,0,0,0c2.6-.1,2.3-4.2,2.2-4.8Z"/>
              <path class="cls-65" d="M71.6,71.3c-3.2.6-5.8,1.2-7.8,1.7l7.1,12s-.2-8.8.8-13.7Z"/>
              <path class="cls-48" d="M63.6,73.1l-6.5,14.7h0s13.7-2.7,13.7-2.7l-7.1-12s0,0-.1,0Z"/>
              <path class="cls-41" d="M57.1,87.8l6.5-14.7c-3.3.9-4.9,1.5-4.9,1.5h-.4c0,.1-1.3,13.2-1.3,13.2Z"/>
              <polygon class="cls-92" points="57.1 87.8 58.4 74.7 53 76.8 52.9 76.7 52.9 76.7 57.1 87.8"/>
              <polygon class="cls-88" points="52.9 76.7 46 102.4 53.4 93.2 52.9 76.7"/>
              <polygon class="cls-34" points="57.1 87.8 52.9 76.7 53.4 93.2 57.1 87.8"/>
              <path class="cls-9" d="M53.4,93.2l6,6.4s0,0,0,0l-2.3-11.8h0s-3.7,5.4-3.7,5.4Z"/>
              <polygon class="cls-9" points="59.5 99.6 59.5 99.6 59.5 99.6 59.5 99.6"/>
              <polygon class="cls-79" points="59.5 99.6 59.5 99.6 59.5 99.6 59.5 99.6"/>
              <path class="cls-79" d="M59.4,99.6l-6-6.4-3.5,18.5,2.4-3c2.2-2.8,6.9-8.8,7.2-9.1Z"/>
              <polygon class="cls-23" points="53.4 93.2 46 102.4 39.5 109.9 49.9 111.7 53.4 93.2"/>
              <polygon class="cls-64" points="39.5 109.9 44.3 123.2 49.9 111.7 39.5 109.9"/>
              <path class="cls-19" d="M51.2,134.9l3.9-8.3c-1-1-5.4-5.9-2.8-18l-2.4,3-5.6,11.5,6.8,11.9s0,0,0-.2Z"/>
              <path class="cls-97" d="M52.3,108.7s0,0,0,0c-2.6,12.1,1.8,17,2.8,18l3.3-7.1,1.1-20h0s0,0,0,0h0s0,0,0,0c0,0,0,0,0,0-.3.4-5,6.3-7.2,9.1Z"/>
              <polygon class="cls-67" points="55 126.7 51.2 134.9 51.1 135.1 57.1 147.4 58.4 119.6 55 126.7"/>
              <path class="cls-42" d="M41.9,131.4c.5,1.5,3.7,15.2,3.7,15.2l-1.3-23.3s-1.5,7.6-2.4,8.1Z"/>
              <polygon class="cls-7" points="44.3 123.2 45.6 146.5 51.1 135.1 44.3 123.2"/>
              <polygon class="cls-50" points="62.8 133.5 58.4 119.6 57.1 147.4 62.8 133.5"/>
              <polygon class="cls-50" points="70.3 159.3 78 144.5 73.8 140.6 66.6 151.3 70.3 159.3"/>
              <polygon class="cls-58" points="51.1 135.1 45.6 146.5 50.4 157.9 57.1 147.4 51.1 135.1"/>
              <polygon class="cls-67" points="60.4 164.9 65.8 168.7 68.2 163.6 70.3 159.3 66.6 151.3 60.4 164.9"/>
              <polygon class="cls-105" points="60.4 164.8 57.1 147.4 50.4 157.9 60.4 164.8"/>
              <path class="cls-123" d="M56.5,71.6l-6.3,1.6,2.7,3.5h0c0,0,5.3-2,5.3-2h.4c0-.1,1.6-.8,4.9-1.6,0,0,0,0,.1,0,2-.5,4.6-1.1,7.8-1.7.3-1.4.6-2.5,1.1-3l3.4,2.2c2.4-.4,5.2-.7,8.1-1.1,2.4-.3,4.9-.5,7.7-.7,0,0,0,0,0,0,2.5-.2,5.2-.4,8.1-.5h0v-3.8l-24.9,2.5-18.7,4.6Z"/>
              <polygon class="cls-63" points="56.5 71.6 56.5 71.6 57.8 67.5 53.3 69.2 50.2 73.2 56.5 71.6"/>
              <path class="cls-87" d="M75.2,67l24.9-2.5h0v-2.9l-24.9,2c0,1.8,0,3.4,0,3.4Z"/>
              <path class="cls-103" d="M56.5,71.6h0s18.7-4.6,18.7-4.6c0,0,0-1.6,0-3.4l-17.4,3.8-1.3,4.2Z"/>
              <path class="cls-123" d="M56.5,64.5l-4.5,1.8,1.3,2.9,4.5-1.7,17.4-3.8,24.9-2h0v-3.6c-1.2.1-19,1.8-31.6,3.7-5.5,1.1-12,2.7-12,2.7Z"/>
              <path class="cls-87" d="M75.2,57.3l-.6,3.3c-1.3.1-3.6.6-6.2,1.1,12.6-1.9,30.5-3.6,31.6-3.7h0v-3.8l-22.6,2.7-2.3.4Z"/>
              <polygon class="cls-73" points="100.1 54.2 100.1 54.2 100.1 41 77.4 56.9 100.1 54.2"/>
              <path class="cls-101" d="M76.9,45.4l-7,12.7c3-.5,5.3-.9,5.3-.9h0l2.3-.4,22.6-15.9h0c0-.1-23.2,4.4-23.2,4.4Z"/>
              <path class="cls-28" d="M57.4,61.4c2.2-1.2,8.1-2.4,12.5-3.2l7-12.7-19.6,15.9h0s0,0,0,0Z"/>
              <path class="cls-103" d="M56.5,64.5s6.5-1.6,12-2.7c2.5-.5,4.8-.5,6.1-.9l.6-3.5h0s-2.3.3-5.3.9c-4.4.8-10.4,2-12.5,3.2l-.9,3.1Z"/>
              <path class="cls-47" d="M72.7,68.4c-.5.5-.9,1.6-1.1,3-1,5-.8,13.7-.8,13.7l1.3-3.6,2.9-8.2-2.3-4.9Z"/>
              <polygon class="cls-108" points="72.7 68.4 75 73.3 76.8 72.3 82 74.3 76.1 70.6 72.7 68.4"/>
              <polygon class="cls-63" points="57.4 61.4 57.4 61.4 57.3 61.4 51.3 63.8 52 66.2 56.5 64.5 57.4 61.4"/>
            </g>
            <polygon class="cls-64" points="57.1 147.4 66.6 151.3 60.4 164.8 57.1 147.4"/>
            <polygon class="cls-58" points="70.3 159.3 65.8 168.7 84.2 170.7 70.3 159.3"/>
            <g>
              <path class="cls-116" d="M100.1,99.5s0,0,0,0c-2.4,0-4.6,1-6.2,2.6,0,0,0,.2,0,.3h.9c1.4-1.2,3.3-2,5.3-2s0,0,0,0v-.9Z"/>
              <path class="cls-78" d="M93.8,102.1c1.6-1.6,3.8-2.6,6.2-2.6s0,0,0,0v.9s0,0,0,0c-2,0-3.9.8-5.3,2h-.9c0-.1,0-.2,0-.3Z"/>
            </g>
            <polygon class="cls-94" points="100.1 157.2 100 157.1 84.2 170.7 100.1 170.7 100.1 157.2"/>
            <g>
              <polygon class="cls-78" points="67 100.3 67.2 99.4 60.7 97.9 60.1 98.7 67 100.3"/>
              <polygon class="cls-78" points="72.2 101.5 60.1 98.7 60.7 97.9 72.3 100.7 72.2 101.5"/>
            </g>
          </g>
          <g>
            <polygon class="cls-17" points="104.6 121.9 107.7 120.5 110.4 122.1 108.5 122.5 104.6 121.9"/>
            <polygon class="cls-74" points="126.3 140.6 123.2 126.5 128.8 130.2 126.3 140.6"/>
            <polygon class="cls-26" points="134.1 107.6 124.3 115.3 124.8 103 134.1 107.6"/>
            <polygon class="cls-1" points="124.8 103.3 126.4 98.3 117.8 100.1 124.8 103.3"/>
            <path class="cls-11" d="M108,116.7s-3.1,3.1-3.4,5.2c3.8-1.3,5.8.1,5.8.1,0,0,1.5-3-2.3-5.4Z"/>
            <polygon class="cls-54" points="123.2 126.5 134.1 107.6 124.5 114.8 123.2 126.5"/>
            <polygon class="cls-106" points="117.2 137.7 110.4 122.1 104.5 125.1 117.2 137.7"/>
            <polygon class="cls-56" points="121.7 90.5 112.3 80.9 124.9 83.9 121.7 90.5"/>
            <polygon class="cls-45" points="131.9 93.8 126.4 98.3 134.1 107.6 134.8 106 131.9 93.8"/>
            <polygon class="cls-61" points="126.4 98.3 125.5 105.8 122.5 103.6 126.4 98.3"/>
            <polygon class="cls-25" points="108.7 100.8 107.4 97.9 111.4 95.1 117.8 100.1 108.7 100.8"/>
            <polygon class="cls-77" points="117.8 100.1 111.4 95.1 120.3 95 117.8 100.1"/>
            <polygon class="cls-66" points="125.8 103.6 123.2 126.5 114.5 119.4 122.1 110.1 125.8 103.6"/>
            <polygon class="cls-59" points="103.2 104.2 122.1 110.1 118.5 104.3 103.2 104.2"/>
            <polygon class="cls-83" points="103.2 104.2 114.5 119.4 110.4 122.1 108 116.8 103.2 104.2"/>
            <path class="cls-119" d="M107.6,104.4s2-3.6,2.5-3.8,1.7.7,1.7.7l-.9,2.7-3.3.4Z"/>
            <path class="cls-76" d="M119.5,100.1s-7.6-.2-9.3.5c.9.7,1.4,1,1.4,1l7.8-.8.2-.7Z"/>
            <path class="cls-15" d="M124.9,103.2s-3.3-2.1-5.4-3.1l-.4,1,2.7,2.1h3.1Z"/>
            <path class="cls-21" d="M110.5,104s.6-2.2,1.3-2.7,5.4-1,7.8-.4c1,.6,2.1,2.4,2.1,2.4,0,0-2.5.9-5.6.7-3,.1-5.6,0-5.6,0Z"/>
            <polygon class="cls-33" points="110.1 100.6 107.4 97.9 107.6 104.4 110.1 100.6"/>
            <path class="cls-20" d="M119,103.8s2.1.3,5.8-.6h-3.1s-2.7.6-2.7.6Z"/>
            <path class="cls-109" d="M107.6,104.4s5.4,1,13.8-.5c.5-.3-2.5,0-2.5,0,0,0-6.5.2-8.1.2-1.8.2-3.3.4-3.3.4Z"/>
            <path class="cls-111" d="M126.4,98.3l-.4-3.3-4.2-4.5h-8.8s-5.6.6-5.6.6l-.7,3.6.4,1.6,4.3-1.2s7.2-.7,8.9-.2,6.1,3.3,6.1,3.3Z"/>
            <polygon class="cls-55" points="100 126.5 104.6 121.9 100 122.8 100 126.5"/>
            <polygon class="cls-37" points="100 120.5 104.6 121.9 100 122.8 100 120.5"/>
            <polygon class="cls-22" points="120.3 95 117.8 100.1 126.4 98.3 123.4 96 120.3 95"/>
            <polygon class="cls-4" points="100 106 100 97.5 103.2 104.2 104.6 121.9 100 120.5 100 106 100 106"/>
            <polygon class="cls-114" points="103.2 104.2 108 116.7 104.6 121.9 103.2 104.2"/>
            <path class="cls-80" d="M104.6,121.9h2.8c0,0,.9,0,.9,0,.1,0,.3.1.4.1s0,0,0,0c.2,0,.3,0,.5,0-.1,0,0,0,.1,0,0,0,.2,0,.2,0,.2,0,.3,0,.5,0,0,0,.2,0,.3,0h.1s-5.7,3.6-10.4,4.4c.6-.9,4.6-4.6,4.6-4.6Z"/>
            <path class="cls-60" d="M100,126.5l6.9-3.7,3.5-.7s-4.3,2.2-10.4,4.4Z"/>
            <polygon class="cls-84" points="104.6 121.9 100 126.5 106.9 122.8 104.6 121.9"/>
            <path class="cls-57" d="M104.1,123.6s1.6-2.8,4.8-1.3c-1.2.4-4.8,1.3-4.8,1.3Z"/>
            <polygon class="cls-12" points="100 97.4 107.7 104.3 103.2 104.2 100 97.5 100 97.4"/>
            <polygon class="cls-10" points="100 97.4 107.1 96.3 104 102.5 100 97.5 100 97.4"/>
            <polygon class="cls-43" points="102.9 101.1 111.4 95.1 107.1 96.3 102.9 101.1"/>
            <polygon class="cls-110" points="107.7 104.3 107.4 97.9 102.9 101.1 107.7 104.3"/>
            <polygon class="cls-2" points="124.9 105.1 122.7 103.6 118.4 104.3 122.1 110.1 124.9 105.1"/>
            <polygon class="cls-36" points="122.7 103.6 118.4 104.3 120.4 107.6 122.7 103.6"/>
            <polygon class="cls-49" points="107.4 91.1 120.3 95 107.1 96.3 107.4 91.1"/>
            <polygon points="121.7 90.5 120.3 95 107.4 91.1 112.9 90.5 121.7 90.5"/>
            <polygon class="cls-46" points="123.1 126.4 114.5 119.4 110.4 122.1 115.8 124 123.1 126.4"/>
            <polygon class="cls-82" points="123.3 102.3 134.1 107.6 126.4 98.3 123.3 102.3"/>
            <polygon class="cls-69" points="100 85 121.7 90.5 112.9 90.5 107.4 91.1 100 91 100 85"/>
            <polygon class="cls-68" points="125.9 95 124.9 83.9 121.7 90.5 125.9 95"/>
            <polygon class="cls-90" points="131.8 84.8 125.9 95 126.4 98.3 131.9 93.8 131.8 84.8"/>
            <polygon class="cls-81" points="119.8 74 130.7 81.3 131.8 84.8 124.9 83.9 119.8 74"/>
            <polygon class="cls-75" points="125.9 95 124.9 83.9 131.8 84.8 125.9 95"/>
            <polygon class="cls-38" points="119.7 73.8 112.3 80.9 100.4 79.9 119.7 73.8"/>
            <polygon class="cls-66" points="100 85 112.3 80.9 121.7 90.5 100 85 100 85"/>
            <polygon class="cls-113" points="100 79.8 112.3 80.9 100 85 100 79.8"/>
            <polygon class="cls-29" points="112.9 76.1 112.3 80.9 100.4 79.9 112.9 76.1"/>
            <polygon class="cls-85" points="134.1 107.6 130.9 131.7 123.2 126.5 134.1 107.6"/>
            <polygon class="cls-32" points="100 145.1 108.3 149.3 112.1 154 100 157.1 100 145.1"/>
            <polygon class="cls-83" points="114.8 134.4 111 141.3 104.4 138.3 111.9 133.8 111.9 133.8 114.8 134.4"/>
            <polygon class="cls-40" points="112.1 154 111 141.3 108.3 149.3 112.1 154"/>
            <polygon class="cls-18" points="100 142.8 100 141.7 111 141.3 108.3 149.3 100 145.1 100 142.8 100 142.8"/>
            <polygon class="cls-122" points="134.1 107.6 126.3 140.6 133 129.5 134.1 107.6"/>
            <polygon class="cls-107" points="100 126.5 104.5 125.1 106.7 129.3 100 129.8 100 126.5"/>
            <polygon class="cls-3" points="113 132.9 111.9 128 104.4 125.2 106.7 129.3 113 132.9 113 132.9"/>
            <polygon class="cls-102" points="123.3 126.5 119.2 133.8 110.4 122.1 123.3 126.5"/>
            <circle cx="114" cy="102.3" r="1.1"/>
            <circle class="cls-73" cx="113.7" cy="101.5" r=".7"/>
            <g>
              <g>
                <path class="cls-30" d="M116,103.9c.6,0,1.1,0,1.6,0-.5.5-1.3.8-2.1.8s-1.5-.3-2-.7c.7,0,1.6,0,2.4,0Z"/>
                <path class="cls-30" d="M113,100.8c.5-.8,1.4-1.3,2.5-1.3s1.8.4,2.3,1c-1.6,0-3.6,0-4.8.3Z"/>
                <path class="cls-93" d="M116,103.9c-.9,0-1.7,0-2.4,0-.6-.5-.9-1.1-.9-1.9s.1-.9.4-1.3c1.3-.2,3.2-.4,4.8-.3.4.4.6,1,.6,1.6s-.3,1.3-.8,1.8c-.5,0-1.1,0-1.6,0Z"/>
              </g>
              <circle cx="115.6" cy="102.2" r="1.1"/>
              <circle class="cls-73" cx="115.3" cy="101.4" r=".7"/>
            </g>
            <polygon class="cls-13" points="114.6 119.3 123.3 126.5 115.8 124 114.6 119.3"/>
            <polygon class="cls-104" points="107.7 104.3 114.5 119.4 122.1 110.1 107.7 104.3"/>
            <polygon class="cls-35" points="119.7 73.8 112.3 80.9 124.9 83.9 119.7 73.8"/>
            <polygon class="cls-62" points="107.4 91.1 103.2 96.9 107.1 96.3 107.4 91.1"/>
            <polygon class="cls-96" points="100 91 107.4 91.1 103.7 96.9 100 97.4 100 91"/>
            <polygon class="cls-46" points="111 141.3 119.5 147 117 137.5 111 141.3"/>
            <polygon class="cls-98" points="120 132.3 108 116.8 117 137.5 126.3 140.6 120 132.3"/>
            <g>
              <polygon class="cls-71" points="113 133 113 132.9 109.1 133.1 108.5 136.5 113 133"/>
              <polygon class="cls-100" points="109.1 133.1 108.6 136.5 104.4 138.3 103.4 133.4 109.1 133.1"/>
              <polygon class="cls-31" points="100 133.4 103.6 133.4 104.4 138.3 100 138.3 100 133.4"/>
              <polygon class="cls-51" points="100 129.8 106.4 129.4 110.6 131 113 132.9 100 133.5 100 129.8"/>
              <polygon class="cls-16" points="110.6 131 106.7 129.3 103.4 133.4 109.1 133.1 110.6 131"/>
              <path class="cls-14" d="M100,129.8c4.7-.9,6.4-.4,6.7-.4-.3,1-3.3,4-3.3,4h-3.4c0,.1,0-3.6,0-3.6Z"/>
              <polygon class="cls-24" points="100 133.5 109.1 133.1 112.2 132.3 113 132.9 100 133.9 100 133.5"/>
            </g>
            <polygon class="cls-122" points="100 138.3 104.4 138.3 100 141.7 100 138.3"/>
            <polyline class="cls-83" points="113 132.9 111.9 133.8 114.8 134.4"/>
            <polygon class="cls-40" points="117.4 129 126.3 140.6 123.2 126.5 117.4 129"/>
            <polygon class="cls-72" points="126.3 140.6 117 137.5 119.5 147 126.3 140.6"/>
            <polygon class="cls-66" points="100 145.2 108.3 149.3 100 157.1 100 145.2"/>
            <polygon class="cls-13" points="117 137.5 114.8 134.4 111 141.3 117 137.5"/>
            <polygon class="cls-39" points="114.5 119.4 107.7 104.3 103.2 104.2 114.5 119.4"/>
            <polygon class="cls-54" points="111 141.3 119.5 147 112.1 154 111 141.3"/>
            <polygon class="cls-114" points="100 141.7 104.4 138.3 111 141.3 100 141.7 100 141.7"/>
            <polygon class="cls-89" points="104.4 138.3 104.3 137 99.9 136.8 100 138.3 104.4 138.3"/>
            <polygon class="cls-86" points="108.6 136.5 108.8 135.3 104.2 137 104.4 138.3 108.6 136.5"/>
            <polygon class="cls-70" points="111.9 133.8 108.8 135.3 108.6 136.5 111.9 133.8"/>
            <polygon class="cls-40" points="117 137.5 117.5 129 108 116.6 116.6 129.3 117 137.5"/>
            <polygon class="cls-13" points="100 126.5 100.6 122.7 100 119.5 100 126.5"/>
            <polygon class="cls-1" points="100 122.8 100 122.8 100.6 122.7 100.1 126.5 100 126.1 100 122.8"/>
            <polygon class="cls-69" points="100 91 101.7 91 100.1 97.4 100 97.3 100 91"/>
            <g>
              <path class="cls-78" d="M105.3,102.3c0,4.8,5.1,8.8,11.4,8.8,6.3,0,11.4-3.9,11.4-8.8s-5.1-8.8-11.4-8.8-11.4,3.9-11.4,8.8ZM106.4,102.3c0-4.4,4.6-7.9,10.3-7.9s10.3,3.5,10.3,7.9c0,4.4-4.6,7.9-10.3,7.9-5.7,0-10.3-3.5-10.3-7.9Z"/>
              <path class="cls-116" d="M116.7,93.5s0,0,0,0v.9s0,0,0,0c-5.7,0-10.3,3.5-10.3,7.9s4.6,7.9,10.3,7.9,0,0,0,0v.9s0,0,0,0c-6.3,0-11.4-3.9-11.4-8.8s5.1-8.8,11.4-8.8Z"/>
            </g>
            <polygon class="cls-40" points="110.4 122.1 106.5 125.9 104.3 125.1 110.4 122.1"/>
            <polygon class="cls-94" points="112.1 154 129.8 159.3 122.1 144.5 112.1 154"/>
            <polygon class="cls-50" points="134.4 168.7 112.1 154 129.8 159.3 134.4 168.7"/>
            <polygon class="cls-50" points="134.4 168.7 116 170.7 112.1 154 134.4 168.7"/>
            <polygon class="cls-99" points="100 157.1 116 170.7 112.1 154 100 157.1"/>
            <g>
              <path class="cls-30" d="M132.9,127.7c0,0,0-.2.1-.3h0c0,0-.1.3-.1.3Z"/>
              <polygon class="cls-30" points="139.7 164.9 133.5 151.3 139.8 164.9 139.7 164.9"/>
              <path class="cls-30" d="M118.1,74.3s0,0,0,0c0,0,0,0,0,0Z"/>
              <polygon class="cls-30" points="141.7 119.6 140.7 99.6 140.7 99.6 141.7 119.6"/>
              <polygon class="cls-30" points="150.2 111.7 147.9 108.7 147.9 108.7 150.2 111.7"/>
              <path class="cls-30" d="M149,135.1v-.2c0,.1,0,.2,0,.2Z"/>
              <polygon class="cls-121" points="140.7 99.6 140.7 99.6 140.7 99.6 140.7 99.6 137.8 95.5 129.3 85.1 143 87.8 140.7 99.6"/>
              <path class="cls-27" d="M133,127.4h0c0,0,0,0,0,0,0,0,0-.2.1-.2,0,0,0,.2,0,.2,4.8-.9,6.4-6.9,6.4-6.9h0c1.3-.7,2.3-.9,2.3-.9l-4.4,13.9-4.3-6.1Z"/>
              <path class="cls-117" d="M139.4,115.1l2.3,4.5s-1,.2-2.3.9l-3.8.7s-1.6,2.6-2.5,6c0,0,0,.2-.1.2,0,0,0,.2-.1.3l-.3.6c.3-3.3.4-6.1.4-6.1l6.4-7.1Z"/>
              <path class="cls-120" d="M133.1,127.4c0,0,0-.2,0-.2.9-3.3,2.5-6,2.5-6l3.8-.7h0s-1.6,5.9-6.4,6.9Z"/>
              <polygon class="cls-99" points="133 127.5 133 127.4 137.3 133.5 133.5 151.3 126.3 140.6 132.6 128.2 132.9 127.7 133 127.5"/>
              <polygon class="cls-124" points="143 172 143 172 143 172 143 172"/>
              <polygon class="cls-124" points="143 162.6 139.8 164.9 133.5 151.3 137.3 133.5 143 147.4 143 162.6"/>
              <polygon class="cls-118" points="125.1 73.3 128 81.5 118.1 74.3 123.3 72.3 125.1 73.3"/>
              <polygon class="cls-6" points="139.4 115.1 133 122.2 134.1 107.6 134.7 105.8 134.7 105.9 134.7 106 139.4 115.1"/>
              <polygon class="cls-95" points="139.4 115.1 134.7 106 136.6 109.6 140.7 99.6 141.7 119.6 139.4 115.1"/>
              <polygon class="cls-52" points="134.7 106 137.8 95.5 140.7 99.6 134.7 106"/>
              <polygon class="cls-112" points="134.7 106 134.7 105.9 132.3 97.2 129.3 85.1 137.8 95.5 134.7 106"/>
              <polygon class="cls-5" points="136.6 109.6 134.7 106 140.7 99.6 136.6 109.6"/>
              <path class="cls-79" d="M100,80.1v-11.9c2.8.1,5.5.3,8.1.5l-8.1,11.4Z"/>
              <path class="cls-53" d="M108.2,68.8l4.6,7.3-12.7,4.2h0c0-.1,8.1-11.5,8.1-11.5,0,0,0,0,0,0Z"/>
              <path class="cls-101" d="M115.8,69.5c0,.7-.4,4.7,2.2,4.8,0,0,0,0,0,0l-5.4,1.7-4.6-7.3c2.7.2,5.3.5,7.7.7Z"/>
              <path class="cls-44" d="M115.8,69.5c3,.3,5.7.7,8.1,1.1l-5.9,3.8s0,0,0,0c-2.6-.1-2.3-4.2-2.2-4.8Z"/>
              <path class="cls-65" d="M128.5,71.3c3.2.6,5.8,1.2,7.8,1.7l-7.1,12s.2-8.8-.8-13.7Z"/>
              <path class="cls-48" d="M136.5,73.1l6.5,14.7h0s-13.7-2.7-13.7-2.7l7.1-12s0,0,.1,0Z"/>
              <path class="cls-41" d="M143,87.8l-6.5-14.7c3.3.9,4.9,1.5,4.9,1.5h.4c0,.1,1.3,13.2,1.3,13.2Z"/>
              <polygon class="cls-92" points="143 87.8 141.7 74.7 147.1 76.8 147.2 76.7 147.2 76.7 143 87.8"/>
              <polygon class="cls-88" points="147.2 76.7 154.1 102.4 146.7 93.2 147.2 76.7"/>
              <polygon class="cls-34" points="143 87.8 147.2 76.7 146.7 93.2 143 87.8"/>
              <path class="cls-9" d="M146.7,93.2l-6,6.4s0,0,0,0l2.3-11.8h0s3.7,5.4,3.7,5.4Z"/>
              <polygon class="cls-9" points="140.7 99.6 140.7 99.6 140.7 99.6 140.7 99.6"/>
              <polygon class="cls-79" points="140.7 99.6 140.7 99.6 140.7 99.6 140.7 99.6"/>
              <path class="cls-79" d="M140.7,99.6l6-6.4,3.5,18.5-2.4-3c-2.2-2.8-6.9-8.8-7.2-9.1Z"/>
              <polygon class="cls-23" points="146.7 93.2 154.1 102.4 160.7 109.9 150.2 111.7 146.7 93.2"/>
              <polygon class="cls-64" points="160.7 109.9 155.8 123.2 150.2 111.7 160.7 109.9"/>
              <path class="cls-19" d="M148.9,134.9l-3.9-8.3c1-1,5.4-5.9,2.8-18l2.4,3,5.6,11.5-6.8,11.9s0,0,0-.2Z"/>
              <path class="cls-97" d="M147.9,108.7s0,0,0,0c2.6,12.1-1.8,17-2.8,18l-3.3-7.1-1.1-20h0s0,0,0,0h0s0,0,0,0c0,0,0,0,0,0,.3.4,5,6.3,7.2,9.1Z"/>
              <polygon class="cls-67" points="145.1 126.7 148.9 134.9 149 135.1 143 147.4 141.7 119.6 145.1 126.7"/>
              <path class="cls-42" d="M158.2,131.4c-.5,1.5-3.7,15.2-3.7,15.2l1.3-23.3s1.5,7.6,2.4,8.1Z"/>
              <polygon class="cls-7" points="155.8 123.2 154.5 146.5 149 135.1 155.8 123.2"/>
              <polygon class="cls-50" points="137.3 133.5 141.7 119.6 143 147.4 137.3 133.5"/>
              <polygon class="cls-50" points="129.8 159.3 122.1 144.5 126.3 140.6 133.5 151.3 129.8 159.3"/>
              <polygon class="cls-58" points="149 135.1 154.5 146.5 149.7 157.9 143 147.4 149 135.1"/>
              <polygon class="cls-67" points="139.7 164.9 134.4 168.7 131.9 163.6 129.8 159.3 133.5 151.3 139.7 164.9"/>
              <polygon class="cls-105" points="139.8 164.8 143 147.4 149.7 157.9 139.8 164.8"/>
              <path class="cls-123" d="M143.6,71.6l6.3,1.6-2.7,3.5h0c0,0-5.3-2-5.3-2h-.4c0-.1-1.6-.8-4.9-1.6,0,0,0,0-.1,0-2-.5-4.6-1.1-7.8-1.7-.3-1.4-.6-2.5-1.1-3l-3.4,2.2c-2.4-.4-5.2-.7-8.1-1.1-2.4-.3-4.9-.5-7.7-.7,0,0,0,0,0,0-2.5-.2-5.2-.4-8.1-.5h0c0-.1,0-3.8,0-3.8l24.9,2.5,18.7,4.6Z"/>
              <polygon class="cls-63" points="143.6 71.6 143.6 71.6 142.4 67.5 146.8 69.2 149.9 73.2 143.6 71.6"/>
              <path class="cls-87" d="M124.9,67l-24.9-2.5h0v-2.9s24.9,2,24.9,2c0,1.8,0,3.4,0,3.4Z"/>
              <path class="cls-103" d="M143.6,71.6h0s-18.7-4.6-18.7-4.6c0,0,0-1.6,0-3.4l17.4,3.8,1.3,4.2Z"/>
              <path class="cls-123" d="M143.6,64.5l4.5,1.8-1.3,2.9-4.5-1.7-17.4-3.8-24.9-2h0v-3.6c1.2.1,19,1.8,31.6,3.7,5.5,1.1,12,2.7,12,2.7Z"/>
              <path class="cls-87" d="M124.9,57.3l.6,3.3c1.3.1,3.6.6,6.2,1.1-12.6-1.9-30.5-3.6-31.6-3.7h0v-3.8s22.6,2.7,22.6,2.7l2.3.4Z"/>
              <polygon class="cls-73" points="100 54.2 100 54.2 100 41 122.7 56.9 100 54.2"/>
              <path class="cls-101" d="M123.2,45.4l7,12.7c-3-.5-5.3-.9-5.3-.9h0l-2.3-.4-22.6-15.9h0c0-.1,23.2,4.4,23.2,4.4Z"/>
              <path class="cls-28" d="M142.8,61.4c-2.2-1.2-8.1-2.4-12.5-3.2l-7-12.7,19.6,15.9h0s0,0,0,0Z"/>
              <path class="cls-103" d="M143.6,64.5s-6.5-1.6-12-2.7c-2.6-.3-4.9-.6-6.2-.9l-.5-3.5h0s2.3.3,5.3.9c4.4.8,10.4,2,12.5,3.2l.9,3.1Z"/>
              <path class="cls-47" d="M127.4,68.4c.5.5.9,1.6,1.1,3,1,5,.8,13.7.8,13.7l-1.3-3.6-2.9-8.2,2.3-4.9Z"/>
              <polygon class="cls-108" points="127.4 68.4 125.1 73.3 123.3 72.3 118.1 74.3 124 70.6 127.4 68.4"/>
              <polygon class="cls-63" points="142.8 61.4 142.8 61.4 142.8 61.4 148.8 63.8 148.1 66.2 143.6 64.5 142.8 61.4"/>
            </g>
            <polygon class="cls-64" points="143 147.4 133.5 151.3 139.8 164.8 143 147.4"/>
            <polygon class="cls-58" points="129.8 159.3 134.4 168.7 116 170.7 129.8 159.3"/>
            <g>
              <path class="cls-78" d="M100,99.5s0,0,0,0c2.4,0,4.6,1,6.2,2.6,0,0,0,.2,0,.3h-.9c-1.4-1.2-3.3-2-5.3-2s0,0,0,0v-.9Z"/>
              <path class="cls-78" d="M106.3,102.1c-1.6-1.6-3.8-2.6-6.2-2.6s0,0,0,0v.9s0,0,0,0c2,0,3.9.8,5.3,2h.9c0-.1,0-.2,0-.3Z"/>
            </g>
            <polygon class="cls-94" points="100 157.2 100.1 157.1 116 170.7 100 170.7 100 157.2"/>
            <g>
              <polygon class="cls-78" points="133.1 100.3 132.9 99.4 139.4 97.9 140 98.7 133.1 100.3"/>
              <polygon class="cls-78" points="127.9 101.5 140 98.7 139.4 97.9 127.9 100.7 127.9 101.5"/>
            </g>
          </g>
        </g>
      </g>
    </g>
  </g>
</svg>