<?xml version="1.0" encoding="UTF-8"?>
<svg xmlns="http://www.w3.org/2000/svg" version="1.1" viewBox="0 0 202 213">
  <defs>
    <style>
      .cls-1 {
        fill: #551427;
      }

      .cls-2 {
        fill: #f6dd87;
      }

      .cls-3 {
        fill: #1f1017;
      }

      .cls-4 {
        fill: #f6e192;
      }

      .cls-5 {
        fill: #e8ae55;
      }

      .cls-6 {
        fill: #fbf6d1;
      }

      .cls-7 {
        fill: #e2e0de;
      }

      .cls-8 {
        fill: #edc977;
      }

      .cls-9 {
        fill: #f6ce7b;
      }

      .cls-10 {
        fill: #f0b043;
      }

      .cls-11 {
        fill: #fcfaf0;
      }

      .cls-12 {
        fill: #f7d87d;
      }

      .cls-13 {
        fill: #f6de99;
      }

      .cls-14 {
        fill: #f0c87b;
      }

      .cls-15 {
        fill: #d1d5db;
      }

      .cls-16 {
        fill: #da7043;
      }

      .cls-17 {
        fill: #f6e8a7;
      }

      .cls-18 {
        fill: #601624;
      }

      .cls-19 {
        fill: #f6e7a9;
      }

      .cls-20 {
        fill: #fbf3c9;
      }

      .cls-21 {
        fill: #fffdf9;
      }

      .cls-22 {
        fill: #f0c15f;
      }

      .cls-23 {
        fill: #f7e6b8;
      }

      .cls-24 {
        fill: #ecc06e;
      }

      .cls-25 {
        fill: #fdf7de;
      }

      .cls-26 {
        fill: #fffcf5;
      }

      .cls-27 {
        fill: #fff;
      }

      .cls-28 {
        fill: #fffffa;
      }

      .cls-29 {
        fill: #eba350;
      }

      .cls-30 {
        fill: #40403f;
      }

      .cls-31 {
        fill: #f6dd8d;
      }

      .cls-32 {
        fill: #fef8e8;
      }

      .cls-33 {
        fill: #a23e29;
      }

      .cls-34 {
        fill: #faf7d5;
      }

      .cls-35 {
        fill: #f7e493;
      }

      .cls-36 {
        fill: #e28a3b;
      }

      .cls-37 {
        fill: #fbf7db;
      }

      .cls-38 {
        fill: #d06e48;
      }

      .cls-39 {
        fill: #f5cc68;
      }

      .cls-40 {
        fill: #f6d58c;
      }

      .cls-41 {
        fill: #f5bd5a;
      }

      .cls-42 {
        fill: #d5743f;
      }

      .cls-43 {
        fill: #fefaee;
      }

      .cls-44 {
        fill: #faedba;
      }

      .cls-45 {
        fill: #f8e8aa;
      }

      .cls-46 {
        fill: #c96249;
      }

      .cls-47 {
        fill: #da6b40;
      }

      .cls-48 {
        fill: #fbf7e4;
      }

      .cls-49 {
        fill: #636363;
      }

      .cls-50 {
        fill: #c4c4c4;
      }

      .cls-51 {
        fill: #fbf7de;
      }

      .cls-52 {
        fill: #faeebf;
      }

      .cls-53 {
        fill: #d3d3d3;
      }

      .cls-54 {
        fill: #c85d47;
      }

      .cls-55 {
        fill: #939393;
      }

      .cls-56 {
        fill: #e47445;
      }

      .cls-57 {
        fill: #fefbf4;
      }

      .cls-58 {
        fill: #de9645;
      }

      .cls-59 {
        fill: #150f15;
      }

      .cls-60 {
        fill: #d97249;
      }

      .cls-61 {
        fill: #fffef7;
      }

      .cls-62 {
        fill: #fcf7d4;
      }

      .cls-63 {
        fill: #4f271f;
      }

      .cls-64 {
        fill: #d4775a;
      }

      .cls-65 {
        fill: #ddd;
      }

      .cls-66 {
        fill: #130f15;
      }

      .cls-67 {
        fill: #0f0d11;
      }

      .cls-68 {
        fill: #f7e3a6;
      }

      .cls-69 {
        fill: #fefbef;
      }

      .cls-70 {
        fill: #f0efef;
      }

      .cls-71 {
        fill: #7b2230;
      }

      .cls-72 {
        fill: #f7e9ac;
      }

      .cls-73 {
        fill: #f6eaad;
      }

      .cls-74 {
        fill: #faefc2;
      }

      .cls-75 {
        fill: #fefaf5;
      }

      .cls-76 {
        fill: #d27443;
      }

      .cls-77 {
        fill: #ecae54;
      }

      .cls-78 {
        fill: #201219;
      }

      .cls-79 {
        fill: #761f2b;
      }

      .cls-80 {
        fill: none;
        stroke: #231f20;
        stroke-miterlimit: 10;
        stroke-width: 2px;
      }

      .cls-81 {
        fill: #f7d380;
      }

      .cls-82 {
        fill: #efbc61;
      }

      .cls-83 {
        fill: #120e13;
      }

      .cls-84 {
        fill: #f1be63;
      }

      .cls-85 {
        fill: #42131a;
      }

      .cls-86 {
        fill: #fef6d2;
      }

      .cls-87 {
        fill: #f7fafd;
      }

      .cls-88 {
        fill: #fcf9f7;
      }

      .cls-89 {
        fill: #f0c168;
      }

      .cls-90 {
        fill: #fcf3d3;
      }

      .cls-91 {
        fill: #fcf5d5;
      }

      .cls-92 {
        fill: #e89f46;
      }

      .cls-93 {
        fill: #edc055;
      }

      .cls-94 {
        fill: #faf2c9;
      }

      .cls-95 {
        fill: #abaaaa;
      }

      .cls-96 {
        fill: #7f7f7f;
      }

      .cls-97 {
        fill: #565656;
      }

      .cls-98 {
        fill: #d47340;
      }

      .cls-99 {
        fill: #faedb9;
      }

      .cls-100 {
        fill: #cc7437;
      }

      .cls-101 {
        fill: #fffef9;
      }

      .cls-102 {
        fill: #b7b7b7;
      }

      .cls-103 {
        fill: #a64034;
      }

      .cls-104 {
        fill: #441423;
      }

      .cls-105 {
        fill: #fcf7dd;
      }

      .cls-106 {
        fill: #f9efc8;
      }

      .cls-107 {
        fill: #fff7d3;
      }

      .cls-108 {
        fill: #572c84;
      }

      .cls-109 {
        fill: #e79c4e;
      }

      .cls-110 {
        fill: #fbf0bb;
      }

      .cls-111 {
        fill: #c57151;
      }

      .cls-112 {
        fill: #fffbf3;
      }

      .cls-113 {
        fill: #fcf9d9;
      }

      .cls-114 {
        fill: #f5e6bc;
      }
    </style>
  </defs>
  <!-- Generator: Adobe Illustrator 28.7.1, SVG Export Plug-In . SVG Version: 1.2.0 Build 142)  -->
  <g>
    <g id="Layer_1">
      <g>
        <g>
          <circle class="cls-27" cx="100" cy="106" r="93.5"/>
          <circle class="cls-108" cx="100" cy="106" r="90.6"/>
          <circle class="cls-87" cx="100" cy="106" r="86.4"/>
        </g>
        <path class="cls-15" d="M171.6,106.9c-.3,11.4-2.3,23.1-8.2,33.7-2.8,5.1-6.3,9.5-11.1,12.8-6.4,4.5-13.4,5.3-20.7,3.5-1.2-.3-1.7,0-2.2,1-3.4,6-7.6,11.2-13.5,14.9-5.5,3.5-11.6,5-18.1,4.5-8.4-.7-15.3-4.5-20.9-10.8-2.4-2.8-4.6-5.7-6.3-8.9-.3-.6-.7-.8-1.4-.6-5.6,1-11.2,1.4-16.6-.9-5.6-2.4-9.9-6.4-13.3-11.4-4.7-6.8-7.5-14.4-9.1-22.5-1.2-5.9-1.9-11.9-1.6-17.9.5-12.1,2.9-23.7,9.3-34.2,2.8-4.5,6.2-8.4,10.7-11.4,6.2-4.1,12.9-4.6,19.9-3,.9.2,1.3,0,1.7-.8,3.3-6,7.4-11.4,13.2-15.3,5.8-3.9,12.2-5.7,19.1-5.1,8.4.7,15.3,4.5,20.9,10.8,2.7,3,5,6.4,6.9,9.9.3.5.5.8,1.2.7,11.9-3,21.2,1.2,28.4,10.6,5.5,7.1,8.5,15.3,10.2,24,1.1,5.2,1.6,10.5,1.7,16.4ZM67.7,152.3c-1-2.3-2-4.5-2.8-6.8-3.4-9.6-5.2-19.6-5.9-29.7-.7-9.5-.4-19,.9-28.4,1-6.8,2.5-13.5,4.7-20,.2-.7.2-1-.6-1.3-1.6-.5-3.3-.9-5-.7-4.4.5-7.2,3.2-8.9,7-4.1,8.8-6.2,18.1-6.9,27.7-.5,7.1-.2,14.2.9,21.3,1.3,8.1,3.7,15.8,7.9,22.9,1.2,2,2.6,3.9,4.2,5.6,3.2,3.2,7.1,3.6,11.4,2.5ZM141.4,105.9c0,6-.4,12.1-1.2,18-1,7.2-2.6,14.3-5,21.2-.2.5-.2.9.4,1.1,2,.7,4,1,6.1.6,3.9-.7,6.6-3.2,8.3-6.7,4.2-8.6,6-17.7,6.8-27.1.5-6.1.3-12.3-.4-18.4-.8-6.8-2.4-13.5-5.2-19.8-1.8-4.1-4-7.9-7.4-11-2.8-2.5-6-3.7-9.8-3.1-.8.1-1.3.2-.8,1.2.5.9.8,1.9,1.1,2.8,5,13.2,6.8,27,7,41.1ZM101.9,91.3c1.4-3.1,2.8-6.1,4.2-9.1,3.5-7.2,7.5-14.2,13.5-19.8.4-.4.4-.7.2-1.2-2-4.6-4.4-9.1-7.6-13-2.4-2.9-5-5.5-8.4-7.2-2.5-1.3-4.9-1.3-7.4,0-2,1-3.8,2.3-5.4,3.9-4.6,4.5-7.7,9.9-10.3,15.7-.2.5,0,.8.3,1.1,6.1,4.5,10.7,10.3,14.6,16.8,2.5,4.1,4.5,8.3,6.4,12.9ZM99.2,120.8c-.3,0-.3.2-.3.4-1.6,4.5-3.4,9-5.6,13.3-3.1,6.3-6.7,12.2-12.2,16.8-.4.4-.3.7-.1,1.1,1.9,4.1,4.1,7.9,6.9,11.4,2.6,3.2,5.4,6,9.2,7.6,1.4.6,2.8.9,4.4.5,3.1-.9,5.5-2.7,7.8-4.9,4.4-4.3,7.4-9.5,10-15,.3-.6,0-.9-.4-1.2-2.4-1.8-4.5-3.9-6.4-6.2-5.1-6-8.7-12.8-11.7-20-.5-1.3-1-2.6-1.5-3.8ZM75.4,75.2c-5.2,23.4-4.8,46.3,2.3,69.2.3-.3.4-.4.5-.5.8-1.2,1.6-2.4,2.3-3.6,5.4-9.3,9.1-19.4,12.7-29.5.1-.4,0-.7,0-1.1-3.8-10.1-8-19.9-13.8-29-1.1-1.8-2.4-3.6-4-5.5ZM122.7,68.9c-.3.4-.5.6-.6.8-.9,1.4-1.8,2.8-2.7,4.3-4.7,8.6-8.1,17.8-11.7,26.9-.2.5,0,.9,0,1.4,1.2,3.9,2.6,7.9,4.1,11.7,3.1,7.7,6.5,15.2,11.4,21.9.2.3.4.8,1,1,5.2-22.7,4.9-45.3-1.8-68Z"/>
      </g>
      <g>
        <polygon class="cls-45" points="100 103.5 100.2 103.4 100.3 103.5 106.3 109.5 107.1 112.1 108 114.6 109.3 117.8 109.3 120.7 105.6 127.8 94.7 127.8 91 120.7 91 117.8 92.4 114.6 94 109.5 100 103.5"/>
        <polygon class="cls-109" points="113.7 83.1 127.2 83.3 116.6 78.3 115.9 78.3 113.7 83.1"/>
        <polygon class="cls-90" points="100.2 83.6 100.2 78.3 115.9 78.3 113.7 83.1 100.2 83.6"/>
        <polygon class="cls-90" points="100.2 83.6 100.2 78.3 84.4 78.3 86.6 83.1 100.2 83.6"/>
        <polygon class="cls-13" points="100.2 74.5 100.2 78.3 115.9 78.3 123.8 64.3 100.2 74.5"/>
        <polygon class="cls-109" points="115.9 78.3 127.5 83.4 123.8 64.3 115.9 78.3"/>
        <path class="cls-103" d="M127.5,83.4l.8-7.9-.5-5.5-2-7.9-2,2.2,3.6,19.1s0,0,0,0h0Z"/>
        <polygon class="cls-30" points="137.4 104.1 141 104.3 129.5 68 127.7 58.6 125.8 62 127.8 70 128.3 75.8 131.4 88.1 137 102 137.4 104.1"/>
        <polygon class="cls-7" points="140.9 104.5 145 105.3 136 80.8 132.5 72.3 127.7 58.7 129.5 68.2 140.9 104.5"/>
        <polygon class="cls-33" points="130.3 87.5 127.5 83.4 128.3 75.5 130.3 82.4 131.5 88.8 130.3 87.5"/>
        <polygon class="cls-55" points="145 105.4 146.2 106.5 154.7 109.4 149.8 100.7 138 81.6 127.7 58.7 132.7 72.8 145 105.4"/>
        <polygon class="cls-70" points="154.7 108.4 143.4 85.9 127.7 58.7 138 81.6 154.7 109.5 154.7 108.4"/>
        <polygon class="cls-53" points="154.6 108.4 154.9 104.7 150.7 91.9 147 83.7 127.6 58.6 127.7 58.7 154.6 108.4"/>
        <polygon class="cls-96" points="154.9 104.7 157.2 96.5 147 83.7 154.9 104.7"/>
        <polygon class="cls-30" points="157.2 96.5 151.7 84.1 146.3 73.8 127.7 58.6 143.7 79.6 157.2 96.5"/>
        <polygon class="cls-96" points="146.3 73.8 140 62.6 129.5 59.2 127.7 58.6 146.3 73.8"/>
        <polygon class="cls-95" points="157.2 96.5 153.9 85 144.6 61.3 140 59.2 129.5 59.2 140 62.6 146.3 73.8 157.2 96.5"/>
        <polygon class="cls-30" points="135.7 55.5 127.5 58.6 129.5 59.2 140.4 59.4 135.7 55.5"/>
        <polygon class="cls-96" points="133.2 53.6 127.6 57.8 127.6 58.6 135.5 55.6 133.2 53.6"/>
        <path class="cls-97" d="M127.7,58l-5.7-5.2-21.9-11.7s26.2,8.9,26.7,8.9,5.9,3.3,5.9,3.3l.6.2-5.7,4.4h0Z"/>
        <polygon class="cls-30" points="123.8 64.3 125.8 62.1 127.7 58.7 127.6 58 121.7 63.3 79.4 79.8 100.2 74.5 123.8 64.3"/>
        <polygon class="cls-49" points="127.7 58 121.7 63.3 96.1 74 79.4 79.8 78.2 79.5 125.4 58.6 127.7 58"/>
        <path class="cls-30" d="M59.4,104.3l7.1-20.5,5-18.6v-2.9l.8,1.4-.8,12.4-1.7,6.1-1.8,6.1-6.7,14.3-1.9,1.9s0,0,0,0h0Z"/>
        <polygon class="cls-65" points="54.7 105.3 59.5 104.4 66.4 84.1 71.5 65.2 71.5 62.2 54.7 105.3"/>
        <polygon class="cls-90" points="87.5 83.3 85.8 79.5 88.3 78.8 101.1 78.5 101.2 83.9 87.5 83.3"/>
        <polygon class="cls-9" points="73 83.3 84.9 79.3 87.3 78.5 100.2 78.3 100.2 74.5 87 77.9 79.2 79.6 73 83.3"/>
        <polygon class="cls-55" points="45.6 109.3 60.6 84.6 68 69.2 71.5 62.2 54.2 106.4 45.6 109.3"/>
        <polygon class="cls-70" points="45.6 109.3 61 83.8 71.5 62 61.7 77.3 52.8 93.8 45.6 109.3"/>
        <polygon class="cls-55" points="45.6 109.3 46 102.5 47.6 96.2 52.3 85.6 71.5 62 45.6 109.3"/>
        <polygon class="cls-53" points="45.8 106.4 42.8 96.2 55.8 81.3 45.8 106.4"/>
        <polygon class="cls-53" points="42.8 96.2 56.9 77.3 71.5 62.2 55.6 81.9 42.8 96.2"/>
        <polygon class="cls-95" points="42.8 96.2 53.9 74.1 61.7 66.7 71.9 60.1 74.3 60.5 71.5 62.2 42.8 96.2"/>
        <polygon class="cls-95" points="71.6 75.3 84.1 62.2 72.3 63.6 71.6 75.3"/>
        <polygon class="cls-70" points="71.5 75.4 86.2 66.1 89.2 65.5 93.4 60.8 84.1 62.2 71.5 75.4"/>
        <polygon class="cls-53" points="71.5 79.3 87.4 71.3 96.4 66.9 111.4 60.8 117.6 58.7 125.4 58.6 119.7 61.1 97.8 70.9 82.9 77.5 73 83.3 71.5 79.3"/>
        <polygon class="cls-55" points="71.6 75.3 72.8 74.2 86.2 66.1 88.6 65 90.5 64 89.3 67.1 87.4 71.3 71.5 79.3 71 78 71.6 75.3"/>
        <polygon class="cls-53" points="93.4 60.8 102.6 59.7 117.6 58.7 87.4 71.3 89.3 67.1 90.5 64 93.4 60.8"/>
        <polygon class="cls-95" points="127.7 58 124.8 56.2 122 54.4 104.1 45.3 100.2 41.1 122 52.8 127.7 58"/>
        <polygon class="cls-55" points="71.9 60.1 80.1 59.4 85.2 57.5 97.7 55.5 120 56.3 127.7 58 125.4 58.6 116.8 59 100.2 60 93 60.9 84.1 62.2 72.3 63.6 71.5 62.2 74.3 60.5 71.9 60.1"/>
        <polygon class="cls-7" points="57.3 60.5 63.1 56.9 69.2 52.1 83.8 46.1 100.2 41.1 100.1 45.1 57.3 60.5"/>
        <polygon class="cls-53" points="100.1 45.1 101.5 47.5 116.7 53.6 127.7 58 122.2 54.3 104.3 45.3 100.2 41.1 100.1 45.1"/>
        <polygon class="cls-53" points="42.8 96.2 49.3 76.2 55.8 61.4 57.3 60.5 69.6 57.1 74.6 57.1 70.8 60.8 53.9 74.1 42.8 96.2"/>
        <polygon class="cls-70" points="112.6 52 86.9 52.2 78.8 53.8 69.9 57.1 55.8 61.4 69.6 56.1 100.1 45.1 101.5 47.5 112.6 52"/>
        <polygon class="cls-95" points="71.9 60.1 77.4 56.8 86.6 54.7 97.4 55.5 84.1 57.9 80.1 59.4 71.9 60.1"/>
        <polygon class="cls-7" points="70.8 60.8 77.4 56.8 86.9 54.7 96.9 55.5 120 56.3 127.7 58 112.6 52 86.9 52.2 78.8 53.8 69.6 57.1 74.6 57.1 70.8 60.8"/>
        <polygon class="cls-70" points="77.8 51.1 92.1 47.1 97.4 46.1 69.3 56.2 55.8 61.4 63.4 57.1 77.8 51.1"/>
        <polygon class="cls-7" points="145 78.9 139.7 72.3 133.4 64.3 127.7 58.7 143.7 79.6 157.2 96.5 155.6 93.1 145 78.9"/>
        <polygon class="cls-94" points="100.3 156.3 100.3 170.9 89.1 170 100.3 156.3"/>
        <polygon class="cls-61" points="93.6 156.3 100.3 156.3 89.1 170 93.6 156.3"/>
        <polygon class="cls-89" points="93.6 156.3 89.1 170 84.1 168.1 93.6 156.3"/>
        <polygon class="cls-51" points="86.6 149 84.1 168.1 93.6 156.3 86.6 149"/>
        <polygon class="cls-76" points="77.5 155.7 79.8 155.7 86.6 149 84.1 168.1 77.5 155.7"/>
        <polygon class="cls-34" points="79.9 150.1 79.9 151.3 77.5 155.7 79.8 155.7 86.6 149 79.9 150.1"/>
        <polygon class="cls-58" points="95.2 151.4 86.6 149 93.6 156.3 95.2 151.4"/>
        <polygon class="cls-23" points="100.3 152.4 95.2 151.4 93.6 156.3 100.3 152.4"/>
        <polygon class="cls-78" points="100.3 156.3 100.3 152.4 93.6 156.3 100.3 156.3"/>
        <polygon class="cls-11" points="100.3 149 86.6 149 95.2 151.4 100.3 152.4 100.3 152.4 100.3 149"/>
        <polygon class="cls-80" points="86.6 147.4 79.9 150.1 86.6 149 86.6 147.4"/>
        <polygon class="cls-75" points="92.8 134.1 86.6 147.4 92.8 145.5 92.8 134.1"/>
        <polygon class="cls-57" points="92.8 134.1 92.8 145.5 100.2 143.3 92.8 134.1"/>
        <polygon class="cls-51" points="100.2 133.3 92.8 134.1 100.2 143.3 100.2 133.3"/>
        <polygon class="cls-40" points="87.3 129.4 92.8 134.1 86.6 147.4 87.3 129.4"/>
        <polygon class="cls-112" points="87.3 129.4 86.6 147.4 79.9 150.1 87.3 129.4"/>
        <polygon class="cls-100" points="90.5 132.1 92.8 134.1 100.2 133.3 90.5 132.1"/>
        <polygon class="cls-59" points="94.7 127.8 90.5 132.1 100.2 133.3 94.7 127.8"/>
        <polygon class="cls-22" points="100.2 127.8 94.7 127.8 100.2 133.3 100.2 127.8"/>
        <polygon class="cls-93" points="87.3 129.4 90.5 132.1 94.7 127.8 87.3 129.4"/>
        <polygon class="cls-21" points="92.8 123.4 94.7 127.8 87.3 129.4 92.8 123.4"/>
        <polygon class="cls-29" points="91 120.7 92.8 123.4 87.3 129.4 91 120.7"/>
        <polygon class="cls-28" points="100.1 103.7 94.7 127.8 100.2 127.8 100.1 103.7"/>
        <polygon class="cls-8" points="100 103.6 94.7 127.8 92.8 123.4 100 103.6"/>
        <polygon class="cls-20" points="100 103.5 92.8 123.4 91 120.7 100 103.5"/>
        <polygon class="cls-73" points="73.4 138.4 91 120.7 73 163.6 73.4 138.4"/>
        <path class="cls-63" d="M73,163.6l6.9-12.3v-1.2l7.5-20.7,3.7-8.7-11,21.8c-2.1,5.2-4.1,10.4-6.2,15.6-.3,1.8-.6,3.7-.9,5.5h0Z"/>
        <polygon class="cls-42" points="69.5 148.6 73.4 138.4 73 163.6 69.5 148.6"/>
        <polygon class="cls-77" points="64.5 156.3 73 163.6 69.5 148.6 60.6 118.7 61.2 139.8 64.5 156.3"/>
        <polygon class="cls-98" points="73.4 138.4 69.5 148.6 60.6 118.7 73.4 138.4"/>
        <polygon class="cls-113" points="73.4 123.4 73.4 138.4 82.6 123.4 73.4 123.4"/>
        <polygon class="cls-19" points="68.1 120.7 73.4 123.4 73.4 138.4 60.6 118.7 68.1 120.7"/>
        <polygon class="cls-12" points="91 117.8 88.1 120.7 82.6 123.4 73.4 138.4 91 120.7 91 117.8"/>
        <polygon class="cls-32" points="64.8 116.9 60.6 118.7 68.1 120.7 64.8 116.9"/>
        <polygon class="cls-43" points="59.2 106.4 62.7 106.4 62.8 112.5 64.8 116.9 60.6 118.7 59.2 106.4"/>
        <polygon class="cls-44" points="79.9 116.9 74.1 122.3 79.9 122.3 79.9 116.9"/>
        <polygon class="cls-101" points="87.3 112 79.9 116.9 79.9 122.3 82 122.3 87.3 112"/>
        <polygon class="cls-91" points="91 109.1 92.8 109.1 90.1 116.9 87.3 119.6 82 122.3 87.3 112 91 109.1"/>
        <polygon class="cls-37" points="72.3 114 69 119.6 74.1 122.3 72.3 114"/>
        <polygon class="cls-31" points="75.9 115.7 72.3 114 74.1 122.3 79.9 116.9 75.9 115.7"/>
        <polygon class="cls-21" points="66 116.9 69 119.6 72.3 114 66 116.9"/>
        <polygon class="cls-25" points="63.9 112 66 116.9 72.3 114 69.5 109.5 63.9 112"/>
        <polygon class="cls-60" points="72.3 114 75.9 115.7 79.9 116.9 77.5 113.2 72.3 114"/>
        <polygon class="cls-41" points="72.3 107.7 69.5 109.5 72.3 114 76.1 110 72.3 107.7"/>
        <polygon class="cls-4" points="79.9 110.8 76.1 110 72.3 114 77.5 113.2 79.9 116.9 79.9 110.8"/>
        <polygon class="cls-110" points="85.5 110 79.9 110.8 79.9 116.9 85.5 110"/>
        <polygon class="cls-79" points="85.5 110 79.9 116.9 87.3 112 89.9 110 85.5 110"/>
        <polygon class="cls-14" points="57.6 147.4 53.3 141.2 54.2 139.8 62.7 147.4 57.6 147.4"/>
        <polygon class="cls-47" points="62.7 147.4 54.2 139.8 61.4 140.8 62.7 147.4"/>
        <polygon class="cls-48" points="49.6 130.9 53.3 141.2 54.2 139.8 61.4 140.8 49.6 130.9"/>
        <polygon class="cls-18" points="51.1 127.2 49.6 130.9 61.4 140.8 60 134 51.1 127.2"/>
        <polygon class="cls-84" points="57 123.4 51.1 127.2 60 134 61.4 140.8 60.6 118.7 57 123.4"/>
        <polygon class="cls-3" points="53.3 118.2 51.1 127.2 57 123.4 53.3 118.2"/>
        <polygon class="cls-114" points="57.4 106.4 53.3 118.2 57 123.4 60.6 118.7 59.2 106.4 57.4 106.4"/>
        <polygon class="cls-16" points="48 120.3 49.6 130.9 51.1 127.2 52.6 120.7 48 120.3"/>
        <polygon class="cls-48" points="50.3 114.9 48 120.3 52.6 120.7 53.3 118.2 57.4 106.4 54.2 106.4 50.3 114.9"/>
        <polygon class="cls-104" points="50.3 109.1 45.6 113.2 48 120.3 50.8 114 50.3 109.1"/>
        <polygon class="cls-72" points="44.4 112 45.6 113.2 48 120.3 49.6 130.9 44.4 120.3 44.4 112"/>
        <polygon class="cls-105" points="48 108.4 44.4 112 45.6 113.2 50.3 109.1 48 108.4"/>
        <polygon class="cls-68" points="69.9 103.4 69.9 106.9 63.9 105.7 69.9 103.4"/>
        <polygon class="cls-99" points="67 99.2 69.9 103.4 63.9 105.7 64.4 102.5 67 99.2"/>
        <polygon class="cls-35" points="74.1 96.8 69.9 103.4 67 99.2 69.2 97.4 74.1 96.8"/>
        <polygon class="cls-17" points="66.8 109.5 69.9 106.9 63.9 105.7 63.9 111.4 66.8 109.5"/>
        <polygon class="cls-92" points="79.4 99.2 69.9 103.4 69.9 106.9 79.4 99.2"/>
        <polygon class="cls-24" points="78 96.8 74.1 96.8 69.9 103.4 78 96.8"/>
        <polygon class="cls-69" points="79.9 96.8 78 96.8 69.9 103.4 79.4 99.2 79.9 96.8"/>
        <polygon class="cls-88" points="79.4 102.5 79.4 99.2 66.8 109.5 79.4 102.5"/>
        <polygon class="cls-106" points="85.5 103.4 82 101 79.4 99.2 79.4 102.5 85.5 103.4"/>
        <polygon class="cls-62" points="88.1 98.2 79.9 96.8 79.4 99.2 85.5 103.4 87.3 99.7 88.1 98.2"/>
        <polygon class="cls-54" points="87.3 99.7 85.5 103.4 91 109.1 87.3 99.7"/>
        <polygon class="cls-1" points="89.9 102.5 88.1 98.2 87.3 99.7 91 109.1 89.9 102.5"/>
        <polygon class="cls-81" points="92.8 103 88.1 98.2 89.9 102.5 91 109.1 92.8 109.1 92.8 103"/>
        <polygon class="cls-6" points="77.3 108.8 76.1 110 72.3 107.7 77.3 108.8"/>
        <polygon class="cls-10" points="80 109.3 79.9 110.8 76.1 110 77.3 108.8 80 109.3"/>
        <polygon class="cls-56" points="86.3 108.6 80 109.3 79.9 110.8 85.5 110 86.3 108.6"/>
        <polygon class="cls-64" points="86.3 108.6 85.5 110 89.9 110 91 109.1 86.3 108.6"/>
        <path class="cls-39" d="M61.7,101.7l5.1-5.5,6.2-12.8s0,0,0,0l-4.9,4.8-6.3,13.6h0Z"/>
        <polygon class="cls-26" points="59.5 104.4 62.7 104.1 63 102.2 66.3 98.6 69 96.7 75.4 95.8 74.6 88.8 73 83.3 66.8 96.2 61.7 101.9 59.5 104.4"/>
        <polygon class="cls-74" points="75.4 95.8 88.6 97.3 74.6 88.8 75.4 95.8"/>
        <polygon class="cls-102" points="74.6 88.8 77.8 88.7 92.3 91.9 88.2 97.1 74.6 88.8"/>
        <polygon class="cls-50" points="88.2 97.1 89.9 98.5 94.7 98.8 95.9 97.9 92.3 91.9 88.2 97.1"/>
        <polygon class="cls-48" points="74.6 88.8 73 83.3 86.6 83.1 92.3 91.9 74.6 88.8"/>
        <polygon class="cls-94" points="95.9 97.9 100.2 83.6 86.6 83.1 95.9 97.9"/>
        <polygon class="cls-21" points="96.9 97.9 100.2 96.1 100.2 101.7 96.4 102.8 96.9 97.9"/>
        <polygon class="cls-86" points="95.9 97.9 96.9 97.9 100.2 96.1 100.2 83.6 95.9 97.9"/>
        <polygon class="cls-2" points="93.9 103.6 96.4 102.8 96.9 97.9 95.9 97.9 94.7 98.8 88.2 97.1 90.4 99.2 92.1 100.3 93.9 103.6"/>
        <polygon class="cls-95" points="68 88.1 73 83.3 71 78 68 88.1"/>
        <polygon class="cls-52" points="84.9 79.3 73 83.3 86.6 83.1 84.9 79.3"/>
        <polygon class="cls-45" points="94.7 112.4 94.7 110.9 94.3 110 94 109.5 94.1 105.3 97.3 104.1 100 103.5 94.7 112.4"/>
        <polygon class="cls-36" points="94.7 112.4 92.4 114.6 91 117.8 91 120.5 99.1 105.3 94.7 112.4"/>
        <polygon class="cls-111" points="50.3 109.1 51.6 106.9 54.2 106.4 50.8 113.7 50.3 109.1"/>
        <polygon class="cls-107" points="48 108.4 51.6 106.9 50.3 109.1 48 108.4"/>
        <polygon class="cls-5" points="73 163.6 77.5 155.7 84.1 168.1 73 163.6"/>
        <polygon class="cls-46" points="57.4 115.2 58 106.4 59.2 106.4 60.6 118.7 57 123.4 57.4 115.2"/>
        <path class="cls-83" d="M96.4,102.8l-2.6.8-1.8-3.2-1.7-1.2-1.8-1.9-13.2-1.5-6.4.9-2.7,1.9-3.3,3.6v1.9c.1,0-1.8.1-1.8.1h-1.7c0,.1-4.8,1.1-4.8,1.1l-.4,1.1h8.5v6.1s2.1,4.4,2.1,4.4l3.2,3.7,5.3,2.7h9.2l5.5-2.7,2.9-2.9,1.4-3.2,1.6-5.2v-4.2c.1,0,2.9-1.1,2.9-1.1l3.2-.8v-1.7s-3.7,1.1-3.7,1.1h0ZM92.8,109.1l-2.7,7.9-2.7,2.7-5.3,2.7-7.9.3-5.1-2.8-2.9-2.9-2.2-4.9v-6.3l.5-3.3,2.7-3.3,2.2-1.8,4.9-.6h5.8l8.3,1.4,4.7,4.9v6h0Z"/>
        <polygon class="cls-88" points="72.3 107.7 76.6 105.1 78.9 104.1 82.7 104.1 85.9 105.9 88.6 108.7 86.3 108.6 80 109.3 77.3 108.8 72.3 107.7"/>
        <polygon class="cls-83" points="92.4 114.6 94.7 112.4 94.7 110.9 94 109.5 92.4 114.6"/>
        <polygon class="cls-67" points="85.5 103.4 79.4 102.5 72.3 106.4 72.3 107.7 72.3 107.7 76.5 105.2 78.9 104.1 82.7 104.1 85.9 105.9 88.6 108.7 91 109.1 85.5 103.4"/>
        <polygon class="cls-59" points="77.7 108.8 76.6 106.2 76.6 105.1 78.9 104.1 82.7 104.1 83.4 104.5 83.6 106.1 82.2 109.1 80 109.3 77.7 108.8"/>
        <polygon class="cls-88" points="78 105.2 77.7 104.6 78.9 104.1 82.7 104.1 80.2 105.5 78 105.2"/>
        <polygon class="cls-102" points="80 109.3 78 105.2 77 105.9 78.8 107.5 80 109.3"/>
        <polygon class="cls-66" points="86.6 149 86.6 147.4 79.9 150.1 86.6 149"/>
        <polygon class="cls-71" points="93.1 145.5 93.1 148.2 86.6 149 86.6 147.4 93.1 145.5"/>
        <polygon class="cls-38" points="100.3 143.3 100.3 147.2 93.1 148.2 93.1 145.5 100.3 143.3"/>
        <polygon class="cls-85" points="100.3 149 100.3 147.2 93.1 148.2 86.6 149 100.3 149"/>
        <polygon class="cls-94" points="100 156.3 100 170.9 111.2 170 100 156.3"/>
        <polygon class="cls-61" points="106.7 156.3 100 156.3 111.2 170 106.7 156.3"/>
        <polygon class="cls-89" points="106.7 156.3 111.2 170 116.2 168.1 106.7 156.3"/>
        <polygon class="cls-51" points="113.8 149 116.2 168.1 106.7 156.3 113.8 149"/>
        <polygon class="cls-76" points="122.8 155.7 120.6 155.7 113.8 149 116.2 168.1 122.8 155.7"/>
        <polygon class="cls-34" points="120.5 150.1 120.5 151.3 122.8 155.7 120.6 155.7 113.8 149 120.5 150.1"/>
        <polygon class="cls-58" points="105.1 151.4 113.8 149 106.7 156.3 105.1 151.4"/>
        <polygon class="cls-23" points="100 152.4 105.1 151.4 106.7 156.3 100 152.4"/>
        <polygon class="cls-78" points="100 156.3 100 152.4 106.7 156.3 100 156.3"/>
        <polygon class="cls-11" points="100 149 113.8 149 105.1 151.4 100 152.4 100 152.4 100 149"/>
        <polygon class="cls-80" points="113.8 147.4 120.5 150.1 113.8 149 113.8 147.4"/>
        <polygon class="cls-75" points="107.5 134.1 113.8 147.4 107.5 145.5 107.5 134.1"/>
        <polygon class="cls-57" points="107.5 134.1 107.5 145.5 100.1 143.3 107.5 134.1"/>
        <polygon class="cls-51" points="100.1 133.3 107.5 134.1 100.1 143.3 100.1 133.3"/>
        <polygon class="cls-40" points="113 129.4 107.5 134.1 113.8 147.4 113 129.4"/>
        <polygon class="cls-112" points="113 129.4 113.8 147.4 120.5 150.1 113 129.4"/>
        <polygon class="cls-100" points="109.9 132.1 107.5 134.1 100.1 133.3 109.9 132.1"/>
        <polygon class="cls-59" points="105.6 127.8 109.9 132.1 100.1 133.3 105.6 127.8"/>
        <polygon class="cls-22" points="100.1 127.8 105.6 127.8 100.1 133.3 100.1 127.8"/>
        <polygon class="cls-93" points="113 129.4 109.9 132.1 105.6 127.8 113 129.4"/>
        <polygon class="cls-21" points="107.5 123.4 105.6 127.8 113 129.4 107.5 123.4"/>
        <polygon class="cls-29" points="109.3 120.7 107.5 123.4 113 129.4 109.3 120.7"/>
        <polygon class="cls-28" points="100.2 103.7 105.6 127.8 100.1 127.8 100.2 103.7"/>
        <polygon class="cls-8" points="100.3 103.6 105.6 127.8 107.5 123.4 100.3 103.6"/>
        <polygon class="cls-20" points="100.3 103.5 107.5 123.4 109.3 120.7 100.3 103.5"/>
        <polygon class="cls-73" points="126.9 138.4 109.3 120.7 127.3 163.6 126.9 138.4"/>
        <path class="cls-63" d="M127.3,163.6l-6.9-12.3v-1.2l-7.5-20.7-3.7-8.7c3.7,7.3,7.3,14.6,11,21.8,2.1,5.2,4.1,10.4,6.2,15.6.3,1.8.6,3.7.9,5.5h0Z"/>
        <polygon class="cls-42" points="130.9 148.6 126.9 138.4 127.3 163.6 130.9 148.6"/>
        <polygon class="cls-77" points="135.8 156.3 127.3 163.6 130.9 148.6 139.7 118.7 139.1 139.8 135.8 156.3"/>
        <polygon class="cls-98" points="126.9 138.4 130.9 148.6 139.7 118.7 126.9 138.4"/>
        <polygon class="cls-113" points="126.9 123.4 126.9 138.4 117.7 123.4 126.9 123.4"/>
        <polygon class="cls-19" points="132.2 120.7 126.9 123.4 126.9 138.4 139.7 118.7 132.2 120.7"/>
        <polygon class="cls-12" points="109.3 117.8 112.2 120.7 117.7 123.4 126.9 138.4 109.3 120.7 109.3 117.8"/>
        <polygon class="cls-32" points="135.5 116.9 139.7 118.7 132.2 120.7 135.5 116.9"/>
        <polygon class="cls-43" points="141.1 106.4 137.6 106.4 137.5 112.5 135.5 116.9 139.7 118.7 141.1 106.4"/>
        <polygon class="cls-44" points="120.5 116.9 126.2 122.3 120.5 122.3 120.5 116.9"/>
        <polygon class="cls-101" points="113 112 120.5 116.9 120.5 122.3 118.3 122.3 113 112"/>
        <polygon class="cls-91" points="109.3 109.1 107.5 109.1 110.2 116.9 113 119.6 118.3 122.3 113 112 109.3 109.1"/>
        <polygon class="cls-37" points="128 114 131.4 119.6 126.2 122.3 128 114"/>
        <polygon class="cls-31" points="124.4 115.7 128 114 126.2 122.3 120.5 116.9 124.4 115.7"/>
        <polygon class="cls-21" points="134.3 116.9 131.4 119.6 128 114 134.3 116.9"/>
        <polygon class="cls-25" points="136.5 112 134.3 116.9 128 114 130.9 109.5 136.5 112"/>
        <polygon class="cls-60" points="128 114 124.4 115.7 120.5 116.9 122.8 113.2 128 114"/>
        <polygon class="cls-41" points="128 107.7 130.9 109.5 128 114 124.2 110 128 107.7"/>
        <polygon class="cls-4" points="120.5 110.8 124.2 110 128 114 122.8 113.2 120.5 116.9 120.5 110.8"/>
        <polygon class="cls-110" points="114.9 110 120.5 110.8 120.5 116.9 114.9 110"/>
        <polygon class="cls-79" points="114.9 110 120.5 116.9 113 112 110.4 110 114.9 110"/>
        <polygon class="cls-14" points="142.8 147.4 147.1 141.2 146.1 139.8 137.6 147.4 142.8 147.4"/>
        <polygon class="cls-47" points="137.6 147.4 146.1 139.8 138.9 140.8 137.6 147.4"/>
        <polygon class="cls-48" points="150.7 130.9 147.1 141.2 146.1 139.8 138.9 140.8 150.7 130.9"/>
        <polygon class="cls-18" points="149.2 127.2 150.7 130.9 138.9 140.8 140.3 134 149.2 127.2"/>
        <polygon class="cls-84" points="143.3 123.4 149.2 127.2 140.3 134 138.9 140.8 139.7 118.7 143.3 123.4"/>
        <polygon class="cls-3" points="147.1 118.2 149.2 127.2 143.3 123.4 147.1 118.2"/>
        <polygon class="cls-114" points="143 106.4 147.1 118.2 143.3 123.4 139.7 118.7 141.1 106.4 143 106.4"/>
        <polygon class="cls-16" points="152.3 120.3 150.7 130.9 149.2 127.2 147.7 120.7 152.3 120.3"/>
        <polygon class="cls-48" points="150 114.9 152.3 120.3 147.7 120.7 147.1 118.2 143 106.4 146.1 106.4 150 114.9"/>
        <polygon class="cls-104" points="150 109.1 154.7 113.2 152.3 120.3 149.6 114 150 109.1"/>
        <polygon class="cls-72" points="155.9 112 154.7 113.2 152.3 120.3 150.7 130.9 155.9 120.3 155.9 112"/>
        <polygon class="cls-105" points="152.3 108.5 155.9 112 154.7 113.2 150 109.1 152.3 108.5"/>
        <polygon class="cls-68" points="130.5 103.4 130.5 106.9 136.5 105.7 130.5 103.4"/>
        <polygon class="cls-99" points="133.3 99.2 130.5 103.4 136.5 105.7 136 102.5 133.3 99.2"/>
        <polygon class="cls-35" points="126.2 96.8 130.5 103.4 133.3 99.2 131.2 97.4 126.2 96.8"/>
        <polygon class="cls-17" points="133.5 109.5 130.5 106.9 136.5 105.7 136.5 111.4 133.5 109.5"/>
        <polygon class="cls-92" points="120.9 99.2 130.5 103.4 130.5 106.9 120.9 99.2"/>
        <polygon class="cls-24" points="122.3 96.8 126.2 96.8 130.5 103.4 122.3 96.8"/>
        <polygon class="cls-69" points="120.5 96.8 122.3 96.8 130.5 103.4 120.9 99.2 120.5 96.8"/>
        <polygon class="cls-88" points="120.9 102.5 120.9 99.2 133.5 109.5 120.9 102.5"/>
        <polygon class="cls-106" points="114.9 103.4 118.3 101 120.9 99.2 120.9 102.5 114.9 103.4"/>
        <polygon class="cls-62" points="112.2 98.2 120.5 96.8 120.9 99.2 114.9 103.4 113 99.7 112.2 98.2"/>
        <polygon class="cls-54" points="113 99.7 114.9 103.4 109.3 109.1 113 99.7"/>
        <polygon class="cls-1" points="110.4 102.5 112.2 98.2 113 99.7 109.3 109.1 110.4 102.5"/>
        <polygon class="cls-81" points="107.5 103 112.2 98.2 110.4 102.5 109.3 109.1 107.5 109.1 107.5 103"/>
        <polygon class="cls-6" points="123.1 108.8 124.2 110 128 107.7 123.1 108.8"/>
        <polygon class="cls-10" points="120.4 109.3 120.5 110.8 124.2 110 123.1 108.8 120.4 109.3"/>
        <polygon class="cls-56" points="114 108.6 120.4 109.3 120.5 110.8 114.9 110 114 108.6"/>
        <polygon class="cls-64" points="114 108.6 114.9 110 110.4 110 109.3 109.1 114 108.6"/>
        <path class="cls-39" d="M138.6,101.7l-5.1-5.5-6.2-12.8s0,0,0,0l4.9,4.8,6.3,13.6h0Z"/>
        <polygon class="cls-26" points="140.8 104.4 137.6 104.1 137.4 102.2 134 98.6 131.4 96.7 125 95.8 125.7 88.8 127.3 83.3 133.5 96.2 138.7 101.9 140.8 104.4"/>
        <polygon class="cls-74" points="125 95.8 111.7 97.3 125.7 88.8 125 95.8"/>
        <polygon class="cls-102" points="125.7 88.8 122.6 88.7 108.1 91.9 112.1 97.1 125.7 88.8"/>
        <polygon class="cls-50" points="112.1 97.1 110.4 98.5 105.6 98.8 104.4 97.9 108.1 91.9 112.1 97.1"/>
        <polygon class="cls-48" points="125.7 88.8 127.3 83.3 113.8 83.1 108.1 91.9 125.7 88.8"/>
        <polygon class="cls-94" points="104.4 97.9 100.1 83.6 113.8 83.1 104.4 97.9"/>
        <polygon class="cls-21" points="103.4 97.9 100.2 96.1 100.1 101.7 103.9 102.8 103.4 97.9"/>
        <polygon class="cls-86" points="104.4 97.9 103.4 97.9 100.2 96.1 100.1 83.6 104.4 97.9"/>
        <polygon class="cls-2" points="106.4 103.6 103.9 102.8 103.4 97.9 104.4 97.9 105.6 98.8 112.1 97.1 110 99.2 108.3 100.3 106.4 103.6"/>
        <polygon class="cls-82" points="132.3 88.1 127.3 83.3 129.4 78 132.3 88.1"/>
        <polygon class="cls-52" points="115.3 79.3 127.3 83.3 113.5 83.1 115.3 79.3"/>
        <polygon class="cls-45" points="105.7 112.4 105.6 110.9 106 110 106.3 109.5 106.2 105.3 103 104.1 100.3 103.5 105.7 112.4"/>
        <polygon class="cls-36" points="105.7 112.4 108 114.6 109.3 117.8 109.3 120.5 101.3 105.3 105.7 112.4"/>
        <polygon class="cls-111" points="150 109.1 148.7 106.9 146.1 106.4 149.6 113.7 150 109.1"/>
        <polygon class="cls-107" points="152.3 108.5 148.7 106.9 150 109.1 152.3 108.5"/>
        <polygon class="cls-5" points="127.3 163.6 122.8 155.7 116.2 168.1 127.3 163.6"/>
        <polygon class="cls-46" points="143 115.2 142.3 106.4 141.1 106.4 139.7 118.7 143.3 123.4 143 115.2"/>
        <path class="cls-83" d="M100.1,101.7v1.7s3.3.8,3.3.8l2.8,1.1v4.2c.1,0,1.8,5.2,1.8,5.2l1.4,3.2,2.9,2.9,5.5,2.7h9.2l5.3-2.7,3.2-3.7,2.1-4.4v-6.1h8.5l-.4-1.1-4.8-.9h-1.7c0-.1-1.9-.3-1.9-.3v-1.9c.1,0-3.2-3.6-3.2-3.6l-2.7-1.9-6.4-.9-13.2,1.5-1.8,1.9-1.7,1.2-1.8,3.2-2.6-.8-3.8-1.1h0ZM107.5,103l4.7-4.9,8.3-1.4h5.8l4.9.6,2.2,1.8,2.7,3.3.5,3.3v6.3l-2.2,4.9-2.9,2.9-5.1,2.8-7.9-.3-5.3-2.7-2.7-2.7-2.7-7.9v-6h0Z"/>
        <polygon class="cls-88" points="128 107.7 123.7 105.1 121.4 104.1 117.7 104.1 114.5 105.9 111.7 108.7 114 108.6 120.4 109.3 123.1 108.8 128 107.7"/>
        <polygon class="cls-83" points="108 114.6 105.7 112.4 105.6 110.9 106.3 109.5 108 114.6"/>
        <polygon class="cls-67" points="128.1 106.4 120.9 102.5 114.9 103.4 109.3 109.1 111.7 108.7 114.5 105.9 117.7 104.1 121.4 104.1 123.8 105.2 128 107.7 128.1 107.7 128.1 106.4"/>
        <polygon class="cls-59" points="122.6 108.8 123.7 106.2 123.7 105.1 121.4 104.1 117.7 104.1 116.9 104.5 116.7 106.1 118.1 109.1 120.4 109.3 122.6 108.8"/>
        <polygon class="cls-88" points="122.3 105.2 122.6 104.6 121.4 104.1 117.7 104.1 120.1 105.5 122.3 105.2"/>
        <polygon class="cls-102" points="120.4 109.3 122.3 105.2 123.4 105.9 121.5 107.5 120.4 109.3"/>
        <polygon class="cls-66" points="113.8 149 113.8 147.4 120.5 150.1 113.8 149"/>
        <polygon class="cls-71" points="107.2 145.5 107.2 148.2 113.8 149 113.8 147.4 107.2 145.5"/>
        <polygon class="cls-38" points="100.1 143.3 100.1 147.2 107.2 148.2 107.2 145.5 100.1 143.3"/>
        <polygon class="cls-85" points="100.1 149 100.1 147.2 107.2 148.2 113.8 149 100.1 149"/>
        <polygon class="cls-92" points="133.6 109.5 128.5 106.6 128 106.4 128 107.7 130.9 109.5 136.5 112 136.5 111.4 133.6 109.5"/>
        <polygon class="cls-92" points="66.8 109.5 71.9 106.6 72.3 106.4 72.3 107.6 69.5 109.5 63.9 112 63.9 111.4 66.8 109.5"/>
      </g>
    </g>
  </g>
</svg>