<svg width="101" height="100" viewBox="0 0 101 100" fill="none" xmlns="http://www.w3.org/2000/svg">
<path fill-rule="evenodd" clip-rule="evenodd" d="M51.5417 15.625C32.5555 15.625 17.1667 31.0137 17.1667 50C17.1667 68.9825 32.5557 84.375 51.5417 84.375C70.528 84.375 85.9167 68.9825 85.9167 50C85.9167 31.0137 70.528 15.625 51.5417 15.625ZM10.9167 50C10.9167 27.562 29.1037 9.375 51.5417 9.375C73.9797 9.375 92.1667 27.562 92.1667 50C92.1667 72.4337 73.9801 90.625 51.5417 90.625C29.1035 90.625 10.9167 72.4337 10.9167 50Z" fill="white"/>
<path fill-rule="evenodd" clip-rule="evenodd" d="M51.5417 9.375C53.2676 9.375 54.6667 10.7741 54.6667 12.5V19.2581C54.6667 20.984 53.2676 22.3831 51.5417 22.3831C49.8159 22.3831 48.4167 20.984 48.4167 19.2581V12.5C48.4167 10.7741 49.8159 9.375 51.5417 9.375ZM10.9167 50C10.9167 48.2742 12.3159 46.875 14.0417 46.875H20.7999C22.5257 46.875 23.9249 48.2742 23.9249 50C23.9249 51.7258 22.5257 53.125 20.7999 53.125H14.0417C12.3159 53.125 10.9167 51.7258 10.9167 50ZM79.1626 50C79.1626 48.2742 80.5617 46.875 82.2876 46.875H89.0417C90.7676 46.875 92.1667 48.2742 92.1667 50C92.1667 51.7258 90.7676 53.125 89.0417 53.125H82.2876C80.5617 53.125 79.1626 51.7258 79.1626 50ZM51.5417 77.6208C53.2676 77.6208 54.6667 79.02 54.6667 80.7458V87.5C54.6667 89.2258 53.2676 90.625 51.5417 90.625C49.8159 90.625 48.4167 89.2258 48.4167 87.5V80.7458C48.4167 79.02 49.8159 77.6208 51.5417 77.6208Z" fill="white"/>
<path fill-rule="evenodd" clip-rule="evenodd" d="M50.1746 32.6094C51.9004 32.6094 53.2996 34.0085 53.2996 35.7344V51.037L65.0058 58.0328C66.4875 58.9183 66.9708 60.837 66.0854 62.3187C65.2 63.7999 63.2812 64.2833 61.7996 63.3978L48.5712 55.4924C47.6275 54.9283 47.0496 53.9099 47.0496 52.8099V35.7344C47.0496 34.0085 48.4487 32.6094 50.1746 32.6094Z" fill="white"/>
</svg>
