<svg width="20" height="20" viewBox="0 0 20 20" fill="none" xmlns="http://www.w3.org/2000/svg">
<path fill-rule="evenodd" clip-rule="evenodd" d="M9.76487 14.4923C9.36743 14.4923 9.04103 14.1698 9.04103 13.7723C9.04103 13.3749 9.35879 13.0523 9.75623 13.0523H9.76487C10.1623 13.0523 10.4849 13.3749 10.4849 13.7723C10.4849 14.1698 10.1623 14.4923 9.76487 14.4923ZM9.04007 6.67309C9.04007 6.27565 9.36263 5.95309 9.76007 5.95309C10.1575 5.95309 10.4801 6.27565 10.4801 6.67309V10.4123C10.4801 10.8098 10.1575 11.1323 9.76007 11.1323C9.36263 11.1323 9.04007 10.8098 9.04007 10.4123V6.67309ZM16.5377 8.26479L16.3341 7.90575C13.4676 2.80813 11.6858 0.913086 9.76007 0.913086C7.83431 0.913086 6.05253 2.80813 3.18597 7.90575L2.98341 8.26479C1.95333 10.0715 -0.187471 13.8299 0.209969 16.0725C0.678449 18.725 3.40965 19.1531 9.76007 19.1531C16.1114 19.1531 18.8426 18.725 19.3101 16.0725C19.7076 13.8299 17.5668 10.0715 16.5377 8.26479Z" fill="#FFC929"/>
</svg>
