<?xml version="1.0" encoding="UTF-8"?>
<svg xmlns="http://www.w3.org/2000/svg" version="1.1" viewBox="0 0 202 213">
  <defs>
    <style>
      .cls-1 {
        fill: #c97657;
      }

      .cls-2 {
        fill: #fcf3d8;
      }

      .cls-3 {
        fill: #f6cca6;
      }

      .cls-4 {
        fill: #f5dcc3;
      }

      .cls-5 {
        fill: #a16355;
      }

      .cls-6 {
        fill: #3b5f7a;
      }

      .cls-7 {
        fill: #613d3d;
      }

      .cls-8 {
        fill: #edab8f;
      }

      .cls-9 {
        fill: #e8a283;
      }

      .cls-10 {
        fill: #954d49;
      }

      .cls-11 {
        fill: #7f8f9e;
      }

      .cls-12 {
        fill: #0d0d13;
      }

      .cls-13 {
        fill: #cb9574;
      }

      .cls-14 {
        fill: #a44e47;
      }

      .cls-15 {
        fill: #d1d5db;
      }

      .cls-16 {
        fill: #f4cabb;
      }

      .cls-17 {
        fill: #e8cdaf;
      }

      .cls-18 {
        fill: #e4b08f;
      }

      .cls-19 {
        fill: #a55455;
      }

      .cls-20 {
        fill: #fdf2d9;
      }

      .cls-21 {
        fill: #f0b494;
      }

      .cls-22 {
        fill: #a2bdd1;
      }

      .cls-23 {
        fill: #3c475c;
      }

      .cls-24 {
        fill: #f9edd6;
      }

      .cls-25 {
        fill: #e5a789;
      }

      .cls-26 {
        fill: #29323f;
      }

      .cls-27 {
        fill: #ecbe9f;
      }

      .cls-28 {
        fill: #6a3a3e;
      }

      .cls-29 {
        fill: #442b38;
      }

      .cls-30 {
        fill: #131620;
      }

      .cls-31 {
        fill: #eca387;
      }

      .cls-32 {
        fill: #49617d;
      }

      .cls-33 {
        fill: #eec199;
      }

      .cls-34 {
        fill: #fff;
      }

      .cls-35 {
        fill: #804d46;
      }

      .cls-36 {
        fill: #afd5e5;
      }

      .cls-37 {
        fill: #ad7b73;
      }

      .cls-38 {
        fill: #512124;
      }

      .cls-39 {
        fill: #14151d;
      }

      .cls-40 {
        fill: #ae6452;
      }

      .cls-41 {
        fill: #3d4858;
      }

      .cls-42 {
        fill: #c29477;
      }

      .cls-43 {
        fill: #452233;
      }

      .cls-44 {
        fill: #0d0c11;
      }

      .cls-45 {
        fill: #ab594c;
      }

      .cls-46 {
        fill: #c5e1ec;
      }

      .cls-47 {
        fill: #1a2033;
      }

      .cls-48 {
        fill: #0f1115;
      }

      .cls-49 {
        fill: #b86d59;
      }

      .cls-50 {
        fill: #b4776c;
      }

      .cls-51 {
        fill: #8792a1;
      }

      .cls-52 {
        fill: #fac2a3;
      }

      .cls-53 {
        fill: #99acb8;
      }

      .cls-54 {
        fill: #353d58;
      }

      .cls-55 {
        fill: #eed8c6;
      }

      .cls-56 {
        fill: #f2d5a8;
      }

      .cls-57 {
        fill: #a46a5c;
      }

      .cls-58 {
        fill: #1b1e28;
      }

      .cls-59 {
        fill: #91a2af;
      }

      .cls-60 {
        fill: #111624;
      }

      .cls-61 {
        fill: #ad6454;
      }

      .cls-62 {
        fill: #f3fafc;
      }

      .cls-63 {
        fill: #8691a1;
      }

      .cls-64 {
        fill: #b1c6dc;
      }

      .cls-65 {
        fill: #fcf9fb;
      }

      .cls-66 {
        fill: #0e090f;
      }

      .cls-67 {
        fill: #97b8d3;
      }

      .cls-68 {
        fill: #fdf6e7;
      }

      .cls-69 {
        fill: #768496;
      }

      .cls-70 {
        fill: #a2b4c7;
      }

      .cls-71 {
        fill: #804438;
      }

      .cls-72 {
        fill: #401214;
      }

      .cls-73 {
        fill: #ce917b;
      }

      .cls-74 {
        fill: #f8e3d0;
      }

      .cls-75 {
        fill: #ebbc9a;
      }

      .cls-76 {
        fill: #fdfaec;
      }

      .cls-77 {
        fill: #a2bec7;
      }

      .cls-78 {
        fill: #fff7e7;
      }

      .cls-79 {
        fill: #213265;
      }

      .cls-80 {
        fill: #f5c1a2;
      }

      .cls-81 {
        fill: #e29a80;
      }

      .cls-82 {
        fill: #a85d45;
      }

      .cls-83 {
        fill: #4c2b3b;
      }

      .cls-84 {
        fill: #2b4461;
      }

      .cls-85 {
        fill: #fff4ef;
      }

      .cls-86 {
        fill: #532c3d;
      }

      .cls-87 {
        fill: #161724;
      }

      .cls-88 {
        fill: #131b2d;
      }

      .cls-89 {
        fill: #3a4352;
      }

      .cls-90 {
        fill: #8196a3;
      }

      .cls-91 {
        fill: #030505;
      }

      .cls-92 {
        fill: #f7fafd;
      }

      .cls-93 {
        fill: #f6bc99;
      }

      .cls-94 {
        fill: #e9b291;
      }

      .cls-95 {
        fill: #d7a183;
      }

      .cls-96 {
        fill: #985452;
      }

      .cls-97 {
        fill: #fdd6b4;
      }

      .cls-98 {
        fill: #0a0a0d;
      }

      .cls-99 {
        fill: #303745;
      }

      .cls-100 {
        fill: #fbc099;
      }

      .cls-101 {
        fill: #f3a987;
      }

      .cls-102 {
        fill: #3a485c;
      }

      .cls-103 {
        fill: #fdfcea;
      }

      .cls-104 {
        fill: #f7ddbd;
      }

      .cls-105 {
        fill: #ffdebd;
      }

      .cls-106 {
        fill: #e9ab92;
      }

      .cls-107 {
        fill: #f09f7e;
      }

      .cls-108 {
        fill: #572c84;
      }

      .cls-109 {
        fill: #393d4c;
      }

      .cls-110 {
        fill: #b47266;
      }

      .cls-111 {
        fill: #fffdf8;
      }

      .cls-112 {
        fill: #e0ebee;
      }

      .cls-113 {
        fill: #17101d;
      }

      .cls-114 {
        fill: #e8916f;
      }
    </style>
  </defs>
  <!-- Generator: Adobe Illustrator 28.7.1, SVG Export Plug-In . SVG Version: 1.2.0 Build 142)  -->
  <g>
    <g id="Layer_1">
      <g>
        <g>
          <circle class="cls-34" cx="99.9" cy="105.9" r="93.5"/>
          <circle class="cls-108" cx="99.9" cy="105.9" r="90.6"/>
          <circle class="cls-92" cx="99.9" cy="105.9" r="86.4"/>
        </g>
        <path class="cls-15" d="M171.5,106.8c-.3,11.4-2.3,23.1-8.2,33.7-2.8,5.1-6.3,9.5-11.1,12.8-6.4,4.5-13.4,5.3-20.7,3.5-1.2-.3-1.7,0-2.2,1-3.4,6-7.6,11.2-13.5,14.9-5.5,3.5-11.6,5-18.1,4.5-8.4-.7-15.3-4.5-20.9-10.8-2.4-2.8-4.6-5.7-6.3-8.9-.3-.6-.7-.8-1.4-.6-5.6,1-11.2,1.4-16.6-.9-5.6-2.4-9.9-6.4-13.3-11.4-4.7-6.8-7.5-14.4-9.1-22.5-1.2-5.9-1.9-11.9-1.6-17.9.5-12.1,2.9-23.7,9.3-34.2,2.8-4.5,6.2-8.4,10.7-11.4,6.2-4.1,12.9-4.6,19.9-3,.9.2,1.3,0,1.7-.8,3.3-6,7.4-11.4,13.2-15.3,5.8-3.9,12.2-5.7,19.1-5.1,8.4.7,15.3,4.5,20.9,10.8,2.7,3,5,6.4,6.9,9.9.3.5.5.8,1.2.7,11.9-3,21.2,1.2,28.4,10.6,5.5,7.1,8.5,15.3,10.2,24,1.1,5.2,1.6,10.5,1.7,16.4ZM67.6,152.2c-1-2.3-2-4.5-2.8-6.8-3.4-9.6-5.2-19.6-5.9-29.7-.7-9.5-.4-19,.9-28.4,1-6.8,2.5-13.5,4.7-20,.2-.7.2-1-.6-1.3-1.6-.5-3.3-.9-5-.7-4.4.5-7.2,3.2-8.9,7-4.1,8.8-6.2,18.1-6.9,27.7-.5,7.1-.2,14.2.9,21.3,1.3,8.1,3.7,15.8,7.9,22.9,1.2,2,2.6,3.9,4.2,5.6,3.2,3.2,7.1,3.6,11.4,2.5ZM141.3,105.8c0,6-.4,12.1-1.2,18-1,7.2-2.6,14.3-5,21.2-.2.5-.2.9.4,1.1,2,.7,4,1,6.1.6,3.9-.7,6.6-3.2,8.3-6.7,4.2-8.6,6-17.7,6.8-27.1.5-6.1.3-12.3-.4-18.4-.8-6.8-2.4-13.5-5.2-19.8-1.8-4.1-4-7.9-7.4-11-2.8-2.5-6-3.7-9.8-3.1-.8.1-1.3.2-.8,1.2.5.9.8,1.9,1.1,2.8,5,13.2,6.8,27,7,41.1ZM101.8,91.2c1.4-3.1,2.8-6.1,4.2-9.1,3.5-7.2,7.5-14.2,13.5-19.8.4-.4.4-.7.2-1.2-2-4.6-4.4-9.1-7.6-13-2.4-2.9-5-5.5-8.4-7.2-2.5-1.3-4.9-1.3-7.4,0-2,1-3.8,2.3-5.4,3.9-4.6,4.5-7.7,9.9-10.3,15.7-.2.5,0,.8.3,1.1,6.1,4.5,10.7,10.3,14.6,16.8,2.5,4.1,4.5,8.3,6.4,12.9ZM99.1,120.7c-.3,0-.3.2-.3.4-1.6,4.5-3.4,9-5.6,13.3-3.1,6.3-6.7,12.2-12.2,16.8-.4.4-.3.7-.1,1.1,1.9,4.1,4.1,7.9,6.9,11.4,2.6,3.2,5.4,6,9.2,7.6,1.4.6,2.8.9,4.4.5,3.1-.9,5.5-2.7,7.8-4.9,4.4-4.3,7.4-9.5,10-15,.3-.6,0-.9-.4-1.2-2.4-1.8-4.5-3.9-6.4-6.2-5.1-6-8.7-12.8-11.7-20-.5-1.3-1-2.6-1.5-3.8ZM75.3,75.2c-5.2,23.4-4.8,46.3,2.3,69.2.3-.3.4-.4.5-.5.8-1.2,1.6-2.4,2.3-3.6,5.4-9.3,9.1-19.4,12.7-29.5.1-.4,0-.7,0-1.1-3.8-10.1-8-19.9-13.8-29-1.1-1.8-2.4-3.6-4-5.5ZM122.6,68.8c-.3.4-.5.6-.6.8-.9,1.4-1.8,2.8-2.7,4.3-4.7,8.6-8.1,17.8-11.7,26.9-.2.5,0,.9,0,1.4,1.2,3.9,2.6,7.9,4.1,11.7,3.1,7.7,6.5,15.2,11.4,21.9.2.3.4.8,1,1,5.2-22.7,4.9-45.3-1.8-68Z"/>
      </g>
      <g>
        <g>
          <polygon class="cls-29" points="105.6 137.2 110.4 137.2 109.4 138.5 105.1 142.1 101 140.8 99.5 140.8 105.6 137.2"/>
          <polygon class="cls-113" points="99.5 140.8 109.4 138.5 105.2 142.3 101 140.8 99.5 140.8"/>
          <polygon class="cls-98" points="123.1 89.1 99.5 89.1 107 95.7 123.1 89.1"/>
          <polygon class="cls-22" points="141.1 80.7 141.1 84.7 135.8 84 135.6 77.3 141.1 80.7"/>
          <polygon class="cls-41" points="99.5 64.2 111.3 53.9 117.2 59.9 99.5 64.2"/>
          <polygon class="cls-80" points="141.7 131.2 141.7 129.8 142.8 126.3 143.5 121.5 144.5 117.9 145.3 111.9 145.3 109.3 143.4 108.5 143.4 111 142.3 113.6 143.6 111.5 144.8 110.7 144.4 114.7 143.3 118.4 141.1 117.1 140.7 117.7 139.6 127.6 141.7 131.2"/>
          <path class="cls-111" d="M101,118.5l3.5-5.7-4.9-1v24h6s-4.5-8.4-4.5-10.8,0-6.5,0-6.5Z"/>
          <polygon class="cls-17" points="105.6 107.4 99.5 98.9 103.3 98.4 115.7 96.4 105.6 107.4"/>
          <polygon class="cls-57" points="107.4 158 112.4 150.8 108.6 152.6 105.6 154.9 99.5 155.6 99.5 156.8 105.8 157.3 107.4 158"/>
          <polygon class="cls-85" points="122 117.7 120.2 119.1 118.6 119.7 116.5 120 113.5 119.3 110.4 117.9 110.1 117.8 109.6 116.8 113.4 115.2 117 114 120.5 114.8 122.3 115.8 123.4 117 122 117.7"/>
          <circle class="cls-79" cx="116.5" cy="115.8" r="2.8"/>
          <circle class="cls-91" cx="116.5" cy="115.6" r="1.7"/>
          <polygon class="cls-42" points="119.3 108.5 124.7 106.3 130.3 111.7 119.3 108.5"/>
          <polygon class="cls-27" points="124.7 96.4 109.4 108.5 119.2 104 124.7 106.3 124.7 96.4"/>
          <polygon class="cls-38" points="126 162.8 127.5 161.8 120.9 160.6 114.4 151.3 117 159 119 162.8 126 162.8"/>
          <polygon class="cls-53" points="99.5 43.6 99.5 64.2 111.3 53.9 99.5 43.6"/>
          <polygon class="cls-54" points="120.7 47.2 111.3 53.9 99.5 43.6 115 45.8 120.7 47.2"/>
          <polygon class="cls-51" points="121.3 44.4 120.7 47.2 115 45.8 121.3 44.4"/>
          <polygon class="cls-112" points="99.5 41.4 99.5 43.6 115 45.8 121.3 44.4 115 43.1 107.7 42.2 102.7 41.8 99.5 41.4"/>
          <polygon class="cls-62" points="132.1 53.9 134 52.9 130.6 50.1 126.3 47.2 123.2 45.2 121.3 44.4 132.1 53.9"/>
          <polygon class="cls-102" points="117.2 59.9 121.3 44.4 132.1 53.9 117.2 59.9"/>
          <polygon class="cls-90" points="111.3 53.9 117.2 59.9 120.7 47.2 111.3 53.9"/>
          <polygon class="cls-60" points="135.6 77.3 132.1 53.9 117.2 59.9 135.6 77.3"/>
          <polygon class="cls-32" points="139.7 79.8 135.6 77.3 133.4 62.7 139.7 79.8"/>
          <polygon class="cls-46" points="134.9 53.9 137 58 138.5 61 139.4 65.1 139.4 73.3 139.7 79.8 133.4 62.7 132.1 53.9 134 52.9 134.9 53.9"/>
          <polygon class="cls-99" points="117.6 74.1 117.2 59.9 135.6 77.3 129.1 75.6 117.6 74.1"/>
          <polygon class="cls-89" points="109.4 73.2 117.2 59.9 117.6 74.1 109.4 73.2"/>
          <polygon class="cls-26" points="109.4 73.2 117.2 59.9 99.5 64.2 109.4 73.2"/>
          <polygon class="cls-58" points="99.5 73.5 109.4 73.2 99.5 64.2 99.5 73.5"/>
          <polygon class="cls-59" points="118.1 84 117.6 74.1 109.4 73.2 99.5 73.5 99.5 84 118.1 84"/>
          <polygon class="cls-109" points="129.4 84 118.1 84 117.6 74.1 129.1 75.6 129.4 84"/>
          <polygon class="cls-44" points="135.8 84 135.6 77.3 129.1 75.6 129.4 84 135.8 84"/>
          <polygon class="cls-11" points="99.5 89.1 99.5 84 118.1 84 129.4 84 123.1 89.1 99.5 89.1"/>
          <polygon class="cls-69" points="143.4 84.7 135.8 84 129.4 84 123.1 89.1 133.4 89.8 143.4 84.7"/>
          <polygon class="cls-23" points="143.4 89.8 143.4 84.7 133.4 89.8 143.4 89.8"/>
          <polygon class="cls-64" points="154 86.9 143.4 84.7 143.4 89.8 154 86.9"/>
          <polygon class="cls-70" points="156.6 92.8 143.4 89.8 154 86.9 156.6 92.8"/>
          <polygon class="cls-77" points="159.5 89.1 156.6 92.8 154 86.9 159.5 89.1"/>
          <polygon class="cls-36" points="162.5 94.1 159.5 89.1 156.6 92.8 161.5 95.6 162.5 94.1"/>
          <polygon class="cls-67" points="162.5 99.5 162.5 94.1 161.5 95.6 158.6 104 162.5 99.5"/>
          <polygon class="cls-12" points="99.5 95.7 99.5 89.1 107 95.7 99.5 95.7"/>
          <polygon class="cls-39" points="115.7 96.4 127.6 89.4 123.1 89.1 107 95.7 115.7 96.4"/>
          <polygon class="cls-30" points="124.7 96.4 138.4 89.8 133.4 89.8 127.6 89.4 115.7 96.4 124.7 96.4"/>
          <polygon class="cls-48" points="132.4 97.9 143.4 89.8 138.4 89.8 124.7 96.4 132.4 97.9"/>
          <polygon class="cls-87" points="140.7 100.1 156.6 92.8 143.4 89.8 132.4 97.9 140.7 100.1"/>
          <polygon class="cls-47" points="145.3 104 140.7 100.1 156.6 92.8 161.5 95.6 145.3 104"/>
          <polygon class="cls-88" points="145.3 104 161.5 95.6 158.6 104 145.3 104"/>
          <polygon class="cls-6" points="145.3 111.9 151.9 109 158.6 104 145.3 104 142.3 105.4 143.4 108.5 144.8 109.1 145.3 109.3 145.3 111.9"/>
          <polygon class="cls-63" points="138.4 119.6 138.4 114.7 139.1 113.3 136.4 99 140.7 100.1 145.3 104 142.3 105.4 143.4 108.5 143.4 111 142.3 113.6 141.1 117.1 139.4 119.6 138.4 119.6"/>
          <polygon class="cls-5" points="105.6 107.4 99.5 98.9 99.5 111.8 104.5 112.8 105.6 107.4"/>
          <polygon class="cls-86" points="99.5 98.9 99.5 95.7 107 95.7 115.7 96.4 99.5 98.9"/>
          <polygon class="cls-3" points="109.4 108.5 124.7 96.4 115.7 96.4 105.6 107.4 106.4 108.5 109.4 108.5"/>
          <polygon class="cls-13" points="124.7 106.3 119.2 104 109.4 108.5 124.7 106.3"/>
          <polygon class="cls-18" points="134.9 98.6 132.4 97.9 124.7 96.4 124.7 106.3 130.3 111.7 134.9 98.6"/>
          <polygon class="cls-95" points="131.4 117.9 130.3 111.7 134.9 98.6 136.4 99 139.1 113.3 138.4 114.7 131.4 117.9"/>
          <polygon class="cls-8" points="129.1 118.9 130.8 114.7 131.4 117.9 129.1 118.9"/>
          <polygon class="cls-5" points="126.4 118.9 127 119.6 129.1 118.9 130.8 114.7 130.3 111.7 126.4 118.9"/>
          <polygon class="cls-110" points="123.5 115.3 126.4 118.9 130.3 111.7 123.5 115.3"/>
          <polygon class="cls-75" points="132.6 123.5 131.4 117.9 138.4 114.7 132.6 123.5"/>
          <polygon class="cls-25" points="132.6 123.5 138.4 114.7 138.4 119.6 132.1 138.5 132.6 123.5"/>
          <polygon class="cls-33" points="138.4 131.9 138.4 119.6 132.1 138.5 130.8 148.4 128.6 160.1 138.4 131.9"/>
          <polygon class="cls-31" points="134.7 154.6 137.6 144.1 138.4 131.9 128.6 160.1 134.7 154.6"/>
          <polygon class="cls-101" points="121.5 143.6 120.9 151.7 127.5 161.8 128.6 160.1 130.6 149.4 121.5 143.6"/>
          <polygon class="cls-114" points="126.9 134.8 121.5 143.6 130.6 149.4 131 147.2 126.9 134.8"/>
          <polygon class="cls-82" points="126.9 134.8 131 147.2 132.1 138.5 132.6 123.5 126.9 134.8"/>
          <polygon class="cls-21" points="125.7 128.1 132.6 123.5 126.9 134.8 125.7 128.1"/>
          <polygon class="cls-49" points="120.9 131.9 125.7 128.1 126.9 134.8 120.9 131.9"/>
          <polygon class="cls-76" points="124.7 125.3 123.2 130.1 125.7 128.1 126.9 122.5 124.7 125.3"/>
          <polygon class="cls-56" points="120.4 128.1 123.8 128.1 124.7 125.3 120.4 128.1"/>
          <polygon class="cls-81" points="117 129.2 120.4 128.1 123.8 128.1 123.2 130.1 120.9 131.9 117 129.2"/>
          <polygon class="cls-61" points="122.5 122.5 119.3 128.4 120.4 128.1 124.7 125.3 126.9 122.5 122.5 122.5"/>
          <polygon class="cls-24" points="127 119.6 131.4 117.9 132.6 123.5 125.7 128.1 126.9 122.5 127 119.6"/>
          <polygon class="cls-33" points="120.9 131.9 126.9 134.8 121.5 143.6 120.9 131.9"/>
          <polygon class="cls-2" points="110.4 129.2 121.5 143.6 120.9 131.9 117 129.2 110.4 129.2"/>
          <polygon class="cls-71" points="115.7 143.6 120.9 151.7 121.5 143.6 115.7 143.6"/>
          <polygon class="cls-40" points="112.5 140 110.4 137.2 110.8 135.4 109.4 131.4 110.4 129.2 121.5 143.6 115.7 143.6 112.5 140"/>
          <polygon class="cls-1" points="120.9 160.6 120.9 151.7 127.5 161.8 120.9 160.6"/>
          <polygon class="cls-31" points="114.4 151.3 120.9 151.7 120.9 160.6 114.4 151.3"/>
          <polygon class="cls-21" points="112.6 151 108.4 152.7 99.5 153.6 99.5 151.7 102.2 151.3 112.6 151"/>
          <polygon class="cls-38" points="103.3 148.8 99.5 150.6 99.5 151.8 102.2 151.3 112.6 151 103.3 148.8"/>
          <polygon class="cls-37" points="101 140.8 103.3 148.8 99.5 150.6 99.5 140.8 101 140.8"/>
          <path class="cls-97" d="M109.4,138.5s-3.9,3.5-4.3,3.6-4.1-1.3-4.1-1.3l2.3,8,11.2,2.7,3.6-4.3-2.3-3.6-5.3-6.5-1,1.4Z"/>
          <polygon class="cls-74" points="118 147.2 114.4 151.3 120.9 151.7 118 147.2"/>
          <polygon class="cls-105" points="109.4 124.1 110.4 129.2 117 129.2 109.4 124.1"/>
          <polygon class="cls-45" points="113.8 123.5 117 129.2 119.3 128.4 121.3 124.8 113.8 123.5"/>
          <polygon class="cls-104" points="124.2 118.9 122.5 122.5 126.9 122.5 127 119.6 124.2 118.9"/>
          <polygon class="cls-4" points="118 124.2 121.3 124.8 122.5 122.5 118 124.2"/>
          <polygon class="cls-78" points="111.4 120.2 113.2 121.8 116.4 122.5 119.3 122.5 122.5 122.5 118 124.2 113.8 123.5 112.5 122.5 109.5 119.6 111.4 120.2"/>
          <polygon class="cls-52" points="123.1 118.1 120.4 120.1 119.3 122.5 122.5 122.5 124.2 118.9 123.1 118.1"/>
          <polygon class="cls-80" points="107 111.7 115.5 113.7 120.2 114.7 123.5 115.3 130.3 111.7 119.3 108.5 107 111.7"/>
          <polygon class="cls-28" points="109.4 108.5 124.7 106.3 119.3 108.5 113.8 109.9 109.4 108.5"/>
          <polygon class="cls-50" points="111.8 114.3 117 114 107 111.7 104.5 112.8 105.2 115.6 107 116.2 109.1 116.2 111.8 114.3"/>
          <polygon class="cls-43" points="105.6 107.4 104.5 112.8 107 111.7 113.8 109.9 109.4 108.5 105.6 107.4"/>
          <polygon class="cls-7" points="106 117.9 105.2 115.6 107 116.2 109.1 116.2 111.8 114.3 117 114 113.8 115 108.1 117.6 106 117.9"/>
          <polygon class="cls-106" points="106.6 119.1 109.4 124.1 117 129.2 113.8 123.5 109.5 119.6 106.6 119.1"/>
          <polygon class="cls-81" points="118.6 120.3 120.4 120.1 119.3 122.5 116.4 122.5 113.2 121.8 111.4 120.2 109.5 119.6 106.6 119.1 106 117.9 108.1 117.6 110.4 117.9 111.4 119.1 113.8 120.3 116.4 120.7 118.6 120.3"/>
          <polygon class="cls-20" points="99.5 111.8 104.5 112.8 105.6 137.2 99.5 140.9 99.5 111.8"/>
          <polygon class="cls-103" points="107.6 129.2 105.6 137.2 110.4 137.2 110.8 135.4 109.4 131.4 107.6 129.2"/>
          <polygon class="cls-100" points="107.6 129.2 109.4 131.4 110.4 129.2 109.4 124.1 106.6 119.1 105.9 117.6 105.2 115.6 104.5 112.8 105.6 137.2 107.6 129.2"/>
          <polygon class="cls-55" points="122 117.7 123.1 118.1 120.4 120.1 118.6 120.3 116.4 120.7 113.8 120.3 111.4 119.1 110.4 117.9 108.1 117.6 110.2 117.9 113.5 119.3 116.3 120 118.6 119.7 120.2 119.1 122 117.7"/>
          <polygon class="cls-93" points="107.4 158 112.4 150.8 114.4 151.3 117 159 107.4 158"/>
          <path class="cls-113" d="M105.6,154.9c.2.1,3.1-2.3,3.1-2.3l-9.1.9v2.1l6-.7Z"/>
          <polygon class="cls-20" points="99.5 158.3 99.5 156.8 105.8 157.3 107.4 158 117 159 105.6 164 99.5 158.3"/>
          <polygon class="cls-94" points="99.5 169.4 105.6 164 99.5 158.3 99.5 169.4"/>
          <path class="cls-10" d="M110.4,168.8l-4.8-4.8-6.1,5.4v1s8.6-.3,10.9-1.6Z"/>
          <polygon class="cls-9" points="116.1 166.4 110.4 168.8 105.6 164 117 159 119 162.8 116.1 166.4"/>
          <polygon class="cls-83" points="120.4 164.9 126 162.8 119 162.8 116.1 166.4 120.4 164.9"/>
          <polygon class="cls-19" points="137.8 141.7 138.7 141.7 140.3 140.2 138.4 138 138.4 131.9 137.8 141.7"/>
          <polygon class="cls-68" points="140.9 137.6 139.6 139.4 138.4 138 138.4 131.9 138.4 130 138.8 131.9 140.9 137.6"/>
          <polygon class="cls-16" points="138.4 128.1 139.6 127.6 141.9 131.4 142.3 136.8 142 137.8 140.3 140.2 139.6 139.4 140.9 137.6 138.8 131.9 138.4 130 138.4 128.1"/>
          <polygon class="cls-73" points="139.2 130.3 140.3 130.3 140.5 133.9 140.9 137.6 139.6 133.9 139 131 138.4 130 138.4 129.4 139.2 130.3"/>
          <polygon class="cls-35" points="140.7 117.7 141.7 121.5 140.3 124.1 138.4 125.3 138.4 119.6 139.4 119.6 140.7 117.7"/>
          <polygon class="cls-14" points="141.1 117.1 142.8 122.7 143.4 117.7 143.6 111.5 142.3 113.6 141.1 117.1"/>
          <polygon class="cls-96" points="138.4 128.1 138.4 125.3 140.3 124.1 139.6 127.6 138.4 128.1"/>
          <polygon class="cls-29" points="143.5 114.7 143.6 111.5 144.8 110.7 144.4 114.7 143.3 118.4 143.5 114.7"/>
          <path class="cls-66" d="M122,117.7l1.1-.6s-.9-2.1-3.4-2.6,3.9.8,3.9.8l3.5,4.3-2.9-.7-1.1-.8-1.1-.4Z"/>
          <path class="cls-72" d="M110.2,117.9s-.5.2-.4-1.1l-1.8.8,2.2.3Z"/>
          <polygon class="cls-84" points="145.3 109.3 151.9 109 145.3 111.9 145.3 109.3"/>
          <polygon class="cls-107" points="99.5 140.9 99.5 138.5 105.6 137.2 99.5 140.9"/>
          <polygon class="cls-107" points="105 124.1 104.5 112.8 101 118.5 101 125 101 126.7 105.5 135.7 105 124.1"/>
          <circle class="cls-65" cx="117.1" cy="115" r=".6"/>
        </g>
        <g>
          <polygon class="cls-29" points="93.5 137.2 88.7 137.2 89.7 138.5 94 142.1 98.1 140.8 99.5 140.8 93.5 137.2"/>
          <polygon class="cls-113" points="99.5 140.8 89.7 138.5 93.9 142.3 98.1 140.8 99.5 140.8"/>
          <polygon class="cls-98" points="76 89.1 99.5 89.1 92.1 95.7 76 89.1"/>
          <polygon class="cls-22" points="58 80.7 58 84.7 63.3 84 63.4 77.3 58 80.7"/>
          <polygon class="cls-41" points="99.5 64.2 87.8 53.9 81.8 59.9 99.5 64.2"/>
          <polygon class="cls-80" points="57.4 131.2 57.4 129.8 56.3 126.3 55.6 121.5 54.6 117.9 53.8 111.9 53.8 109.3 55.7 108.5 55.7 111 56.8 113.6 55.4 111.5 54.2 110.7 54.7 114.7 55.8 118.4 58 117.1 58.4 117.7 59.4 127.6 57.4 131.2"/>
          <path class="cls-111" d="M98.1,118.5l-3.5-5.7,4.9-1v24h-6s4.5-8.4,4.5-10.8,0-6.5,0-6.5Z"/>
          <polygon class="cls-17" points="93.5 107.4 99.5 98.9 95.8 98.4 83.4 96.4 93.5 107.4"/>
          <polygon class="cls-57" points="91.6 158 86.7 150.8 90.4 152.6 93.5 154.9 99.5 155.6 99.5 156.8 93.3 157.3 91.6 158"/>
          <polygon class="cls-85" points="77.1 117.7 78.8 119.1 80.5 119.7 82.6 120 85.6 119.3 88.7 117.9 89 117.8 89.4 116.8 85.7 115.2 82 114 78.6 114.8 76.8 115.8 75.7 117 77.1 117.7"/>
          <circle class="cls-79" cx="82.6" cy="115.8" r="2.8"/>
          <circle class="cls-91" cx="82.6" cy="115.6" r="1.7"/>
          <polygon class="cls-42" points="79.8 108.5 74.4 106.3 68.8 111.7 79.8 108.5"/>
          <polygon class="cls-27" points="74.4 96.4 89.7 108.5 79.9 104 74.4 106.3 74.4 96.4"/>
          <polygon class="cls-38" points="73.1 162.8 71.6 161.8 78.2 160.6 84.7 151.3 82.1 159 80.1 162.8 73.1 162.8"/>
          <polygon class="cls-53" points="99.5 43.6 99.5 64.2 87.8 53.9 99.5 43.6"/>
          <polygon class="cls-54" points="78.4 47.2 87.8 53.9 99.5 43.6 84.1 45.8 78.4 47.2"/>
          <polygon class="cls-51" points="77.8 44.4 78.4 47.2 84.1 45.8 77.8 44.4"/>
          <polygon class="cls-112" points="99.5 41.4 99.5 43.6 84.1 45.8 77.8 44.4 84.1 43.1 91.4 42.2 96.4 41.8 99.5 41.4"/>
          <polygon class="cls-62" points="67 53.9 65.1 52.9 68.4 50.1 72.7 47.2 75.9 45.2 77.8 44.4 67 53.9"/>
          <polygon class="cls-102" points="81.8 59.9 77.8 44.4 67 53.9 81.8 59.9"/>
          <polygon class="cls-90" points="87.8 53.9 81.8 59.9 78.4 47.2 87.8 53.9"/>
          <polygon class="cls-60" points="63.4 77.3 67 53.9 81.8 59.9 63.4 77.3"/>
          <polygon class="cls-32" points="59.4 79.8 63.4 77.3 65.6 62.7 59.4 79.8"/>
          <polygon class="cls-46" points="64.1 53.9 62.1 58 60.6 61 59.6 65.1 59.6 73.3 59.4 79.8 65.6 62.7 67 53.9 65.1 52.9 64.1 53.9"/>
          <polygon class="cls-99" points="81.4 74.1 81.8 59.9 63.4 77.3 70 75.6 81.4 74.1"/>
          <polygon class="cls-89" points="89.7 73.2 81.8 59.9 81.4 74.1 89.7 73.2"/>
          <polygon class="cls-26" points="89.7 73.2 81.8 59.9 99.5 64.2 89.7 73.2"/>
          <polygon class="cls-58" points="99.5 73.5 89.7 73.2 99.5 64.2 99.5 73.5"/>
          <polygon class="cls-59" points="81 84 81.4 74.1 89.7 73.2 99.5 73.5 99.5 84 81 84"/>
          <polygon class="cls-109" points="69.7 84 81 84 81.4 74.1 70 75.6 69.7 84"/>
          <polygon class="cls-44" points="63.3 84 63.4 77.3 70 75.6 69.7 84 63.3 84"/>
          <polygon class="cls-11" points="99.5 89.1 99.5 84 81 84 69.7 84 76 89.1 99.5 89.1"/>
          <polygon class="cls-69" points="55.7 84.7 63.3 84 69.7 84 76 89.1 65.6 89.8 55.7 84.7"/>
          <polygon class="cls-23" points="55.7 89.8 55.7 84.7 65.6 89.8 55.7 89.8"/>
          <polygon class="cls-64" points="45.1 86.9 55.7 84.7 55.7 89.8 45.1 86.9"/>
          <polygon class="cls-70" points="42.5 92.8 55.7 89.8 45.1 86.9 42.5 92.8"/>
          <polygon class="cls-77" points="39.6 89.1 42.5 92.8 45.1 86.9 39.6 89.1"/>
          <polygon class="cls-36" points="36.5 94.1 39.6 89.1 42.5 92.8 37.6 95.6 36.5 94.1"/>
          <polygon class="cls-67" points="36.5 99.5 36.5 94.1 37.6 95.6 40.5 104 36.5 99.5"/>
          <polygon class="cls-12" points="99.5 95.7 99.5 89.1 92.1 95.7 99.5 95.7"/>
          <polygon class="cls-39" points="83.4 96.4 71.5 89.4 76 89.1 92.1 95.7 83.4 96.4"/>
          <polygon class="cls-30" points="74.4 96.4 60.7 89.8 65.6 89.8 71.5 89.4 83.4 96.4 74.4 96.4"/>
          <polygon class="cls-48" points="66.7 97.9 55.7 89.8 60.7 89.8 74.4 96.4 66.7 97.9"/>
          <polygon class="cls-87" points="58.4 100.1 42.5 92.8 55.7 89.8 66.7 97.9 58.4 100.1"/>
          <polygon class="cls-47" points="53.8 104 58.4 100.1 42.5 92.8 37.6 95.6 53.8 104"/>
          <polygon class="cls-88" points="53.8 104 37.6 95.6 40.5 104 53.8 104"/>
          <polygon class="cls-6" points="53.8 111.9 47.2 109 40.5 104 53.8 104 56.8 105.4 55.7 108.5 54.2 109.1 53.8 109.3 53.8 111.9"/>
          <polygon class="cls-63" points="60.7 119.6 60.7 114.7 60 113.3 62.6 99 58.4 100.1 53.8 104 56.8 105.4 55.7 108.5 55.7 111 56.8 113.6 58 117.1 59.6 119.6 60.7 119.6"/>
          <polygon class="cls-5" points="93.5 107.4 99.5 98.9 99.5 111.8 94.6 112.8 93.5 107.4"/>
          <polygon class="cls-86" points="99.5 98.9 99.5 95.7 92.1 95.7 83.4 96.4 99.5 98.9"/>
          <polygon class="cls-3" points="89.7 108.5 74.4 96.4 83.4 96.4 93.5 107.4 92.7 108.5 89.7 108.5"/>
          <polygon class="cls-13" points="74.4 106.3 79.9 104 89.7 108.5 74.4 106.3"/>
          <polygon class="cls-18" points="64.2 98.6 66.7 97.9 74.4 96.4 74.4 106.3 68.8 111.7 64.2 98.6"/>
          <polygon class="cls-95" points="67.7 117.9 68.8 111.7 64.2 98.6 62.6 99 60 113.3 60.7 114.7 67.7 117.9"/>
          <polygon class="cls-8" points="70 118.9 68.3 114.7 67.7 117.9 70 118.9"/>
          <polygon class="cls-5" points="72.6 118.9 72 119.6 70 118.9 68.3 114.7 68.8 111.7 72.6 118.9"/>
          <polygon class="cls-110" points="75.6 115.3 72.6 118.9 68.8 111.7 75.6 115.3"/>
          <polygon class="cls-75" points="66.5 123.5 67.7 117.9 60.7 114.7 66.5 123.5"/>
          <polygon class="cls-25" points="66.5 123.5 60.7 114.7 60.7 119.6 67 138.5 66.5 123.5"/>
          <polygon class="cls-33" points="60.7 131.9 60.7 119.6 67 138.5 68.3 148.4 70.5 160.1 60.7 131.9"/>
          <polygon class="cls-31" points="64.4 154.6 61.5 144.1 60.7 131.9 70.5 160.1 64.4 154.6"/>
          <polygon class="cls-101" points="77.6 143.6 78.2 151.7 71.6 161.8 70.5 160.1 68.4 149.4 77.6 143.6"/>
          <polygon class="cls-114" points="72.2 134.8 77.6 143.6 68.4 149.4 68.1 147.2 72.2 134.8"/>
          <polygon class="cls-82" points="72.2 134.8 68.1 147.2 67 138.5 66.5 123.5 72.2 134.8"/>
          <polygon class="cls-21" points="73.3 128.1 66.5 123.5 72.2 134.8 73.3 128.1"/>
          <polygon class="cls-49" points="78.2 131.9 73.3 128.1 72.2 134.8 78.2 131.9"/>
          <polygon class="cls-76" points="74.4 125.3 75.9 130.1 73.3 128.1 72.2 122.5 74.4 125.3"/>
          <polygon class="cls-56" points="78.7 128.1 75.3 128.1 74.4 125.3 78.7 128.1"/>
          <polygon class="cls-81" points="82 129.2 78.7 128.1 75.3 128.1 75.9 130.1 78.2 131.9 82 129.2"/>
          <polygon class="cls-61" points="76.6 122.5 79.8 128.4 78.7 128.1 74.4 125.3 72.2 122.5 76.6 122.5"/>
          <polygon class="cls-24" points="72 119.6 67.7 117.9 66.5 123.5 73.3 128.1 72.2 122.5 72 119.6"/>
          <polygon class="cls-33" points="78.2 131.9 72.2 134.8 77.6 143.6 78.2 131.9"/>
          <polygon class="cls-2" points="88.7 129.2 77.6 143.6 78.2 131.9 82 129.2 88.7 129.2"/>
          <polygon class="cls-71" points="83.4 143.6 78.2 151.7 77.6 143.6 83.4 143.6"/>
          <polygon class="cls-40" points="86.6 140 88.7 137.2 88.3 135.4 89.7 131.4 88.7 129.2 77.6 143.6 83.4 143.6 86.6 140"/>
          <polygon class="cls-1" points="78.2 160.6 78.2 151.7 71.6 161.8 78.2 160.6"/>
          <polygon class="cls-31" points="84.7 151.3 78.2 151.7 78.2 160.6 84.7 151.3"/>
          <polygon class="cls-21" points="86.5 151 90.6 152.7 99.5 153.6 99.5 151.7 96.9 151.3 86.5 151"/>
          <polygon class="cls-38" points="95.8 148.8 99.5 150.6 99.5 151.8 96.9 151.3 86.5 151 95.8 148.8"/>
          <polygon class="cls-37" points="98.1 140.8 95.8 148.8 99.5 150.6 99.5 140.8 98.1 140.8"/>
          <path class="cls-97" d="M89.7,138.5s3.9,3.5,4.3,3.6,4.1-1.3,4.1-1.3l-2.3,8-11.2,2.7-3.6-4.3,2.3-3.6,5.3-6.5,1,1.4Z"/>
          <polygon class="cls-74" points="81.1 147.2 84.7 151.3 78.2 151.7 81.1 147.2"/>
          <polygon class="cls-105" points="89.7 124.1 88.7 129.2 82 129.2 89.7 124.1"/>
          <polygon class="cls-45" points="85.3 123.5 82 129.2 79.8 128.4 77.8 124.8 85.3 123.5"/>
          <polygon class="cls-104" points="74.9 118.9 76.6 122.5 72.2 122.5 72 119.6 74.9 118.9"/>
          <polygon class="cls-4" points="81.1 124.2 77.8 124.8 76.6 122.5 81.1 124.2"/>
          <polygon class="cls-78" points="87.7 120.2 85.9 121.8 82.7 122.5 79.8 122.5 76.6 122.5 81.1 124.2 85.3 123.5 86.5 122.5 89.6 119.6 87.7 120.2"/>
          <polygon class="cls-52" points="76 118.1 78.7 120.1 79.8 122.5 76.6 122.5 74.9 118.9 76 118.1"/>
          <polygon class="cls-80" points="92.1 111.7 83.6 113.7 78.8 114.7 75.6 115.3 68.8 111.7 79.8 108.5 92.1 111.7"/>
          <polygon class="cls-28" points="89.7 108.5 74.4 106.3 79.8 108.5 85.3 109.9 89.7 108.5"/>
          <polygon class="cls-50" points="87.3 114.3 82 114 92.1 111.7 94.6 112.8 93.9 115.6 92.1 116.2 90 116.2 87.3 114.3"/>
          <polygon class="cls-43" points="93.5 107.4 94.6 112.8 92.1 111.7 85.3 109.9 89.7 108.5 93.5 107.4"/>
          <polygon class="cls-7" points="93.1 117.9 93.9 115.6 92.1 116.2 90 116.2 87.3 114.3 82 114 85.3 115 91 117.6 93.1 117.9"/>
          <polygon class="cls-106" points="92.5 119.1 89.7 124.1 82 129.2 85.3 123.5 89.6 119.6 92.5 119.1"/>
          <polygon class="cls-81" points="80.5 120.3 78.7 120.1 79.8 122.5 82.7 122.5 85.9 121.8 87.7 120.2 89.6 119.6 92.5 119.1 93.1 117.9 91 117.6 88.7 117.9 87.7 119.1 85.3 120.3 82.6 120.7 80.5 120.3"/>
          <polygon class="cls-20" points="99.5 111.8 94.6 112.8 93.5 137.2 99.5 140.9 99.5 111.8"/>
          <polygon class="cls-103" points="91.5 129.2 93.5 137.2 88.7 137.2 88.3 135.4 89.7 131.4 91.5 129.2"/>
          <polygon class="cls-100" points="91.5 129.2 89.7 131.4 88.7 129.2 89.7 124.1 92.5 119.1 93.2 117.6 93.9 115.6 94.6 112.8 93.5 137.2 91.5 129.2"/>
          <polygon class="cls-55" points="77.1 117.7 76 118.1 78.7 120.1 80.5 120.3 82.6 120.7 85.3 120.3 87.7 119.1 88.7 117.9 91 117.6 88.8 117.9 85.6 119.3 82.8 120 80.5 119.7 78.8 119.1 77.1 117.7"/>
          <polygon class="cls-93" points="91.6 158 86.7 150.8 84.7 151.3 82.1 159 91.6 158"/>
          <path class="cls-113" d="M93.5,154.9c-.2.1-3.1-2.3-3.1-2.3l9.1.9v2.1s-6-.7-6-.7Z"/>
          <polygon class="cls-20" points="99.5 158.3 99.5 156.8 93.3 157.3 91.6 158 82.1 159 93.5 164 99.5 158.3"/>
          <polygon class="cls-94" points="99.5 169.4 93.5 164 99.5 158.3 99.5 169.4"/>
          <path class="cls-10" d="M88.6,168.8l4.8-4.8,6.1,5.4v1s-8.6-.3-10.9-1.6Z"/>
          <polygon class="cls-9" points="83 166.4 88.6 168.8 93.5 164 82.1 159 80.1 162.8 83 166.4"/>
          <polygon class="cls-83" points="78.7 164.9 73.1 162.8 80.1 162.8 83 166.4 78.7 164.9"/>
          <polygon class="cls-19" points="61.3 141.7 60.4 141.7 58.7 140.2 60.7 138 60.7 131.9 61.3 141.7"/>
          <polygon class="cls-68" points="58.2 137.6 59.4 139.4 60.7 138 60.7 131.9 60.7 130 60.2 131.9 58.2 137.6"/>
          <polygon class="cls-16" points="60.7 128.1 59.4 127.6 57.2 131.4 56.8 136.8 57 137.8 58.7 140.2 59.4 139.4 58.2 137.6 60.2 131.9 60.7 130 60.7 128.1"/>
          <polygon class="cls-73" points="59.8 130.3 58.7 130.3 58.6 133.9 58.2 137.6 59.4 133.9 60 131 60.7 130 60.7 129.4 59.8 130.3"/>
          <polygon class="cls-35" points="58.4 117.7 57.4 121.5 58.7 124.1 60.7 125.3 60.7 119.6 59.6 119.6 58.4 117.7"/>
          <polygon class="cls-14" points="58 117.1 56.3 122.7 55.7 117.7 55.4 111.5 56.8 113.6 58 117.1"/>
          <polygon class="cls-96" points="60.7 128.1 60.7 125.3 58.7 124.1 59.4 127.6 60.7 128.1"/>
          <polygon class="cls-29" points="55.6 114.7 55.4 111.5 54.2 110.7 54.7 114.7 55.8 118.4 55.6 114.7"/>
          <path class="cls-66" d="M77.1,117.7l-1.1-.6s.9-2.1,3.4-2.6-3.9.8-3.9.8l-3.5,4.3,2.9-.7,1.1-.8,1.1-.4Z"/>
          <path class="cls-72" d="M88.8,117.9s.5.2.4-1.1l1.8.8-2.2.3Z"/>
          <polygon class="cls-84" points="53.8 109.3 47.2 109 53.8 111.9 53.8 109.3"/>
          <polygon class="cls-107" points="99.5 140.9 99.5 138.5 93.5 137.2 99.5 140.9"/>
          <polygon class="cls-107" points="94.1 124.1 94.6 112.8 98.1 118.5 98.1 125 98.1 126.7 93.5 135.7 94.1 124.1"/>
        </g>
      </g>
    </g>
  </g>
</svg>